<?xml version="1.0" encoding="UTF-8" standalone="no"?>
<svg width="221px" height="41px" viewBox="0 0 221 41" version="1.1" xmlns="http://www.w3.org/2000/svg" xmlns:xlink="http://www.w3.org/1999/xlink" xmlns:sketch="http://www.bohemiancoding.com/sketch/ns">
    <!-- Generator: Sketch 3.5 (25232) - http://www.bohemiancoding.com/sketch -->
    <title>logo</title>
    <desc>Created with Sketch.</desc>
    <defs></defs>
    <g id="Welcome" stroke="none" stroke-width="1" fill="none" fill-rule="evenodd" sketch:type="MSPage">
        <g id="sample3-05" sketch:type="MSArtboardGroup" transform="translate(-40.000000, -29.000000)">
            <g id="logo" sketch:type="MSLayerGroup" transform="translate(40.000000, 29.000000)">
                <g id="Group" sketch:type="MSShapeGroup">
                    <g transform="translate(41.000000, 17.000000)" id="Shape" fill="#C87D4D">
                        <path d="M1.03846154,16.3428571 L2.07692308,16.3428571 C3.57692308,16.3428571 3.80769231,16.1142857 3.80769231,14.7428571 L3.80769231,4.45714286 C3.80769231,2.97142857 3.57692308,2.85714286 2.07692308,2.85714286 L1.03846154,2.85714286 L1.03846154,0.914285714 L11.1923077,0.914285714 C15.5769231,0.914285714 17.7692308,2.28571429 17.7692308,5.25714286 C17.7692308,7.42857143 16.8461538,8.45714286 14.1923077,9.14285714 C15.6923077,9.48571429 16.3846154,9.82857143 17.0769231,10.4 C18,11.2 18.4615385,12.3428571 18.4615385,13.7142857 C18.4615385,15.2 17.8846154,16.4571429 16.9615385,17.1428571 C15.6923077,18.0571429 14.0769231,18.4 10.7307692,18.4 L1.03846154,18.4 L1.03846154,16.3428571 L1.03846154,16.3428571 Z M10.0384615,8.22857143 C11.8846154,8.22857143 12.6923077,8 13.2692308,7.42857143 C13.7307692,6.97142857 13.9615385,6.28571429 13.9615385,5.48571429 C13.9615385,4.57142857 13.6153846,3.88571429 13.1538462,3.42857143 C12.5769231,2.97142857 11.7692308,2.74285714 10.2692308,2.74285714 L7.5,2.74285714 L7.5,8.22857143 L10.0384615,8.22857143 L10.0384615,8.22857143 Z M10.3846154,16.3428571 C12,16.3428571 13.0384615,16.1142857 13.6153846,15.6571429 C14.1923077,15.2 14.5384615,14.2857143 14.5384615,13.2571429 C14.5384615,12.2285714 14.1923077,11.4285714 13.6153846,10.9714286 C12.9230769,10.4 12,10.2857143 10.1538462,10.2857143 L7.5,10.2857143 L7.5,16.3428571 L10.3846154,16.3428571 L10.3846154,16.3428571 Z"></path>
                        <path d="M30,18.2857143 L21.5769231,18.2857143 L21.5769231,16.5714286 L22.3846154,16.5714286 C23.6538462,16.4571429 23.8846154,16.3428571 23.8846154,14.9714286 L23.8846154,9.25714286 C23.8846154,8 23.6538462,7.77142857 22.3846154,7.65714286 L21.5769231,7.65714286 L21.5769231,5.94285714 L27.1153846,5.94285714 L27.1153846,7.77142857 C28.1538462,6.17142857 29.0769231,5.6 30.4615385,5.6 C32.3076923,5.6 33.5769231,6.74285714 33.5769231,8.45714286 C33.5769231,9.71428571 32.6538462,10.6285714 31.5,10.6285714 C30.4615385,10.6285714 29.6538462,9.94285714 29.6538462,9.02857143 C29.6538462,8.11428571 30.1153846,7.65714286 31.2692308,7.31428571 C30.8076923,7.2 30.3461538,7.08571429 30.1153846,7.08571429 C29.4230769,7.08571429 28.5,7.65714286 27.9230769,8.45714286 C27.3461538,9.25714286 27.1153846,10.4 27.1153846,11.7714286 L27.1153846,15.0857143 C27.1153846,16.3428571 27.3461538,16.5714286 28.6153846,16.6857143 L30,16.6857143 L30,18.2857143 L30,18.2857143 Z"></path>
                        <path d="M50.0769231,12.1142857 C50.0769231,16.1142857 47.3076923,18.7428571 43.1538462,18.7428571 C38.7692308,18.7428571 36.1153846,16.1142857 36.1153846,12 C36.1153846,8.11428571 39,5.48571429 43.1538462,5.48571429 C47.3076923,5.48571429 50.0769231,8.11428571 50.0769231,12.1142857 L50.0769231,12.1142857 Z M39.5769231,12.1142857 C39.5769231,15.4285714 40.7307692,16.9142857 43.0384615,16.9142857 C45.3461538,16.9142857 46.5,15.3142857 46.5,12.1142857 C46.5,8.91428571 45.3461538,7.31428571 43.0384615,7.31428571 C40.7307692,7.31428571 39.5769231,8.91428571 39.5769231,12.1142857 L39.5769231,12.1142857 Z"></path>
                        <path d="M54.1153846,9.25714286 C53.6538462,8 53.4230769,7.77142857 52.5,7.77142857 L51.9230769,7.77142857 L51.9230769,6.05714286 L58.5,6.05714286 L58.5,7.77142857 L57.8076923,7.77142857 C57.1153846,7.77142857 57,7.88571429 57,8.45714286 C57,8.68571429 57,9.02857143 57.2307692,9.48571429 L59.0769231,15.5428571 L61.2692308,9.37142857 C61.3846154,9.02857143 61.5,8.68571429 61.5,8.57142857 C61.5,8 61.1538462,7.77142857 60.3461538,7.77142857 L59.8846154,7.77142857 L59.8846154,6.05714286 L66.2307692,6.05714286 L66.2307692,7.77142857 L65.4230769,7.77142857 C64.8461538,7.77142857 64.6153846,8 64.6153846,8.34285714 C64.6153846,8.57142857 64.6153846,8.91428571 64.7307692,9.14285714 L66.8076923,15.5428571 L68.7692308,9.6 C69,9.02857143 69.1153846,8.57142857 69.1153846,8.34285714 C69.1153846,7.88571429 68.7692308,7.65714286 68.3076923,7.65714286 L67.6153846,7.65714286 L67.6153846,5.94285714 L73.0384615,5.94285714 L73.0384615,7.65714286 L72.4615385,7.65714286 C71.7692308,7.65714286 71.4230769,8 70.9615385,9.37142857 L67.9615385,18.2857143 L64.8461538,18.2857143 L62.5384615,11.4285714 L60.1153846,18.2857143 L57,18.2857143 L54.1153846,9.25714286 L54.1153846,9.25714286 Z"></path>
                        <path d="M75.4615385,16.5714286 L76.2692308,16.5714286 C77.5384615,16.5714286 77.7692308,16.3428571 77.7692308,14.9714286 L77.7692308,9.25714286 C77.7692308,8 77.5384615,7.77142857 76.2692308,7.65714286 L75.4615385,7.65714286 L75.4615385,5.94285714 L81,5.94285714 L81,8.11428571 C82.6153846,6.17142857 83.7692308,5.6 85.5,5.6 C86.6538462,5.6 87.8076923,6.05714286 88.5,6.62857143 C89.1923077,7.31428571 89.4230769,8.22857143 89.4230769,10.0571429 L89.4230769,14.9714286 C89.4230769,16.2285714 89.6538462,16.4571429 90.9230769,16.5714286 L91.6153846,16.5714286 L91.6153846,18.2857143 L84.1153846,18.2857143 L84.1153846,16.5714286 L84.6923077,16.5714286 C85.9615385,16.5714286 86.1923077,16.3428571 86.1923077,14.9714286 L86.1923077,10.0571429 C86.1923077,9.02857143 86.0769231,8.57142857 85.8461538,8.22857143 C85.5,7.77142857 84.9230769,7.54285714 84.2307692,7.54285714 C83.3076923,7.54285714 82.3846154,8 81.8076923,8.8 C81.2307692,9.6 81,10.2857143 81,11.7714286 L81,14.9714286 C81,16.2285714 81.2307692,16.4571429 82.5,16.5714286 L83.0769231,16.5714286 L83.0769231,18.2857143 L75.4615385,18.2857143 L75.4615385,16.5714286 L75.4615385,16.5714286 Z"></path>
                        <path d="M102,16.3428571 L103.038462,16.3428571 C104.538462,16.3428571 104.769231,16.1142857 104.769231,14.7428571 L104.769231,4.45714286 C104.769231,2.97142857 104.538462,2.85714286 103.038462,2.85714286 L102,2.85714286 L102,0.914285714 L112.153846,0.914285714 C116.538462,0.914285714 118.730769,2.28571429 118.730769,5.25714286 C118.730769,7.42857143 117.807692,8.45714286 115.153846,9.14285714 C116.653846,9.48571429 117.346154,9.82857143 118.038462,10.4 C118.961538,11.2 119.423077,12.3428571 119.423077,13.7142857 C119.423077,15.2 118.846154,16.4571429 117.923077,17.1428571 C116.653846,18.0571429 115.038462,18.4 111.692308,18.4 L102,18.4 L102,16.3428571 L102,16.3428571 Z M111,8.22857143 C112.846154,8.22857143 113.653846,8 114.230769,7.42857143 C114.692308,6.97142857 114.923077,6.28571429 114.923077,5.48571429 C114.923077,4.57142857 114.576923,3.88571429 114.115385,3.42857143 C113.538462,2.97142857 112.730769,2.74285714 111.230769,2.74285714 L108.461538,2.74285714 L108.461538,8.22857143 L111,8.22857143 L111,8.22857143 Z M111.346154,16.3428571 C112.961538,16.3428571 114,16.1142857 114.576923,15.6571429 C115.153846,15.2 115.5,14.2857143 115.5,13.2571429 C115.5,12.2285714 115.153846,11.4285714 114.576923,10.9714286 C113.884615,10.4 112.961538,10.2857143 111.115385,10.2857143 L108.461538,10.2857143 L108.461538,16.3428571 L111.346154,16.3428571 L111.346154,16.3428571 Z"></path>
                        <path d="M136.846154,13.7142857 C136.846154,15.7714286 136.730769,16.3428571 136.5,17.0285714 C136.038462,18.1714286 135.115385,18.7428571 133.615385,18.7428571 C132,18.7428571 131.307692,18.1714286 130.730769,16.8 C129.461538,18.2857143 128.423077,18.7428571 126.461538,18.7428571 C124.153846,18.7428571 122.653846,17.3714286 122.653846,15.4285714 C122.653846,14.0571429 123.346154,12.9142857 124.615385,12.3428571 C125.538462,11.8857143 126.461538,11.5428571 128.423077,11.0857143 C130.153846,10.6285714 130.730769,10.1714286 130.730769,9.02857143 C130.730769,7.65714286 129.807692,6.97142857 127.961538,6.97142857 C126.923077,6.97142857 126.230769,7.2 125.538462,7.77142857 C126.807692,7.88571429 127.269231,8.22857143 127.269231,9.25714286 C127.269231,10.2857143 126.576923,10.8571429 125.423077,10.8571429 C124.153846,10.8571429 123.346154,10.0571429 123.346154,8.8 C123.346154,6.85714286 125.423077,5.6 128.423077,5.6 C130.153846,5.6 131.769231,5.94285714 132.461538,6.51428571 C133.5,7.31428571 133.730769,8 133.730769,10.2857143 L133.730769,15.7714286 C133.730769,16.4571429 133.961538,16.6857143 134.423077,16.6857143 C135,16.6857143 135.230769,16 135.230769,14.0571429 L135.230769,13.7142857 L136.846154,13.7142857 L136.846154,13.7142857 Z M130.615385,11.8857143 C130.038462,12.2285714 129.576923,12.4571429 129.346154,12.4571429 L127.961538,13.0285714 C126.807692,13.4857143 126.230769,14.2857143 126.230769,15.0857143 C126.230769,16 126.807692,16.5714286 127.846154,16.5714286 C128.653846,16.5714286 129.346154,16.2285714 129.807692,15.7714286 C130.384615,15.2 130.615385,14.5142857 130.615385,13.3714286 L130.615385,11.8857143 L130.615385,11.8857143 Z"></path>
                        <path d="M147.576923,16.1142857 C149.769231,16.1142857 150.807692,16.2285714 151.730769,16.8 C152.769231,17.3714286 153.346154,18.4 153.346154,19.6571429 C153.346154,21.0285714 152.538462,22.2857143 151.384615,22.8571429 C150.115385,23.5428571 148.038462,23.8857143 145.730769,23.8857143 C141.576923,23.8857143 139.153846,22.7428571 139.153846,20.9142857 C139.153846,19.7714286 139.730769,19.2 141.576923,18.6285714 C140.076923,18.1714286 139.5,17.4857143 139.5,16.3428571 C139.5,15.2 140.192308,14.4 141.807692,13.7142857 C140.423077,12.4571429 139.961538,11.5428571 139.961538,10.1714286 C139.961538,7.31428571 142.269231,5.48571429 145.846154,5.48571429 C147.576923,5.48571429 148.730769,5.82857143 150.230769,6.62857143 C151.153846,5.71428571 151.846154,5.48571429 152.884615,5.48571429 C154.615385,5.48571429 155.769231,6.51428571 155.769231,8.11428571 C155.769231,9.14285714 155.076923,9.94285714 154.038462,9.94285714 C153.115385,9.94285714 152.307692,9.25714286 152.307692,8.34285714 C152.307692,7.54285714 152.653846,7.2 153.576923,6.85714286 C153.230769,6.62857143 153,6.51428571 152.653846,6.51428571 C151.961538,6.51428571 151.5,6.85714286 150.923077,7.54285714 C151.5,8.57142857 151.615385,9.14285714 151.615385,10.0571429 C151.615385,12.9142857 149.423077,14.6285714 145.846154,14.6285714 C144.923077,14.6285714 144.346154,14.5142857 142.961538,14.1714286 C142.5,14.5142857 142.269231,14.7428571 142.269231,15.0857143 C142.269231,15.7714286 142.730769,16 144,16 L147.576923,16 L147.576923,16.1142857 Z M142.153846,19.4285714 C141.692308,19.7714286 141.461538,20.1142857 141.461538,20.5714286 C141.461538,21.8285714 142.846154,22.4 145.5,22.4 C148.384615,22.4 149.884615,21.7142857 149.884615,20.4571429 C149.884615,19.3142857 148.961538,18.8571429 145.846154,18.8571429 C143.769231,18.9714286 142.615385,19.0857143 142.153846,19.4285714 L142.153846,19.4285714 Z M143.423077,10.0571429 C143.423077,12.2285714 144.115385,13.2571429 145.730769,13.2571429 C147.346154,13.2571429 148.038462,12.3428571 148.038462,10.2857143 C148.038462,8.11428571 147.346154,7.2 145.730769,7.2 C144.230769,7.08571429 143.423077,8 143.423077,10.0571429 L143.423077,10.0571429 Z"></path>
                        <path d="M162.461538,14.9714286 C162.461538,16.2285714 162.692308,16.4571429 163.961538,16.5714286 L164.769231,16.5714286 L164.769231,18.2857143 L156.923077,18.2857143 L156.923077,16.5714286 L157.730769,16.5714286 C159.115385,16.5714286 159.230769,16.3428571 159.230769,14.9714286 L159.230769,4.11428571 C159.230769,2.85714286 159,2.62857143 157.730769,2.51428571 L156.923077,2.51428571 L156.923077,0.8 L162.461538,0.8 L162.461538,14.9714286 L162.461538,14.9714286 Z"></path>
                        <path d="M179.884615,13.9428571 C179.538462,15.8857143 179.076923,16.6857143 178.038462,17.6 C177,18.4 175.615385,18.8571429 174,18.8571429 C170.076923,18.8571429 167.538462,16.2285714 167.538462,12.2285714 C167.538462,8.22857143 170.192308,5.6 174.115385,5.6 C176.076923,5.6 177.576923,6.17142857 178.615385,7.42857143 C179.653846,8.57142857 179.884615,9.82857143 180,12.4571429 L171.115385,12.4571429 C171.230769,14.0571429 171.461538,14.8571429 171.923077,15.5428571 C172.5,16.3428571 173.307692,16.6857143 174.461538,16.6857143 C175.384615,16.6857143 176.192308,16.4571429 176.653846,16 C177.115385,15.5428571 177.346154,15.0857143 177.692308,13.9428571 L179.884615,13.9428571 L179.884615,13.9428571 Z M176.423077,10.5142857 C176.076923,8.11428571 175.5,7.2 174,7.2 C172.384615,7.2 171.576923,8.22857143 171.115385,10.5142857 L176.423077,10.5142857 L176.423077,10.5142857 Z"></path>
                    </g>
                    <circle id="Oval" fill="#000000" cx="16" cy="8" r="8"></circle>
                    <circle id="Oval" fill="#C87D4D" cx="16" cy="28" r="12"></circle>
                    <rect id="Rectangle-path" fill="#000000" transform="translate(8.000000, 8.000000) rotate(180.000000) translate(-8.000000, -8.000000) " x="0" y="0" width="16" height="16"></rect>
                    <rect id="Rectangle-path" fill="#C87D4D" transform="translate(8.000000, 28.000000) rotate(180.000000) translate(-8.000000, -28.000000) " x="0" y="16" width="16" height="24"></rect>
                    <circle id="Oval" fill="#FFFFFF" cx="16" cy="28" r="3"></circle>
                    <circle id="Oval" fill="#FFFFFF" cx="16" cy="8" r="3"></circle>
                </g>
            </g>
        </g>
    </g>
</svg>