<?xml version="1.0" encoding="UTF-8" standalone="no"?>
<svg width="253px" height="136px" viewBox="0 0 253 136" version="1.1" xmlns="http://www.w3.org/2000/svg" xmlns:xlink="http://www.w3.org/1999/xlink" xmlns:sketch="http://www.bohemiancoding.com/sketch/ns">
    <!-- Generator: Sketch 3.4.4 (17249) - http://www.bohemiancoding.com/sketch -->
    <title>bg1</title>
    <desc>Created with Sketch.</desc>
    <defs>
        <rect id="path-1" x="0" y="0" width="253" height="136"></rect>
    </defs>
    <g id="Welcome" stroke="none" stroke-width="1" fill="none" fill-rule="evenodd" sketch:type="MSPage">
        <g id="sample3-08" sketch:type="MSArtboardGroup" transform="translate(0.000000, -344.000000)">
            <g id="bg1" sketch:type="MSLayerGroup" transform="translate(0.000000, 344.000000)">
                <mask id="mask-2" sketch:name="Mask" fill="white">
                    <use xlink:href="#path-1"></use>
                </mask>
                <use id="Mask" sketch:type="MSShapeGroup" xlink:href="#path-1"></use>
                <path d="M-19.6884615,112.692308 C-18.5110308,112.692308 -17.3768769,112.867654 -16.2986846,113.175815 C-15.9651538,106.261954 -10.2697615,100.753846 -3.27307692,100.753846 C-0.251153846,100.753846 2.52379231,101.790254 4.73613846,103.513869 C4.63167692,102.856508 4.56153846,102.187208 4.56153846,101.5 C4.56153846,94.4943615 10.2405154,88.8153846 17.2461538,88.8153846 C22.0730231,88.8153846 26.2686462,91.5119846 28.4123462,95.4792846 C29.8337692,95.0301 31.3454769,94.7846154 32.9153846,94.7846154 C40.9052,94.7846154 47.4094231,101.068723 47.8004077,108.961538 L53.0615385,108.961538 C60.8909308,108.961538 67.2384615,115.309069 67.2384615,123.138462 C67.2384615,130.967854 60.8909308,137.315385 53.0615385,137.315385 L-19.6884615,137.315385 C-26.4881615,137.315385 -32,131.803546 -32,125.003846 C-32,118.204146 -26.4881615,112.692308 -19.6884615,112.692308" id="Page-1-Copy-6" fill="#4BB38A" sketch:type="MSShapeGroup" mask="url(#mask-2)"></path>
                <path d="M114.194872,113.502564 C113.930733,113.502564 113.674056,113.529426 113.412903,113.54211 C113.044303,106.867018 107.530972,101.564103 100.764103,101.564103 C96.721441,101.564103 93.1287103,103.461572 90.8059333,106.407387 C88.3294487,99.2472949 81.5319872,94.1025641 73.5294872,94.1025641 C65.5725026,94.1025641 58.8063795,99.1883487 56.2948256,106.285018 C54.1018795,104.727049 51.4276641,103.802564 48.5333333,103.802564 C41.1158179,103.802564 35.1025641,109.815818 35.1025641,117.233333 C35.1025641,117.762356 35.1413641,118.282426 35.2003103,118.795779 C33.7706795,118.277203 32.2343487,117.979487 30.625641,117.979487 C23.2081256,117.979487 17.1948718,123.992741 17.1948718,131.410256 C17.1948718,138.827772 23.2081256,144.841026 30.625641,144.841026 L114.194872,144.841026 C122.848764,144.841026 129.864103,137.825687 129.864103,129.171795 C129.864103,120.517903 122.848764,113.502564 114.194872,113.502564" id="Page-1-Copy-7" fill="#60C39C" sketch:type="MSShapeGroup" mask="url(#mask-2)"></path>
                <path d="M226.507692,135.779487 C226.243554,135.779487 225.986877,135.806349 225.725723,135.819033 C225.357123,129.143941 219.843792,123.841026 213.076923,123.841026 C209.034262,123.841026 205.441531,125.738495 203.118754,128.68431 C200.642269,121.524218 193.844808,116.379487 185.842308,116.379487 C177.885323,116.379487 171.1192,121.465272 168.607646,128.561941 C166.4147,127.003972 163.740485,126.079487 160.846154,126.079487 C153.428638,126.079487 147.415385,132.092741 147.415385,139.510256 C147.415385,140.039279 147.454185,140.559349 147.513131,141.072703 C146.0835,140.554126 144.547169,140.25641 142.938462,140.25641 C135.520946,140.25641 129.507692,146.269664 129.507692,153.687179 C129.507692,161.104695 135.520946,167.117949 142.938462,167.117949 L226.507692,167.117949 C235.161585,167.117949 242.176923,160.10261 242.176923,151.448718 C242.176923,142.794826 235.161585,135.779487 226.507692,135.779487" id="Page-1-Copy-8" fill="#60C39C" sketch:type="MSShapeGroup" mask="url(#mask-2)"></path>
                <path d="M234.781457,22.5588235 C234.474344,22.5588235 234.175907,22.5900588 233.872265,22.6048088 C233.443695,14.8428382 227.033371,8.67647059 219.165563,8.67647059 C214.465179,8.67647059 210.287927,10.8828971 207.587245,14.3083676 C204.707848,5.98242647 196.80447,0 187.5,0 C178.24845,0 170.38151,5.91388235 167.461338,14.1660735 C164.911609,12.3544265 161.802311,11.2794118 158.437086,11.2794118 C149.812775,11.2794118 142.821192,18.2717794 142.821192,26.8970588 C142.821192,27.5122206 142.866305,28.1169706 142.934841,28.7139118 C141.272616,28.1108971 139.486331,27.7647059 137.615894,27.7647059 C128.991583,27.7647059 122,34.7570735 122,43.3823529 C122,52.0076324 128.991583,59 137.615894,59 L234.781457,59 C244.843298,59 253,50.8423824 253,40.7794118 C253,30.7164412 244.843298,22.5588235 234.781457,22.5588235" id="Page-1" fill="#FFFFFF" sketch:type="MSShapeGroup" mask="url(#mask-2)"></path>
            </g>
        </g>
    </g>
</svg>