<?xml version="1.0" encoding="UTF-8" standalone="no"?>
<svg width="149px" height="28px" viewBox="0 0 149 28" version="1.1" xmlns="http://www.w3.org/2000/svg" xmlns:xlink="http://www.w3.org/1999/xlink" xmlns:sketch="http://www.bohemiancoding.com/sketch/ns">
    <!-- Generator: Sketch 3.4.4 (17249) - http://www.bohemiancoding.com/sketch -->
    <title>logo</title>
    <desc>Created with Sketch.</desc>
    <defs></defs>
    <g id="Welcome" stroke="none" stroke-width="1" fill="none" fill-rule="evenodd" sketch:type="MSPage">
        <g id="sample3-08" sketch:type="MSArtboardGroup" transform="translate(-39.000000, -30.000000)">
            <g id="logo" sketch:type="MSLayerGroup" transform="translate(39.000000, 30.000000)">
                <path d="M46.84,9.66 C46.84,9.1 46.84,8.72 46.6,8.4 C46.36,8.08 45.94,7.94 45.26,7.94 C44.58,7.94 44.16,8.08 43.92,8.4 C43.68,8.72 43.68,9.1 43.68,9.66 L43.68,19.38 C43.68,19.94 43.68,20.32 43.92,20.64 C44.16,20.96 44.58,21.1 45.26,21.1 C45.94,21.1 46.36,20.96 46.6,20.64 C46.84,20.32 46.84,19.94 46.84,19.38 L46.84,9.66 Z M59.62,15.64 L56.72,9.7 C56.16,8.56 55.7,7.92 54.44,7.92 C53.8,7.92 53.38,8.08 53.12,8.32 C52.82,8.6 52.7,8.98 52.62,9.8 L51.7,19.22 C51.66,19.56 51.64,19.84 51.64,20 C51.64,20.76 52.1,21.1 53.1,21.1 C54.26,21.1 54.68,20.64 54.74,19.84 L55.28,12.78 L58,18.88 C58.3,19.54 58.6,20.04 59.52,20.04 C60.44,20.04 60.74,19.54 61.04,18.88 L63.78,12.8 L64.3,19.84 C64.36,20.68 64.82,21.1 65.94,21.1 C67,21.1 67.46,20.72 67.46,20.02 C67.46,19.82 67.42,19.52 67.4,19.28 L66.52,9.8 C66.46,9.08 66.38,8.7 66.12,8.4 C65.8,8.02 65.34,7.92 64.84,7.92 C63.62,7.92 63.14,8.52 62.56,9.7 L59.62,15.64 Z M79.74,15.64 L76.84,9.7 C76.28,8.56 75.82,7.92 74.56,7.92 C73.92,7.92 73.5,8.08 73.24,8.32 C72.94,8.6 72.82,8.98 72.74,9.8 L71.82,19.22 C71.78,19.56 71.76,19.84 71.76,20 C71.76,20.76 72.22,21.1 73.22,21.1 C74.38,21.1 74.8,20.64 74.86,19.84 L75.4,12.78 L78.12,18.88 C78.42,19.54 78.72,20.04 79.64,20.04 C80.56,20.04 80.86,19.54 81.16,18.88 L83.9,12.8 L84.42,19.84 C84.48,20.68 84.94,21.1 86.06,21.1 C87.12,21.1 87.58,20.72 87.58,20.02 C87.58,19.82 87.54,19.52 87.52,19.28 L86.64,9.8 C86.58,9.08 86.5,8.7 86.24,8.4 C85.92,8.02 85.46,7.92 84.96,7.92 C83.74,7.92 83.26,8.52 82.68,9.7 L79.74,15.64 Z M95.6,9.66 C95.6,9.1 95.6,8.72 95.36,8.4 C95.12,8.08 94.7,7.94 94.02,7.94 C93.34,7.94 92.92,8.08 92.68,8.4 C92.44,8.72 92.44,9.1 92.44,9.66 L92.44,19.38 C92.44,19.94 92.44,20.32 92.68,20.64 C92.92,20.96 93.34,21.1 94.02,21.1 C94.7,21.1 95.12,20.96 95.36,20.64 C95.6,20.32 95.6,19.94 95.6,19.38 L95.6,9.66 Z M106.18,10.84 L100.6,18.56 C100.26,19.02 100.08,19.42 100.08,19.86 C100.08,20.6 100.58,21 101.54,21 L109.08,21 C109.62,21 109.98,21 110.3,20.78 C110.56,20.6 110.78,20.28 110.78,19.62 C110.78,18.96 110.56,18.64 110.3,18.46 C109.98,18.24 109.62,18.24 109.08,18.24 L104.24,18.24 L109.88,10.52 C110.2,10.08 110.4,9.64 110.4,9.2 C110.4,8.44 109.86,8.08 108.94,8.08 L102.12,8.08 C101.58,8.08 101.22,8.08 100.9,8.3 C100.64,8.48 100.42,8.8 100.42,9.46 C100.42,10.12 100.64,10.44 100.9,10.62 C101.22,10.84 101.58,10.84 102.12,10.84 L106.18,10.84 Z M118.2,9.66 C118.2,9.1 118.2,8.72 117.96,8.4 C117.72,8.08 117.3,7.94 116.62,7.94 C115.94,7.94 115.52,8.08 115.28,8.4 C115.04,8.72 115.04,9.1 115.04,9.66 L115.04,19.38 C115.04,19.94 115.04,20.32 115.28,20.64 C115.52,20.96 115.94,21.1 116.62,21.1 C117.3,21.1 117.72,20.96 117.96,20.64 C118.2,20.32 118.2,19.94 118.2,19.38 L118.2,9.66 Z M126.62,12.96 L132.14,20.02 C132.68,20.72 133.14,21.16 134.1,21.16 C135.02,21.16 135.56,20.74 135.56,19.9 L135.56,9.66 C135.56,9.1 135.56,8.74 135.32,8.42 C135.08,8.12 134.7,7.94 134.02,7.94 C133.36,7.94 132.98,8.12 132.74,8.42 C132.5,8.74 132.5,9.1 132.5,9.66 L132.5,15.86 L127.34,9.1 C126.82,8.42 126.38,7.92 125.22,7.92 C124.1,7.92 123.56,8.4 123.56,9.16 L123.56,19.38 C123.56,19.92 123.56,20.3 123.8,20.62 C124.04,20.92 124.42,21.1 125.1,21.1 C125.76,21.1 126.14,20.92 126.38,20.62 C126.62,20.3 126.62,19.94 126.62,19.38 L126.62,12.96 Z M143.94,10.76 L146.88,10.76 C147.42,10.76 147.8,10.76 148.1,10.56 C148.34,10.4 148.58,10.06 148.58,9.42 C148.58,8.78 148.34,8.44 148.1,8.28 C147.8,8.08 147.42,8.08 146.88,8.08 L142.4,8.08 C141.32,8.08 140.92,8.48 140.92,9.56 L140.92,19.52 C140.92,20.58 141.32,21 142.4,21 L147.28,21 C147.82,21 148.2,21 148.5,20.8 C148.74,20.64 148.98,20.3 148.98,19.66 C148.98,19.02 148.74,18.68 148.5,18.52 C148.2,18.32 147.82,18.32 147.28,18.32 L143.94,18.32 L143.94,15.54 L146.12,15.54 C146.66,15.54 147.04,15.54 147.34,15.34 C147.58,15.18 147.82,14.84 147.82,14.2 C147.82,13.56 147.58,13.22 147.34,13.06 C147.04,12.86 146.66,12.86 146.12,12.86 L143.94,12.86 L143.94,10.76 Z" id="IMMIZINE" fill="#464951" sketch:type="MSShapeGroup"></path>
                <path d="M21.9230769,0 L8.07692308,0 C3.61615385,0 0,3.61615385 0,8.07692308 L0,19.6153846 C0,23.4819231 2.71730769,26.7092308 6.34615385,27.5019231 L6.34615385,15 C6.34615385,14.0446154 7.12038462,13.2692308 8.07692308,13.2692308 C9.03230769,13.2692308 9.80769231,14.0446154 9.80769231,15 L9.80769231,27.6923077 L13.2692308,27.6923077 L13.2692308,8.07692308 C13.2692308,7.12153846 14.0434615,6.34615385 15,6.34615385 C15.9553846,6.34615385 16.7307692,7.12153846 16.7307692,8.07692308 L16.7307692,27.6923077 L20.1923077,27.6923077 L20.1923077,15 C20.1923077,14.0446154 20.9665385,13.2692308 21.9230769,13.2692308 C22.8784615,13.2692308 23.6538462,14.0446154 23.6538462,15 L23.6538462,27.5019231 C27.2815385,26.7092308 30,23.4819231 30,19.6153846 L30,8.07692308 C30,3.61615385 26.3838462,0 21.9230769,0" id="Page-1" fill="#3485B1" sketch:type="MSShapeGroup"></path>
            </g>
        </g>
    </g>
</svg>