<?xml version="1.0" encoding="utf-8"?>
<!-- Generator: Adobe Illustrator 19.1.0, SVG Export Plug-In . SVG Version: 6.00 Build 0)  -->
<svg version="1.1" id="レイヤー_1" xmlns="http://www.w3.org/2000/svg" xmlns:xlink="http://www.w3.org/1999/xlink" x="0px"
	 y="0px" viewBox="-963 971 80 60" style="enable-background:new -963 971 80 60;" xml:space="preserve">
<style type="text/css">
	.st0{fill:#52A989;}
	.st1{fill:none;stroke:#52A989;stroke-width:1.6513;stroke-linecap:round;stroke-linejoin:round;stroke-miterlimit:10;}
	.st2{fill:#FFFFFF;}
</style>
<g>
	<g>
		<path class="st0" d="M-925.4,1029.7c-11-5.2-23.7-5.5-34.7-0.8c0-14.6,0-29.3,0-43.9c11-4.7,23.7-4.5,34.7,0.8
			C-925.4,1000.5-925.4,1015.1-925.4,1029.7z"/>
		<path class="st1" d="M-925.4,1029.7c-11-5.2-23.7-5.5-34.7-0.8c0-14.6,0-29.3,0-43.9c11-4.7,23.7-4.5,34.7,0.8
			C-925.4,1000.5-925.4,1015.1-925.4,1029.7z"/>
	</g>
	<g>
		<path class="st2" d="M-924.1,1029.7c-11-7.2-23.7-9.5-34.7-6.8c0-14.6,0-29.3,0-43.9c11-2.7,23.7-0.5,34.7,6.8
			C-924.1,1000.5-924.1,1015.1-924.1,1029.7z"/>
		<path class="st1" d="M-924.1,1029.7c-11-7.2-23.7-9.5-34.7-6.8c0-14.6,0-29.3,0-43.9c11-2.7,23.7-0.5,34.7,6.8
			C-924.1,1000.5-924.1,1015.1-924.1,1029.7z"/>
	</g>
	<g>
		<path class="st0" d="M-924.1,1029.7c11.9-5.6,25.5-5.9,37.3-0.8c0-14.6,0-29.3,0-43.9c-11.9-5.1-25.5-4.8-37.3,0.8
			C-924.1,1000.5-924.1,1015.1-924.1,1029.7z"/>
		<path class="st1" d="M-924.1,1029.7c11.9-5.6,25.5-5.9,37.3-0.8c0-14.6,0-29.3,0-43.9c-11.9-5.1-25.5-4.8-37.3,0.8
			C-924.1,1000.5-924.1,1015.1-924.1,1029.7z"/>
	</g>
	<g>
		<path class="st2" d="M-924.1,1029.7c11-7.2,23.7-9.5,34.7-6.8c0-14.6,0-29.3,0-43.9c-11-2.7-23.7-0.5-34.7,6.8
			C-924.1,1000.5-924.1,1015.1-924.1,1029.7z"/>
		<path class="st1" d="M-924.1,1029.7c11-7.2,23.7-9.5,34.7-6.8c0-14.6,0-29.3,0-43.9c-11-2.7-23.7-0.5-34.7,6.8
			C-924.1,1000.5-924.1,1015.1-924.1,1029.7z"/>
	</g>
	<g>
		<path class="st2" d="M-924.1,1029.7c-9.4-8.9-20.1-13.6-29.5-14c0-14.6,0-29.3,0-43.9c9.4,0.4,20.1,5.1,29.5,14
			C-924.1,1000.5-924.1,1015.1-924.1,1029.7z"/>
		<path class="st1" d="M-924.1,1029.7c-9.4-8.9-20.1-13.6-29.5-14c0-14.6,0-29.3,0-43.9c9.4,0.4,20.1,5.1,29.5,14
			C-924.1,1000.5-924.1,1015.1-924.1,1029.7z"/>
	</g>
</g>
</svg>
