<?xml version="1.0" encoding="utf-8"?>
<!-- Generator: Adobe Illustrator 18.1.1, SVG Export Plug-In . SVG Version: 6.00 Build 0)  -->
<svg version="1.1" id="レイヤー_1" xmlns="http://www.w3.org/2000/svg" xmlns:xlink="http://www.w3.org/1999/xlink" x="0px"
	 y="0px" viewBox="0 0 63 63" enable-background="new 0 0 63 63" xml:space="preserve">
<g id="goto-pagetop.svg">
	<g>
		<circle opacity="0.5" fill="#FFFFFF" cx="31.5" cy="31.5" r="28.5"/>
		<g opacity="0.5">
			<path d="M31.5,3C47.2,3,60,15.8,60,31.5S47.2,60,31.5,60S3,47.2,3,31.5S15.8,3,31.5,3 M31.5,0C14.1,0,0,14.1,0,31.5
				C0,48.9,14.1,63,31.5,63S63,48.9,63,31.5C63,14.1,48.9,0,31.5,0L31.5,0z"/>
		</g>
	</g>
	<g opacity="0.5">
		
			<line fill="none" stroke="#000000" stroke-width="8" stroke-linecap="round" stroke-miterlimit="10" x1="30.7" y1="53" x2="30.7" y2="29.9"/>
		<polyline fill="none" stroke="#000000" stroke-width="8" stroke-linecap="round" stroke-miterlimit="10" points="14.7,44.2 
			30.7,28.2 46.7,44.2 		"/>
	</g>
	
		<line fill="none" stroke="#AAAAAA" stroke-width="8" stroke-linecap="round" stroke-miterlimit="10" x1="14.4" y1="16.9" x2="48.4" y2="16.9"/>
	<circle fill="#FF0000" cx="47.7" cy="16.9" r="2.5"/>
</g>
<g>
</g>
<g>
</g>
<g>
</g>
<g>
</g>
<g>
</g>
<g>
</g>
<g>
</g>
<g>
</g>
<g>
</g>
<g>
</g>
<g>
</g>
<g>
</g>
<g>
</g>
<g>
</g>
<g>
</g>
</svg>
