<?xml version="1.0" encoding="utf-8"?>
<!-- Generator: Adobe Illustrator 18.1.1, SVG Export Plug-In . SVG Version: 6.00 Build 0)  -->
<svg version="1.1" id="レイヤー_1" xmlns="http://www.w3.org/2000/svg" xmlns:xlink="http://www.w3.org/1999/xlink" x="0px"
	 y="0px" viewBox="0 0 353.1 148.3" enable-background="new 0 0 353.1 148.3" xml:space="preserve">
<g id="logo.svg">
	<circle fill="#FF4400" fill-opacity="0.6" cx="58.4" cy="58.4" r="58.4"/>
	<g>
		<path fill="#FFFFFF" d="M64.2,46c0.6-1,0.8-1.3,2.3-5c0.8-2,1.6-3.7,5-3.7c0.2,0,5.7,0,5.7,3.4c0,1.2-0.4,2-2,5.4h5.5
			c1.7,0,4.7,0.3,4.7,4.3c0,3.3-1.1,5-4.7,5H63.9v4.2h14.7c1.6,0,4.7,0.2,4.7,4.2c0,3.1-1.1,4.8-4.7,4.8H63.9v4.2h18
			c1.8,0,4.7,0.4,4.7,4.3c0,3.3-1,5-4.7,5h-18v6.7c0,1.6-0.1,4.8-4.8,4.8c-4.3,0-5.6-1.5-5.6-4.8v-6.7h-18c-1.8,0-4.7-0.4-4.7-4.3
			c0-3.3,1.1-5,4.7-5h18v-4.2H38.9c-1.2,0-4.7,0-4.7-4.2c0-3.2,1.2-4.7,4.7-4.7h14.7v-4.2H36.8c-1.3,0-4.7-0.1-4.7-4.3
			c0-3.4,1.2-4.9,4.7-4.9h5.6c-0.2-0.6-0.9-2.4-1.1-2.9c-0.2-0.6-0.6-1.5-0.6-2.3c0-2.8,3.9-3.7,6.1-3.7c2.9,0,3.9,1.5,4.9,3.7
			c1.4,2.9,1.7,3.8,2.1,5.1H64.2z"/>
		<path fill="#FFFFFF" d="M119.8,53l17.8-0.8c2.4-0.1,4.7,0.8,4.7,4.9c0,4-2,4.6-4,4.6l-18.6,0.8v3.7l20.3-0.8
			c2.1-0.1,4.9,0.1,5,4.6c0,4.2-2,4.7-4,4.8l-21.3,1v6.1c0,1.3,0.9,1.4,1.6,1.4h11c1.6,0,1.6-0.4,2.1-3.9c0.1-1.1,0.5-3.7,4.5-3.7
			c1.9,0,3.5,0.5,4.4,1.3c1.2,0.9,1.3,2.3,1.3,3.9c0,1.3-0.4,6.3-1.3,8.2c-1.6,3.6-5.4,3.6-7.6,3.6h-12.9c-7.4,0-9.1,0-10.8-1.1
			c-2-1.3-2.5-3.6-2.5-6.1v-9.2L94,77c-1.3,0.1-4.7,0.2-4.7-4.7c0-3.7,1.4-4.8,4-4.9l16.4-0.7V63l-13.2,0.6
			c-1.4,0.1-4.7,0.2-4.7-4.6c0-3.8,1.7-4.7,4-4.8l13.9-0.6v-3.5c-3,0.2-9.2,0.5-12.8,0.5c-1.9,0-5.4,0-5.4-5c0-4.4,2.8-4.6,6.2-4.6
			c10.2-0.3,20.5-0.5,30.7-2c1.5-0.2,8.4-1.5,9.8-1.5c1.8,0,3,0.6,3.7,2.2c0.5,1.2,0.5,2.3,0.5,3c0,2.2-0.7,3.9-3.6,4.6
			c-3.9,0.9-8.7,1.3-19,2.2V53z"/>
		<path fill="#FFFFFF" d="M191.8,42.6c7.3,0,7.3,4.7,7.3,6.7c0,2.5-1.4,12.5-5.4,19.9c-5.6,10.3-14,15.6-22,18.8
			c-0.5,0.2-6,2.5-9.5,2.5c-4.3,0-5.5-4.4-5.5-6.4c0-3.5,2.7-4.3,5.6-5.1C177,75,183.5,67.8,186,56.9c0.4-1.6,0.4-2.2,0.4-2.3
			c0-0.6-0.4-0.7-0.9-0.7h-28.7c-1.2,0-5.7,0-5.7-5.6c0-3.9,2.2-5.7,5.7-5.7H191.8z"/>
		<path fill="#FFFFFF" d="M239,78.6c1.1,0,5.3,0.1,5.3,5.1c0,3.7-2.2,5.1-5.3,5.1h-32.9c-1.1,0-5.4,0-5.4-5.1c0-3.7,2.2-5.1,5.4-5.1
			h11V61.9h-8.6c-1.1,0-5.3,0-5.3-5.1c0-3.6,2.1-5.1,5.3-5.1h28c1.1,0,5.3,0.1,5.3,5.1c0,3.7-2.2,5.1-5.3,5.1h-8.7v16.7H239z"/>
		<path fill="#FFFFFF" d="M272.5,57.4c0,10.9-0.2,19.1-5,27.1c-1.9,3.2-4.4,6.2-7.4,6.2c-2.7,0-6.5-2.2-6.5-6c0-1.2,0.2-2.2,1.9-4.3
			c5.3-6.4,5.6-9.6,5.6-23.4V45.9c0-3.1,1.6-5.1,5.7-5.1c3.5,0,5.7,1.3,5.7,5.1V57.4z M277,45.3c0-3,1.5-5.1,5.6-5.1
			c3.3,0,5.7,1.2,5.7,5.1v30.4c0,0.4,0,0.7,0.5,0.7c1,0,5.8-3,8.5-11.4c0.8-2.3,1.5-4.7,4.9-4.7c1.2,0,6.3,0.7,6.3,5
			c0,2.9-2.2,8.4-5,12.5c-6.3,9.2-16,12.6-20.6,12.6c-5.9,0-5.9-5-5.9-6.3V45.3z"/>
		<path fill="#FFFFFF" d="M326.9,85.9c0,1.9-0.1,5.8-6,5.8c-5.7,0-6-3.7-6-5.8V44.6c0-1.8,0.1-5.9,6-5.9c5.7,0,6,3.6,6,5.9v8.2
			c9.7,3,18.4,7.1,21.2,8.6c3.6,1.8,5,3.3,5,6.1c0,2.8-2,6.9-6,6.9c-1.8,0-2-0.2-7.9-3.6c-1.7-1-7.1-4-12.3-6V85.9z"/>
		<path fill="#FFFFFF" d="M39.3,143.8c-2.6-1.2-5.3-2.4-7.9-4.4l6.7-10.9c2,1.4,4.4,2.3,6.9,2.3c1.7-0.5,1.7-2.6,1.7-2.6
			c-1.7-2-3.7-3.5-6.1-4.9c-2.6-1.2-4.6-2.9-6.1-5.2c-1.3-1.6-2-3.2-1.9-6.2c0.1-5.8,3.7-8.8,6.8-11.7c3.7-2.6,9.2-3.6,14.4-3
			c2.6,0.1,5.3,1.2,7.9,2.2c2.5,1,5.2,2.9,7.9,4.4l-2.7,12.8c-4-2-5.9-2.7-9.5-2.4c0,0-2.7,1.2-2.7,4.9c0.4,2.9,2.9,3.7,5.5,4.9
			c2.7,1.2,7.3,5.5,6.9,10.4c-0.3,3.1-1.7,6.1-3.7,8.4c-2,2-4.6,3.1-7.2,3.5c-2.6,0.3-5.4,0.5-8.4,0.3
			C44.8,146.1,41.9,145.2,39.3,143.8z M40.9,111.2c1.3-1.1,1.4-3.3,0.3-4.6c-1-1.2-3-1.3-4.3-0.3c-1.2,1.2-1.2,3.2-0.2,4.5
			C37.8,112.2,39.7,112.3,40.9,111.2z M50.5,117.6c5.9-1,5-8.5,2.2-8.2c-3.3,0.4,0.2,3.6-3.3,4.6c-3.4,1.2-2-3.9-4.6-2.2
			C42.1,112.9,44.9,119.3,50.5,117.6z M56.9,106.5c1.2-1.1,1.4-3.1,0.3-4.3c-1-1.2-3.1-1.4-4.4-0.3c-1.1,1.2-1.3,3.1-0.2,4.3
			C53.8,107.4,55.7,107.6,56.9,106.5z"/>
		<path fill="#FFFFFF" d="M75.2,141.7l-1.6-50.5L90,91.9v20.5c2.5-1.8,4.4-2.9,6.6-3.7c2.2-0.6,4.7-0.9,7.1-0.9
			c3.9,0.3,7.1,2,10.1,5.2c2.7,3.2,4.4,6.9,5.2,10.9c0.8,4,1.2,8.4,0.8,12.7l-1.4,11.2l-12.9,0.5c0.9-4.3,1.4-8.4,1.4-12.6
			c0.3-4.1-0.6-8.1-3.3-9.9c-4.2-2.6-12.1,1-13.1,4.9l0.2,16.6l-15.6,1V141.7z M81.6,115.3c1.6-0.1,2.9-1.8,2.7-3.5
			c-0.2-1.5-1.8-2.7-3.5-2.6c-1.6,0.3-2.8,2-2.6,3.5C78.5,114.4,80.1,115.6,81.6,115.3z M86.5,125.5c5.4,1.6,10-3.3,7.5-5.2
			c-2.8-2.2-2.4,2.9-5.7,1.8c-3.5-0.8-0.7-4.4-3.8-4.4C81.4,117.1,80.4,123.5,86.5,125.5z M99.4,120.4c1.6-0.2,2.9-1.8,2.7-3.4
			c-0.2-1.6-1.8-2.9-3.5-2.7c-1.6,0.3-2.7,1.8-2.5,3.5C96.3,119.5,97.7,120.6,99.4,120.4z"/>
		<path fill="#FFFFFF" d="M133.9,145.1c-2.3-1.2-4.6-2.9-6.3-5.2c-1.3-2-2.3-4.3-2.8-6.9c-0.5-2.6-0.7-5.2-0.5-8
			c0.3-2.6,1-5.2,2.3-7.8c1-2.6,2.5-4.6,4.4-6.6c2.2-2,4.5-3.7,7-4.6c2.6-0.9,5.4-1.2,8.2-1.2c2.8,0.3,5.3,1.2,7.6,2.3
			c2.2,1.4,4.6,2.5,7,5.1c1.8,2.6,2.5,4.2,3.5,7.1c1,2.9,1.4,7.4,1.1,10.9c-0.3,4.9-2.2,8.9-5.6,12.1c-2.6,2.3-5.3,3.7-8.4,4.6
			c-3.3,0.9-6.6,0.9-10.1,0.5C138.8,147.1,136.2,146.3,133.9,145.1z M134.3,123.3c1.6,0.1,3.1-1.1,3.2-2.8c0.1-1.6-1.2-3.1-2.8-3.2
			c-1.7-0.1-3.1,1.2-3.2,2.8C131.4,121.8,132.6,123.1,134.3,123.3z M148.5,126.3c0,0-0.3-2.9-1.2-3.8c-1.5-1.8-3.7-1.6-3.7-1.6
			c-2,0.1-3.2,2.3-3.2,2.3c-0.9,1.4-1.4,3.1-1.2,5.2c-0.1,2.2,1.3,5.2,2.1,5c0,0,3.2,2.2,5.4-0.4C148.3,131.3,148.8,129,148.5,126.3
			z M155,124.6c1.6,0.1,3.1-1.2,3.2-2.9c0.1-1.6-1.2-3.1-2.8-3.2c-1.7-0.1-3.1,1.2-3.2,2.8C152.1,123,153.3,124.4,155,124.6z"/>
		<path fill="#FFFFFF" d="M196.5,131.3l-8.4,13.5h-9.2l-8.8-32.6l10.7-1.7l3.8,16.7l7.9-13.9h7.3l5.6,14.4l8.4-17.8l10.7,6
			c-3,6.1-9.7,23-12.6,29.4c-0.6,1-6,0.2-9.3,0.3L196.5,131.3z M186.8,118.2c1.5-0.5,2.4-2.4,1.8-4.1c-0.5-1.4-2.4-2.2-3.9-1.8
			c-1.5,0.6-2.3,2.6-1.8,4.1C183.6,117.9,185.3,118.8,186.8,118.2z M195.7,126.6c5.5,0.7,8-6.3,4.6-7.1c-3.5-0.8-1,3.5-4.4,3.3
			c-4.1,0-1.2-4.5-4.3-3.8C188.7,118.7,188.8,126.7,195.7,126.6z M207.8,118.2c1.5-0.5,2.4-2.4,1.8-4.1c-0.5-1.4-2.4-2.2-3.9-1.8
			c-1.5,0.6-2.3,2.6-1.8,4.1C204.5,117.9,206.3,118.8,207.8,118.2z"/>
	</g>
</g>
<g>
</g>
<g>
</g>
<g>
</g>
<g>
</g>
<g>
</g>
<g>
</g>
<g>
</g>
<g>
</g>
<g>
</g>
<g>
</g>
<g>
</g>
<g>
</g>
<g>
</g>
<g>
</g>
<g>
</g>
</svg>
