<?xml version="1.0" encoding="utf-8"?>
<!-- Generator: Adobe Illustrator 18.1.1, SVG Export Plug-In . SVG Version: 6.00 Build 0)  -->
<svg version="1.1" id="レイヤー_1" xmlns="http://www.w3.org/2000/svg" xmlns:xlink="http://www.w3.org/1999/xlink" x="0px"
	 y="0px" viewBox="0 0 128.8 181.5" enable-background="new 0 0 128.8 181.5" xml:space="preserve">
<g id="serifu.svg">
	<path fill="#FFFFFF" stroke="#000000" stroke-miterlimit="10" d="M126.8,110.2c0,0-12.6-6.2-19.6-13.2c-6.6-6.6-7.4-93.6-60.8-96.4
		C12.8-1.1,2.8,26.3,0.8,75.4s5.6,103.5,40.6,105.5s51.9-58.3,67.8-66.8C115.5,110.7,126.8,110.2,126.8,110.2z"/>
	<g>
		<path d="M57.8,27.4c-2.3,0.6-3.8,1.1-4.7,1.5c-0.2,0.1-0.4,0.2-0.6,0.4c-0.1,0.1-0.3,0.2-0.5,0.2c-0.3,0-0.7-0.2-1.2-0.8
			c-0.3-0.3-0.6-0.7-0.6-1.2c0-0.3,0.1-0.5,0.2-0.5c0.1,0,0.1,0,0.3,0.2c0.6,0.6,0.7,0.6,1.2,0.6c0.2,0,1.1-0.1,2.7-0.5
			c2-0.5,3.7-0.9,4.9-1.3c0.4-0.1,0.7-0.2,0.9-0.3c0.2-0.1,0.3-0.1,0.6-0.1c0.4,0,0.9,0,1.5,0.3c0.3,0.1,0.5,0.3,0.5,0.6
			c0,0.3-0.1,0.6-0.6,0.6c-0.3,0-0.7,0-1.6,0.1c-1.5,0.1-2.7,0.6-3.7,1.7c-0.8,0.9-1.2,1.9-1.2,3.1c0,1,0.4,1.9,1.2,2.4
			c0.8,0.5,1.6,0.8,2.6,0.8c0.5,0,0.9,0,1.2,0.2c0.4,0.2,0.6,0.4,0.6,0.8c0,0.4-0.3,0.8-1,0.8c-1,0-2.2-0.3-3.1-0.8
			c-1.1-0.5-2.4-1.8-2.4-3.7c0-1,0.2-1.9,0.6-2.7C56,29,56.8,28.2,57.8,27.4L57.8,27.4z"/>
		<path d="M63,48.2c0.3,0.1,0.6,0.3,0.8,0.5c0.1,0.1,0.2,0.3,0.2,0.5c0,0.2,0,0.3-0.1,0.5c-0.2,0.3-0.5,0.4-0.8,0.4
			c-0.4,0-0.6-0.1-1.2-0.4c-1.8-0.9-3.5-2.3-5.7-4.3c-0.4-0.4-0.6-0.5-0.8-0.5c-0.2,0-0.4,0.1-0.8,0.4c-0.3,0.3-1.3,1.2-1.9,2
			c-0.2,0.3-0.4,0.6-0.5,0.8s-0.3,0.3-0.5,0.3c-0.3,0-0.8-0.3-1.2-0.7c-0.4-0.5-0.6-0.8-0.6-1.1c0-0.2,0.1-0.4,0.2-0.4
			c0.1,0,0.1,0,0.2,0.1c0.4,0.4,0.6,0.4,0.8,0.4c0.1,0,0.3,0,0.4-0.1c0.1-0.1,0.4-0.3,0.7-0.5c0.6-0.4,1.6-1.2,2.2-1.6
			c0.6-0.4,0.8-0.4,1.2-0.4c0.3,0,0.6,0.1,0.9,0.3c0.3,0.2,0.7,0.5,1.2,0.8c0.7,0.5,1.2,0.8,2,1.3C60.4,47.1,62,47.8,63,48.2z"/>
		<path d="M53.9,66.3c-1-1.3-1.6-2.1-2.1-2.9c-0.9-1.5-1.2-2.4-1.2-3.7c0-2,1.4-3.4,3.3-3.4c1.3,0,2.4,0.6,3.1,1.9
			c0.7-1.3,1.8-1.9,3.1-1.9c1.9,0,3.3,1.4,3.3,3.4c0,1.4-0.3,2.2-1.2,3.7c-0.5,0.8-1.3,1.9-2.1,2.9c-0.9,1.1-1.7,2-3.1,3.5
			C55.5,68.2,55,67.6,53.9,66.3z M59.6,66c0.8-1,1.6-2.1,2.1-2.9c0.8-1.3,1.2-2.3,1.2-3.4c0-1.7-1.2-2.9-2.7-2.9
			c-1.2,0-2.2,0.7-2.8,1.8c-0.1,0.3-0.2,0.4-0.4,0.4c-0.1,0-0.2-0.1-0.4-0.4c-0.5-1.1-1.5-1.8-2.8-1.8c-1.6,0-2.7,1.2-2.7,2.9
			c0,1.1,0.3,2,1.2,3.4c0.5,0.8,1.2,1.8,2.1,2.9c0.7,0.8,1.4,1.7,2.6,3C58.2,67.6,58.9,66.8,59.6,66z"/>
		<path d="M38.9,29.3c0.2-0.1,0.8-0.4,1.1-0.5c0.1-0.1,0.4-0.1,0.5-0.1c0.3,0,0.8,0.1,1.1,0.2c0.6,0.2,0.8,0.4,0.8,0.7
			c0,0.5-0.4,0.7-0.9,0.7c-0.5,0-1.3,0-1.6,0.1c-1,0.1-1.8,0.3-2.5,0.9c-0.9,0.7-1.5,1.4-1.5,2.4c0,0.8,0.5,1.5,1.3,1.8
			c0.9,0.4,1.5,0.5,2.3,0.6c0.3,0,0.7,0.1,1,0.3c0.2,0.2,0.4,0.3,0.4,0.7c0,0.5-0.4,0.8-1.1,0.8c-1.4,0-2.6-0.4-3.4-1.2
			c-0.8-0.7-1.2-1.5-1.2-2.5c0-1.2,0.6-2.3,1.9-3.3c-1.8,0.6-3.3,1.3-4.7,1.9c-0.3,0.1-0.7,0.3-0.9,0.3c-0.2,0-0.5-0.1-0.8-0.4
			c-0.2-0.1-0.3-0.3-0.3-0.4c0-0.2,0-0.3,0.2-0.5c0.1-0.1,0.2-0.1,0.2-0.1c0.1,0,0.2,0,0.4,0c0.4,0,0.7-0.1,1-0.3
			c0.5-0.3,0.7-0.4,1.6-1.2c1.4-1.3,2.7-2.8,3.6-4.1c0.1-0.2,0.2-0.3,0.2-0.4s0-0.1-0.1-0.1c0,0-0.1,0-0.4,0.1
			c-0.7,0.2-1.5,0.6-2.4,1c-0.3,0.3-0.4,0.4-0.6,0.4c-0.2,0-0.3,0-0.5-0.1c-0.2-0.1-0.4-0.4-0.7-0.7c-0.3-0.4-0.4-0.6-0.4-1
			c0-0.2,0.2-0.6,0.3-0.6c0.1,0,0.1,0,0.2,0.2s0.2,0.4,0.4,0.6c0.2,0.2,0.4,0.2,0.6,0.2c0.1,0,0.3,0,0.5-0.1
			c0.9-0.2,1.7-0.4,2.4-0.7c0.2-0.1,0.3-0.2,0.5-0.3c0.1-0.1,0.3-0.2,0.4-0.2c0.2,0,0.5,0.1,0.7,0.2c0.4,0.2,0.7,0.5,0.9,0.6
			c0.2,0.3,0.3,0.4,0.3,0.5c0,0.2-0.1,0.3-0.3,0.4c-0.3,0.1-0.4,0.2-0.5,0.3s-0.3,0.2-0.7,0.6c-1.4,1.3-3.1,2.9-4.5,4
			C35.5,30.4,36.9,29.9,38.9,29.3z"/>
		<path d="M39.6,43.6c1,0,1.7,0.2,2.4,0.8c0.8,0.6,1.1,1.4,1.1,2.5c0,1.2-0.7,2.2-1.6,2.7c-0.8,0.5-1.5,0.8-2.3,0.9
			c-0.9,0.2-2.2,0.4-3,0.4c-0.2,0-0.3-0.1-0.3-0.2c0-0.1,0.1-0.1,0.3-0.2c1-0.2,2.3-0.5,3.3-1c1.3-0.7,2.3-1.9,2.3-3.1
			c0-0.8-0.2-1.2-0.6-1.6c-0.4-0.4-0.9-0.6-1.7-0.6c-1,0-2.2,0.7-3.6,1.8c-0.7,0.5-0.8,0.7-0.9,0.9c-0.2,0.3-0.4,0.3-0.6,0.3
			c-0.4,0-0.9-0.4-1.3-0.8c-0.2-0.3-0.4-0.5-0.4-0.8c0-0.2,0-0.4,0.2-0.4c0,0,0.1,0,0.2,0.1c0.3,0.2,0.4,0.4,0.7,0.4
			c0.1,0,0.2,0,0.4-0.1c0.1,0,0.3-0.1,0.7-0.3c1-0.5,1.7-0.8,2.1-1C37.9,43.9,38.8,43.6,39.6,43.6z"/>
		<path d="M39,62.6c1,0,1.4,0.3,2.1,0.7c0.7,0.5,1,1.2,1,2.1c0,1.2-0.8,2.2-1.7,2.8c-1,0.6-1.8,0.9-2.9,1.1c-1,0.2-2.4,0.4-3.3,0.4
			c-0.3,0-0.3-0.1-0.3-0.2c0-0.1,0.1-0.2,0.1-0.2c0.1,0,0.3,0,0.4-0.1c1.7-0.3,3.2-0.8,4.4-1.6c1.3-0.9,1.7-1.8,1.7-2.6
			c0-0.5-0.2-1-0.5-1.3c-0.3-0.3-0.8-0.5-1.4-0.5c-1,0-2,0.5-3,1.4c-0.7,0.7-0.9,1.2-1.1,1.6c-0.1,0.4-0.3,0.5-0.6,0.5
			c-0.2,0-0.4-0.1-0.7-0.5c-0.1-0.2-0.2-0.6-0.2-1c0-0.3,0.1-0.4,0.2-0.7c0.1-0.2,0.2-0.5,0.2-0.7c0.2-0.9,0.4-1.7,0.5-2.9
			c-0.8,0.1-1.4,0.2-1.6,0.2c-0.4,0-0.7,0-1.1-0.4c-0.4-0.4-0.6-0.7-0.8-1c-0.1-0.1,0-0.3,0.1-0.3c0.1,0,0.1,0.1,0.2,0.1
			c0.6,0.4,0.8,0.4,1.4,0.4c0.5,0,1.3-0.1,1.8-0.3c0.2-1,0.2-1.8,0.2-2c0-0.5-0.1-0.6-0.4-0.7c-0.2-0.1-0.4-0.1-0.6-0.1
			c-0.1,0-0.1,0-0.1-0.1s0.1-0.2,0.2-0.3c0.2-0.1,0.5-0.3,0.8-0.3c0.4,0,1,0.2,1.5,0.5c0.3,0.2,0.4,0.4,0.4,0.7
			c0,0.2-0.1,0.3-0.3,0.5c-0.1,0.1-0.2,0.3-0.3,0.6c-0.1,0.3-0.2,0.6-0.2,0.9c1.1-0.3,1.3-0.4,1.5-0.6c0.2-0.2,0.5-0.2,0.8-0.2
			c0.2,0,0.5,0,0.7,0.1c0.3,0.1,0.4,0.3,0.4,0.6c0,0.3-0.1,0.5-0.8,0.7c-0.7,0.2-1.8,0.5-2.9,0.7c-0.2,1.1-0.5,2.4-0.7,3.6
			C36.3,63,37.7,62.6,39,62.6z"/>
		<path d="M39.3,83.7c0,0.4,0.1,0.5,0.3,0.5c0.2,0.1,0.6,0.1,1.2,0.1c0.6,0,1.2-0.1,1.4-0.2c0.3-0.2,0.4-0.6,0.4-1.7
			c0.3,0.2,0.8,0.4,1.2,0.6c0.4,0.1,0.4,0.1,0.4,0.5c-0.1,1.1-0.3,1.5-0.8,1.9c-0.4,0.4-1.4,0.5-2.7,0.5c-1.2,0-2,0-2.4-0.2
			c-0.4-0.2-0.7-0.4-0.7-1.1v-3.3h-1.4c-0.5,2.7-2.1,4.4-4.9,4.9c-0.2,0-0.3,0-0.3,0c-0.2,0-0.2-0.1-0.4-0.4c-0.2-0.4-0.5-0.8-0.8-1
			c2.8-0.4,4.3-1.5,4.6-3.5h0c-1.6,0-2.1,0-2.2,0c-0.2,0-0.2,0-0.2-0.2c0-0.1,0-0.7,0-2v-4.8c0-1.3,0-1.9,0-2c0-0.2,0-0.2,0.2-0.2
			c0.1,0,0.6,0,2.2,0h5.2c1.5,0,2.1,0,2.2,0c0.2,0,0.2,0,0.2,0.2c0,0.1,0,0.7,0,2v4.8c0,1.2,0,1.9,0,2c0,0.2,0,0.2-0.2,0.2
			c-0.1,0-0.7,0-2.2,0h-0.3V83.7z M33.7,73.6v1.2h6.5v-1.2H33.7z M40.2,77.3v-1.1h-6.5v1.1H40.2z M40.2,78.6h-6.5v1.2h6.5V78.6z"/>
		<path d="M39,94.6c1,0,1.4,0.3,2.1,0.7c0.7,0.5,1,1.2,1,2.1c0,1.2-0.8,2.2-1.7,2.8c-1,0.6-1.8,0.9-2.9,1.1c-1,0.2-2.4,0.4-3.3,0.4
			c-0.3,0-0.3-0.1-0.3-0.2c0-0.1,0.1-0.2,0.1-0.2c0.1,0,0.3,0,0.4-0.1c1.7-0.3,3.2-0.8,4.4-1.6c1.3-0.9,1.7-1.8,1.7-2.6
			c0-0.5-0.2-1-0.5-1.3c-0.3-0.3-0.8-0.5-1.4-0.5c-1,0-2,0.5-3,1.4c-0.7,0.7-0.9,1.2-1.1,1.6c-0.1,0.4-0.3,0.5-0.6,0.5
			c-0.2,0-0.4-0.1-0.7-0.5c-0.1-0.2-0.2-0.6-0.2-1c0-0.3,0.1-0.4,0.2-0.7c0.1-0.2,0.2-0.5,0.2-0.7c0.2-0.9,0.4-1.7,0.5-2.9
			c-0.8,0.1-1.4,0.2-1.6,0.2c-0.4,0-0.7,0-1.1-0.4c-0.4-0.4-0.6-0.7-0.8-1c-0.1-0.1,0-0.3,0.1-0.3c0.1,0,0.1,0.1,0.2,0.1
			c0.6,0.4,0.8,0.4,1.4,0.4c0.5,0,1.3-0.1,1.8-0.3c0.2-1,0.2-1.8,0.2-2c0-0.5-0.1-0.6-0.4-0.7c-0.2-0.1-0.4-0.1-0.6-0.1
			c-0.1,0-0.1,0-0.1-0.1s0.1-0.2,0.2-0.3c0.2-0.1,0.5-0.3,0.8-0.3c0.4,0,1,0.2,1.5,0.5c0.3,0.2,0.4,0.4,0.4,0.7
			c0,0.2-0.1,0.3-0.3,0.5c-0.1,0.1-0.2,0.3-0.3,0.6c-0.1,0.3-0.2,0.6-0.2,0.9c1.1-0.3,1.3-0.4,1.5-0.6c0.2-0.2,0.5-0.2,0.8-0.2
			c0.2,0,0.5,0,0.7,0.1c0.3,0.1,0.4,0.3,0.4,0.6c0,0.3-0.1,0.5-0.8,0.7c-0.7,0.2-1.8,0.5-2.9,0.7c-0.2,1.1-0.5,2.4-0.7,3.6
			C36.3,95,37.7,94.6,39,94.6z"/>
		<path d="M37.6,108.8c1.2-0.7,2.6-1.2,3.4-1.2c0.8,0,1.4,0.1,1.9,0.6c0.4,0.4,0.6,0.8,0.6,1.3c0,0.7-0.3,1.3-1,1.7
			c-0.5,0.3-1.1,0.5-1.8,0.5c-0.9,0-1.9-0.3-2.8-0.8c-0.2-0.1-0.2-0.1-0.2-0.2c0,0,0-0.1,0.1-0.1c0.1,0,0.2,0,0.3,0.1
			c0.7,0.1,1.2,0.2,1.7,0.2c0.6,0,1.1-0.1,1.6-0.4c0.6-0.3,0.9-0.6,0.9-1.2c0-0.2,0-0.5-0.3-0.7c-0.3-0.3-0.7-0.4-1.1-0.4
			c-0.8,0-1.9,0.4-3.2,1.2c-0.4,0.2-0.7,0.4-1.1,0.7c0.2,0.5,0.5,1,0.8,1.4c0.6,1.2,1,2.1,1.4,3c0.2,0.4,0.2,0.7,0.2,1
			c0,0.5-0.4,0.7-0.7,0.7c-0.1,0-0.3,0-0.4-0.1c-0.1-0.1-0.2-0.4-0.3-0.9c-0.4-1.5-0.8-2.6-1.7-4.6c-0.2,0.2-0.4,0.3-0.6,0.4
			c-0.4,0.3-0.5,0.5-0.6,0.6c-0.1,0.1-0.2,0.2-0.4,0.2c-0.3,0-0.6-0.1-1-0.4c-0.4-0.3-0.6-0.7-0.6-0.9c0-0.2,0-0.3,0.1-0.3
			c0.1,0,0.1,0.1,0.2,0.1c0.3,0.2,0.5,0.3,0.7,0.3c0.2,0,0.5-0.1,1-0.4c0.2-0.1,0.4-0.2,0.7-0.4c-0.2-0.4-0.3-0.5-0.5-0.8
			c-0.1-0.1-0.2-0.4-0.2-0.6c0-0.4,0.2-0.8,0.4-1c0.2-0.2,0.3-0.3,0.6-0.3c0.5,0,1-0.1,1.7-0.2c-0.2-0.5-0.3-0.7-0.3-1
			c0-0.3,0.1-0.6,0.2-0.6c0.1,0,0.1,0.1,0.1,0.2c0,0.2,0.2,0.3,0.3,0.5c0.1,0.1,0.4,0.4,0.7,0.6c0.4,0.3,0.5,0.6,0.5,1
			c0,0.3-0.2,0.4-0.5,0.4c-0.2,0-0.3-0.1-0.5-0.2c-0.2-0.1-0.5-0.2-0.9-0.3c-0.3-0.1-0.7-0.1-1.1-0.1c-0.4,0.1-0.5,0.3-0.5,0.5
			c0,0.2,0,0.3,0.1,0.5c0.1,0.1,0.2,0.4,0.6,1.1C36.8,109.3,37.2,109.1,37.6,108.8z"/>
		<path d="M39.6,123.6c1,0,1.7,0.2,2.4,0.8c0.8,0.6,1.1,1.4,1.1,2.5c0,1.2-0.7,2.2-1.6,2.7c-0.8,0.5-1.5,0.8-2.3,0.9
			c-0.9,0.2-2.2,0.4-3,0.4c-0.2,0-0.3-0.1-0.3-0.2c0-0.1,0.1-0.1,0.3-0.2c1-0.2,2.3-0.5,3.3-1c1.3-0.7,2.3-1.9,2.3-3.1
			c0-0.8-0.2-1.2-0.6-1.6c-0.4-0.4-0.9-0.6-1.7-0.6c-1,0-2.2,0.7-3.6,1.8c-0.7,0.5-0.8,0.7-0.9,0.9c-0.2,0.3-0.4,0.3-0.6,0.3
			c-0.4,0-0.9-0.4-1.3-0.8c-0.2-0.3-0.4-0.5-0.4-0.8c0-0.2,0-0.4,0.2-0.4c0,0,0.1,0,0.2,0.1c0.3,0.2,0.4,0.4,0.7,0.4
			c0.1,0,0.2,0,0.4-0.1c0.1,0,0.3-0.1,0.7-0.3c1-0.5,1.7-0.8,2.1-1C37.9,123.9,38.8,123.6,39.6,123.6z"/>
		<path d="M37.2,138.7c0.2,0,0.4,0,0.7,0.1c0.2,0.1,0.4,0.2,0.4,0.5c0,0.2-0.2,0.4-0.5,0.6c-0.7,0.3-1.8,0.6-2.7,0.8
			c-0.3,0.7-0.8,2.1-1.1,3.1c-0.4,1-0.9,2.5-1.8,4.6c-0.2,0.6-0.5,0.8-0.9,0.8c-0.1,0-0.3-0.1-0.5-0.2c-0.1-0.1-0.2-0.3-0.2-0.6
			c0-0.3,0.2-0.6,0.4-1.1c1.1-2.2,2.1-4.3,2.8-6.4c-0.9,0.2-1.3,0.2-1.7,0.2c-0.7,0-1.1-0.1-1.5-0.6c-0.3-0.3-0.4-0.7-0.4-0.8
			c0-0.1,0-0.1,0.1-0.1c0.1,0,0.2,0.1,0.3,0.1c0.4,0.3,0.7,0.4,1.3,0.4c0.8,0,1.6-0.2,2.4-0.4c0.4-1.2,0.5-1.8,0.5-2.1
			c0-0.3-0.1-0.5-0.3-0.6c-0.2-0.1-0.3-0.1-0.6-0.2c-0.1,0-0.2-0.1-0.2-0.1c0-0.1,0-0.2,0.2-0.3c0.2-0.1,0.4-0.2,0.8-0.2
			c0.4,0,1.2,0.3,1.6,0.6c0.1,0.1,0.2,0.3,0.2,0.4c0,0.2-0.1,0.4-0.2,0.5c-0.3,0.3-0.4,0.6-0.8,1.6c0.4-0.1,0.8-0.3,1-0.5
			C36.7,138.8,37.1,138.7,37.2,138.7z M36.9,145.3c-0.1,0.3-0.1,0.7-0.1,1c0,0.9,0.8,1.5,2.4,1.5c0.8,0,1.4,0,1.6-0.1
			c0.2-0.1,0.4-0.1,0.8-0.1c0.2,0,0.6,0.1,0.8,0.2c0.2,0.1,0.4,0.4,0.4,0.7c0,0.4-0.4,0.6-0.9,0.7c-0.5,0.1-1.2,0.1-1.8,0.1
			c-0.6,0-1.4-0.1-2.1-0.3c-1.2-0.4-1.9-1.2-1.9-2.3c0-0.7,0.2-1.1,0.4-1.6c0.1-0.1,0.2-0.3,0.3-0.3s0.1,0,0.1,0.1
			C37,145.1,36.9,145.2,36.9,145.3z M38.6,141.9c-0.4,0.1-1.1,0.2-1.8,0.6c0,0-0.1,0-0.1,0c-0.1,0-0.1,0-0.1-0.1
			c0-0.1,0-0.1,0.1-0.2c0.4-0.4,0.9-0.7,1.5-1c0.5-0.2,1.4-0.4,2-0.4c0.7,0,1.4,0.2,1.8,0.4c0.4,0.2,0.5,0.4,0.5,0.8
			c0,0.3-0.3,0.5-0.6,0.5c-0.2,0-0.4,0-0.6-0.1c-0.2,0-0.4,0-0.6,0c-0.4,0-1.1,0.3-2.3,0.9c-0.1,0.1-0.1,0.1-0.2,0.1
			c-0.1,0-0.1-0.1-0.1-0.1c0-0.1,0.8-0.7,1.5-1.3C39.3,141.9,39,141.9,38.6,141.9z"/>
		<path d="M37.9,153.3c0,0.6-0.4,2.2-0.5,3.4c-0.2,1.3-0.3,2.8-0.3,4c0,0.4,0,0.7,0,1c0,0.1-0.1,0.3-0.5,0.3c-0.1,0-0.2-0.1-0.2-0.2
			c0-0.3,0-0.6,0-1c0-1.2-0.2-2.7-0.4-3.9c-0.2-1.1-0.5-2.9-0.5-3.5c0-0.6,0.4-1,1.2-1C37.6,152.2,37.9,152.6,37.9,153.3z
			 M37.9,164.4c0,0.6-0.5,1.1-1.1,1.1c-0.6,0-1.1-0.5-1.1-1.1c0-0.6,0.5-1.1,1.1-1.1C37.3,163.3,37.9,163.8,37.9,164.4z"/>
	</g>
</g>
<g>
</g>
<g>
</g>
<g>
</g>
<g>
</g>
<g>
</g>
<g>
</g>
<g>
</g>
<g>
</g>
<g>
</g>
<g>
</g>
<g>
</g>
<g>
</g>
<g>
</g>
<g>
</g>
<g>
</g>
</svg>
