<?xml version="1.0" encoding="UTF-8" standalone="no"?>
<svg width="168px" height="142px" viewBox="0 0 168 142" version="1.1" xmlns="http://www.w3.org/2000/svg" xmlns:xlink="http://www.w3.org/1999/xlink" xmlns:sketch="http://www.bohemiancoding.com/sketch/ns">
    <!-- Generator: Sketch 3.5.1 (25234) - http://www.bohemiancoding.com/sketch -->
    <title>illust3</title>
    <desc>Created with Sketch.</desc>
    <defs>
        <filter x="-50%" y="-50%" width="200%" height="200%" filterUnits="objectBoundingBox" id="filter-1">
            <feGaussianBlur stdDeviation="6" in="SourceGraphic" result="blur"></feGaussianBlur>
        </filter>
    </defs>
    <g id="Welcome" stroke="none" stroke-width="1" fill="none" fill-rule="evenodd" sketch:type="MSPage">
        <g id="sample3-06" sketch:type="MSArtboardGroup" transform="translate(-734.000000, -193.000000)">
            <g id="feature3" sketch:type="MSLayerGroup" transform="translate(690.000000, 193.000000)">
                <g id="illust3" transform="translate(44.000000, 0.000000)" sketch:type="MSShapeGroup">
                    <path d="M32.5606,113.8802 C29.8226,112.6042 29.3306,109.8122 31.4666,107.6762 L94.9276,44.2172 C97.0636,42.0812 101.0506,41.3782 103.7886,42.6542 L136.5586,57.9312 C139.2966,59.2082 139.7886,61.9992 137.6536,64.1352 L74.1916,127.5942 C72.0556,129.7302 68.0686,130.4332 65.3306,129.1572 L32.5606,113.8802 Z" id="Fill-1" fill-opacity="0.2" fill="#000000" filter="url(#filter-1)"></path>
                    <path d="M0,87.9068 L3.575,89.5728 L16.178,76.9698 L12.604,75.3038 L0,87.9068 Z" id="Fill-3" fill="#FFFFFF"></path>
                    <path d="M18.9421,68.9652 L31.5451,56.3622 L35.1201,58.0292 L22.5171,70.6312 L18.9421,68.9652 Z" id="Fill-4" fill="#FFFFFF"></path>
                    <path d="M37.8841,50.0238 L50.4871,37.4208 L54.0621,39.0878 L41.4591,51.6898 L37.8841,50.0238 Z" id="Fill-5" fill="#FFFFFF"></path>
                    <path d="M56.8262,31.0823 L69.4292,18.4793 L73.0042,20.1463 L60.4012,32.7483 L56.8262,31.0823 Z" id="Fill-6" fill="#FFFFFF"></path>
                    <path d="M94.1958,135.3332 L97.7708,137.0002 L110.3738,124.3972 L106.7998,122.7302 L94.1958,135.3332 Z" id="Fill-7" fill="#FFFFFF"></path>
                    <path d="M113.1381,116.3922 L125.7411,103.7892 L129.3161,105.4562 L116.7131,118.0582 L113.1381,116.3922 Z" id="Fill-8" fill="#FFFFFF"></path>
                    <path d="M132.0802,97.4508 L144.6832,84.8478 L148.2582,86.5148 L135.6552,99.1168 L132.0802,97.4508 Z" id="Fill-9" fill="#FFFFFF"></path>
                    <path d="M151.0218,78.509 L154.5968,80.176 L167.1998,67.573 L163.6258,65.906 L151.0218,78.509 Z" id="Fill-10" fill="#FFFFFF"></path>
                    <path d="M124.3782,56.2099 L106.7902,48.0059 L109.0702,55.8199 L126.6582,64.0239 L124.3782,56.2099 Z" id="Fill-11" fill="#888888"></path>
                    <path d="M114.4845,73.9948 C115.4245,74.5888 115.7525,74.7178 116.9745,75.2848 C118.2175,75.8678 119.2565,76.2688 119.2995,76.1858 C119.2995,76.1858 124.6255,60.1418 124.1075,59.7978 C123.5815,59.4488 123.1615,59.1728 121.9185,58.5938 C120.6735,58.0078 120.5205,57.8788 119.5915,57.6898 C118.6605,57.4998 118.0175,57.6858 117.0595,58.6428 C114.8235,60.8798 113.0075,65.9158 113.0075,69.8968 C113.0075,72.1368 113.5465,73.3938 114.4845,73.9948" id="Fill-12" fill="#333333"></path>
                    <path d="M124.1074,59.7973 C125.0304,60.1873 125.6224,61.6243 125.6224,63.8953 C125.6224,67.8763 123.8044,72.9163 121.5704,75.1563 C120.5924,76.1333 119.6914,76.4133 118.9894,76.0873 C118.0894,75.6633 117.5174,74.2413 117.5174,72.0003 C117.5174,68.0193 119.3344,62.9833 121.5704,60.7473 C122.5274,59.7853 123.4114,59.4983 124.1074,59.7973" id="Fill-14" fill="#515151"></path>
                    <path d="M122.8438,63.8499 C123.3088,64.0469 123.6058,64.7659 123.6058,65.9079 C123.6058,67.9059 122.6958,70.4419 121.5698,71.5619 C121.0788,72.0569 120.6258,72.1979 120.2748,72.0309 C119.8198,71.8189 119.5348,71.1079 119.5348,69.9799 C119.5348,67.9819 120.4448,65.4539 121.5698,64.3269 C122.0508,63.8459 122.4938,63.6989 122.8438,63.8499" id="Fill-16" fill="#AAAAAA"></path>
                    <path d="M105.1779,83.2998 C106.1159,83.8978 106.4469,84.0268 107.6659,84.5938 C108.9109,85.1688 109.9509,85.5778 109.9929,85.4948 C109.9929,85.4948 115.3189,69.4498 114.7989,69.1018 C114.2749,68.7538 113.8569,68.4778 112.6119,67.8988 C111.3669,67.3198 111.2149,67.1878 110.2839,66.9978 C109.3549,66.8088 108.7119,66.9908 107.7529,67.9518 C105.5169,70.1838 103.6999,75.2248 103.6999,79.2058 C103.6999,81.4418 104.2379,82.7058 105.1779,83.2998" id="Fill-18" fill="#333333"></path>
                    <path d="M114.7988,69.102 C115.7238,69.5 116.3158,70.93 116.3158,73.204 C116.3158,77.185 114.4998,82.225 112.2638,84.465 C111.2868,85.442 110.3848,85.722 109.6848,85.396 C108.7838,84.972 108.2108,83.55 108.2108,81.309 C108.2108,77.333 110.0268,72.292 112.2638,70.056 C113.2208,69.095 114.1028,68.807 114.7988,69.102" id="Fill-20" fill="#515151"></path>
                    <path d="M113.5348,73.1586 C114.0038,73.3556 114.2998,74.0746 114.2998,75.2206 C114.2998,77.2156 113.3868,79.7426 112.2638,80.8706 C111.7718,81.3626 111.3188,81.5066 110.9658,81.3396 C110.5128,81.1276 110.2278,80.4086 110.2278,79.2886 C110.2278,77.2906 111.1378,74.7556 112.2638,73.6356 C112.7438,73.1516 113.1888,73.0066 113.5348,73.1586" id="Fill-22" fill="#AAAAAA"></path>
                    <path d="M86.8932,60.5804 L86.8932,103.7944 L106.2802,84.4084 L108.5592,72.0314 L124.3782,56.2104 L126.6582,64.0244 L129.1552,61.5304 L129.1552,18.3204 L86.8932,60.5804 Z" id="Fill-24" fill="#C8C9CA"></path>
                    <path d="M86.8932,68.6478 L86.8932,83.3258 L129.1552,41.0618 L129.1552,26.3838 L86.8932,68.6478 Z" id="Fill-26" fill="#3471A0"></path>
                    <path d="M86.8932,85.3923 L86.8932,88.2873 L129.1552,46.0233 L129.1552,43.1323 L86.8932,85.3923 Z" id="Fill-28" fill="#3471A0"></path>
                    <path d="M49.2137,43.0148 L49.2137,86.2248 L86.8937,103.7948 L86.8937,60.5808 L49.2137,43.0148 Z" id="Fill-30" fill="#DBDCDC"></path>
                    <path d="M49.2137,76.1329 L49.2137,86.2249 L86.8937,103.7939 L86.8937,93.6989 L49.2137,76.1329 Z" id="Fill-32" fill="#888888"></path>
                    <path d="M76.6481,111.8316 C77.5871,112.4296 77.9141,112.5506 79.1361,113.1256 C80.3811,113.7046 81.4201,114.1056 81.4631,114.0266 C81.4631,114.0266 86.7871,97.9816 86.2631,97.6336 C85.7391,97.2856 85.3251,97.0096 84.0801,96.4306 C82.8351,95.8476 82.6821,95.7156 81.7531,95.5226 C80.8241,95.3406 80.1781,95.5226 79.2171,96.4756 C76.9811,98.7156 75.1701,103.7566 75.1701,107.7366 C75.1701,109.9696 75.7081,111.2336 76.6481,111.8316" id="Fill-34" fill="#333333"></path>
                    <path d="M86.2632,97.6337 C87.1922,98.0277 87.7842,99.4617 87.7842,101.7357 C87.7842,105.7167 85.9682,110.7567 83.7322,112.9967 C82.7542,113.9697 81.8532,114.2537 81.1532,113.9277 C80.2502,113.4997 79.6792,112.0737 79.6792,109.8407 C79.6792,105.8607 81.4952,100.8237 83.7322,98.5837 C84.6892,97.6227 85.5732,97.3387 86.2632,97.6337" id="Fill-36" fill="#515151"></path>
                    <path d="M85.005,101.6903 C85.468,101.8873 85.768,102.6063 85.768,103.7483 C85.768,105.7473 84.857,108.2743 83.732,109.4023 C83.242,109.8943 82.788,110.0383 82.436,109.8713 C81.981,109.6593 81.696,108.9403 81.696,107.8203 C81.696,105.8223 82.608,103.2873 83.732,102.1673 C84.212,101.6823 84.657,101.5383 85.005,101.6903" id="Fill-38" fill="#AAAAAA"></path>
                    <path d="M33.5956,75.9052 C33.5956,76.3362 33.2416,76.5262 32.8086,76.3252 L30.6746,75.3302 C30.2396,75.1252 29.8876,74.6112 29.8876,74.1762 L29.8876,67.5802 C29.8876,67.1562 30.2396,66.9632 30.6746,67.1682 L32.8086,68.1632 C33.2416,68.3672 33.5956,68.8822 33.5956,69.3172 L33.5956,75.9052 Z" id="Fill-40" fill="#333333"></path>
                    <path d="M33.3074,76.1933 C33.3074,76.6243 32.9534,76.8143 32.5204,76.6133 L30.3864,75.6183 C29.9514,75.4133 29.5994,74.8993 29.5994,74.4643 L29.5994,67.8683 C29.5994,67.4443 29.9514,67.2513 30.3864,67.4563 L32.5204,68.4513 C32.9534,68.6553 33.3074,69.1703 33.3074,69.6053 L33.3074,76.1933 Z" id="Fill-42" fill="#515151"></path>
                    <path d="M69.5776,116.4973 L69.5776,109.5003 C69.5776,107.5933 69.7556,104.4833 69.9726,102.5903 L71.6566,86.6823 L33.9756,69.1093 L32.2936,85.0183 C32.0716,86.9093 31.8976,90.0203 31.8976,91.9273 L31.8976,98.9283 L69.5776,116.4973 Z" id="Fill-44" fill="#E5E5E6"></path>
                    <path d="M71.3748,89.3694 L33.6938,71.7964 L32.2938,85.0184 C32.2228,85.6234 32.1588,86.3534 32.1028,87.1294 L69.7818,104.6944 C69.8408,103.9234 69.9008,103.1884 69.9728,102.5904 L71.3748,89.3694 Z" id="Fill-46" fill="#86C9AB"></path>
                    <path d="M41.4279,95.5603 L41.4279,100.6763 L58.8309,108.7933 L58.8309,103.6733 L41.4279,95.5603 Z" id="Fill-48" fill="#515151"></path>
                    <path d="M79.0586,101.5314 L86.8936,93.6984 L86.8936,71.4484 L71.6566,86.6824 L69.9726,102.5904 C69.7556,104.4824 69.5776,107.5934 69.5776,109.5004 L69.5776,121.1104 L76.7806,113.9084 L79.0586,101.5314 Z" id="Fill-50" fill="#C8C9CA"></path>
                    <path d="M58.8307,106.4203 L41.4277,98.3073" id="Stroke-52" stroke="#E5E5E6" stroke-width="0.969" stroke-linecap="square"></path>
                    <path d="M32.8591,93.1156 L32.8591,96.1506 L39.5151,99.2576 L39.5151,96.2186 L32.8591,93.1156 Z" id="Fill-54" fill="#D0DD33"></path>
                    <path d="M68.6182,109.788 L60.7442,106.118 L60.7442,109.153 L68.6182,112.823 L68.6182,109.788 Z" id="Fill-56" fill="#D0DD33"></path>
                    <path d="M69.7818,104.6948 L75.5408,98.9358 C76.6178,97.8568 77.5018,95.7338 77.5018,94.2128 L77.5018,86.0088 C77.5018,84.4848 76.6178,84.1248 75.5408,85.1988 L71.3748,89.3698" id="Fill-58" fill="#74AE95"></path>
                    <path d="M49.2137,53.8749 L33.9757,69.1099 L71.6567,86.6829 L86.8937,71.4479 L49.2137,53.8749 Z" id="Fill-60" fill="#EEEEEF"></path>
                    <path d="M85.1658,60.9438 L51.3688,45.1758 L41.3808,63.8578 L69.1478,76.8258 L85.1658,60.9438 Z" id="Fill-62" fill="#FFFFFF"></path>
                    <path d="M39.9353,70.2485 L67.6983,83.2015 L69.1483,76.8255 L41.3803,63.8575 L39.9353,70.2485 Z" id="Fill-64" fill="#E5E5E6"></path>
                    <path d="M85.1658,60.9438 L85.1248,70.6228 L67.6988,83.2018 L69.1478,76.8258 L85.1658,60.9438 Z" id="Fill-66" fill="#B4B4B5"></path>
                    <path d="M49.2137,43.0148 L91.4757,0.7548 L129.1557,18.3208 L86.8937,60.5808 L49.2137,43.0148 Z" id="Fill-68" fill="#FFFFFF"></path>
                    <path d="M84.4509,87.5416 C84.4509,88.4916 83.9039,89.8196 83.2299,90.4896 L80.7949,92.9306 C80.1239,93.5996 79.5689,93.3726 79.5689,92.4236 L79.5689,84.2836 C79.5689,83.3376 80.1239,82.0056 80.7949,81.3326 L83.2299,78.8996 C83.9039,78.2216 84.4509,78.4526 84.4509,79.4016 L84.4509,87.5416 Z" id="Fill-71" fill="#74AE95"></path>
                    <path d="M29.2415,97.7585 L29.2415,104.0665 L69.9165,123.0285 L69.9165,116.7205 L29.2415,97.7585 Z" id="Fill-73" fill="#C8C9CA"></path>
                    <path d="M72.8565,113.7764 L72.8565,120.0884 L69.9165,123.0284 L69.9165,116.7204 L72.8565,113.7764 Z" id="Fill-75" fill="#9E9E9F"></path>
                    <path d="M71.3597,113.08 L69.5777,114.862 L31.8977,97.293 L31.8977,95.102 L29.2417,97.758 L69.9167,116.72 L72.8567,113.776 L71.3597,113.08 Z" id="Fill-77" fill="#EBEBEB"></path>
                    <path d="M66.9551,117.7915 L62.4071,115.6725 L62.4071,117.4245 L66.9551,119.5435 L66.9551,117.7915 Z" id="Fill-79" fill="#D0DD33"></path>
                    <path d="M36.0453,103.3778 L31.4943,101.2588 L31.4943,103.0108 L36.0453,105.1338 L36.0453,103.3778 Z" id="Fill-81" fill="#D0DD33"></path>
                    <path d="M76.3345,95.8359 C76.3345,96.2629 75.9825,96.4559 75.5475,96.2559 L73.4135,95.2569 C72.9785,95.0529 72.6265,94.5379 72.6265,94.1069 L72.6265,87.5149 C72.6265,87.0829 72.9785,86.8939 73.4135,87.0989 L75.5475,88.0899 C75.9825,88.2939 76.3345,88.8159 76.3345,89.2479 L76.3345,95.8359 Z" id="Fill-83" fill="#333333"></path>
                    <path d="M76.0463,96.1241 C76.0463,96.5511 75.6943,96.7441 75.2593,96.5441 L73.1253,95.5451 C72.6903,95.3411 72.3383,94.8261 72.3383,94.3951 L72.3383,87.8031 C72.3383,87.3711 72.6903,87.1821 73.1253,87.3871 L75.2593,88.3781 C75.6943,88.5821 76.0463,89.1041 76.0463,89.5361 L76.0463,96.1241 Z" id="Fill-85" fill="#515151"></path>
                </g>
            </g>
        </g>
    </g>
</svg>