<?xml version="1.0" encoding="UTF-8" standalone="no"?>
<svg width="218px" height="36px" viewBox="0 0 218 36" version="1.1" xmlns="http://www.w3.org/2000/svg" xmlns:xlink="http://www.w3.org/1999/xlink" xmlns:sketch="http://www.bohemiancoding.com/sketch/ns">
    <!-- Generator: Sketch 3.5.1 (25234) - http://www.bohemiancoding.com/sketch -->
    <title>logo</title>
    <desc>Created with Sketch.</desc>
    <defs></defs>
    <g id="Welcome" stroke="none" stroke-width="1" fill="none" fill-rule="evenodd" sketch:type="MSPage">
        <g id="sample3-06" sketch:type="MSArtboardGroup" transform="translate(-25.000000, -23.000000)" fill="#C24C60">
            <g id="logo" sketch:type="MSLayerGroup" transform="translate(25.000000, 23.000000)">
                <g id="Group-2" transform="translate(46.000000, 10.000000)" sketch:type="MSShapeGroup">
                    <path d="M11.9644,1.2085 L10.4914,9.5625 C10.1154,11.6915 9.7414,12.6225 8.9414,13.4695 C7.8834,14.5865 6.2314,15.2685 4.5924,15.2685 C2.9124,15.2685 1.4454,14.4205 0.9164,13.1395 C0.6204,12.4365 0.5874,11.6705 0.7804,10.5755 L4.5594,10.5755 C4.4264,11.6915 4.6784,12.1665 5.3914,12.1665 C5.7064,12.1665 6.0014,12.0425 6.2304,11.8155 C6.5124,11.5265 6.6234,11.2575 6.7694,10.4305 L8.3954,1.2085 L11.9644,1.2085 Z" id="Fill-1"></path>
                    <path d="M19.354,10.2026 L18.715,5.4886 L16.415,10.2026 L19.354,10.2026 Z M14.935,12.9946 L13.847,14.9996 L10.005,14.9996 L18.042,1.2086 L20.876,1.2086 L24.009,14.9996 L20.146,14.9996 L19.806,12.9946 L14.935,12.9946 Z" id="Fill-3"></path>
                    <path d="M31.29,7.5562 C32.151,7.5562 32.632,7.4522 33.039,7.1632 C33.448,6.8742 33.717,6.4192 33.809,5.9022 C33.896,5.4062 33.713,4.8892 33.379,4.6402 C33.083,4.4132 32.578,4.3102 31.716,4.3102 L30.415,4.3102 L29.842,7.5562 L31.29,7.5562 Z M27.539,1.2082 L32.117,1.2082 C34.341,1.2082 35.428,1.4772 36.242,2.2222 C37.124,3.0482 37.493,4.4132 37.234,5.8812 C36.986,7.2872 36.207,8.6112 35.13,9.4792 C34.057,10.3272 32.819,10.6782 30.824,10.6782 L29.291,10.6782 L28.529,15.0002 L25.106,15.0002 L27.539,1.2082 Z" id="Fill-5"></path>
                    <path d="M44.2427,10.2026 L43.6037,5.4886 L41.3037,10.2026 L44.2427,10.2026 Z M39.8237,12.9946 L38.7357,14.9996 L34.8937,14.9996 L42.9307,1.2086 L45.7647,1.2086 L48.8977,14.9996 L45.0347,14.9996 L44.6947,12.9946 L39.8237,12.9946 Z" id="Fill-7"></path>
                    <path d="M52.4272,1.2085 L55.5142,1.2085 L59.4212,9.8925 L60.8252,1.2085 L64.2482,1.2085 L61.8162,15.0005 L58.7092,15.0005 L54.7722,6.6045 L53.4182,15.0005 L49.9952,15.0005 L52.4272,1.2085 Z" id="Fill-9"></path>
                    <path d="M73.0483,4.3101 L70.2773,4.3101 L70.8233,1.2081 L79.9373,1.2081 L79.3903,4.3101 L76.6183,4.3101 L74.7333,15.0001 L71.1633,15.0001 L73.0483,4.3101 Z" id="Fill-11"></path>
                    <path d="M84.6479,8.1353 C85.4039,8.1353 85.8879,8.0113 86.3409,7.7003 C86.8399,7.3703 87.2369,6.7913 87.3389,6.2123 C87.5579,4.9713 86.8769,4.3103 85.3649,4.3103 L84.0629,4.3103 L83.3879,8.1353 L84.6479,8.1353 Z M81.1869,1.2083 L85.6179,1.2083 C87.9489,1.2083 88.9369,1.4353 89.7459,2.2003 C90.6649,3.0693 91.0679,4.4753 90.8049,5.9643 C90.5569,7.3703 89.7919,8.6113 88.6599,9.4383 C87.9809,9.9543 87.4609,10.1613 86.5529,10.3063 L89.5259,15.0003 L85.4329,15.0003 L82.9649,10.5333 L82.1779,15.0003 L78.7549,15.0003 L81.1869,1.2083 Z" id="Fill-13"></path>
                    <path d="M99.5708,10.2026 L98.9318,5.4886 L96.6318,10.2026 L99.5708,10.2026 Z M95.1518,12.9946 L94.0638,14.9996 L90.2218,14.9996 L98.2588,1.2086 L101.0928,1.2086 L104.2258,14.9996 L100.3628,14.9996 L100.0228,12.9946 L95.1518,12.9946 Z" id="Fill-15"></path>
                    <path d="M107.7554,1.2085 L110.8424,1.2085 L114.7494,9.8925 L116.1534,1.2085 L119.5764,1.2085 L117.1444,15.0005 L114.0374,15.0005 L110.1004,6.6045 L108.7464,15.0005 L105.3234,15.0005 L107.7554,1.2085 Z" id="Fill-17"></path>
                    <path d="M127.0518,5.2197 C127.0938,4.2687 126.7848,3.8757 126.0088,3.8757 C125.3368,3.8757 124.7068,4.3507 124.6008,4.9507 C124.5168,5.4267 124.7248,5.7987 125.2918,6.1497 C125.3648,6.2117 125.4638,6.2537 125.5618,6.2947 L126.0808,6.5637 L126.6028,6.8117 L127.1468,7.0597 C129.2508,8.1147 130.0158,9.2517 129.7128,10.9677 C129.2358,13.6767 127.1488,15.2687 124.0628,15.2687 C120.9338,15.2687 119.2598,13.5737 119.7338,10.8857 L119.8098,10.4507 L123.4008,10.4507 C123.1998,11.5887 123.6388,12.3117 124.5418,12.3117 C125.3188,12.3117 126.0308,11.7327 126.1578,11.0097 C126.2708,10.3677 125.8918,9.8927 124.9368,9.4787 C124.2918,9.2107 123.7848,8.9827 123.4328,8.8387 C121.5498,7.9697 120.7258,6.6877 121.0168,5.0337 C121.4258,2.7177 123.8848,0.9187 126.6348,0.9187 C128.1678,0.9187 129.4688,1.5187 130.1328,2.5107 C130.6358,3.2347 130.7468,3.9167 130.6008,5.2197 L127.0518,5.2197 Z" id="Fill-19"></path>
                    <path d="M137.2061,7.5562 C138.0671,7.5562 138.5481,7.4522 138.9551,7.1632 C139.3641,6.8742 139.6331,6.4192 139.7251,5.9022 C139.8121,5.4062 139.6291,4.8892 139.2951,4.6402 C138.9991,4.4132 138.4941,4.3102 137.6321,4.3102 L136.3311,4.3102 L135.7581,7.5562 L137.2061,7.5562 Z M133.4551,1.2082 L138.0331,1.2082 C140.2571,1.2082 141.3441,1.4772 142.1581,2.2222 C143.0401,3.0482 143.4091,4.4132 143.1501,5.8812 C142.9021,7.2872 142.1231,8.6112 141.0461,9.4792 C139.9731,10.3272 138.7351,10.6782 136.7401,10.6782 L135.2071,10.6782 L134.4451,15.0002 L131.0221,15.0002 L133.4551,1.2082 Z" id="Fill-21"></path>
                    <path d="M147.3262,8.0732 C146.9172,10.3892 148.2632,12.1672 150.4472,12.1672 C152.6302,12.1672 154.5562,10.4092 154.9692,8.0732 C155.3662,5.8192 154.0002,4.0412 151.8802,4.0412 C149.6762,4.0412 147.7312,5.7782 147.3262,8.0732 M158.5352,8.0942 C157.8272,12.1052 154.0152,15.2682 149.9002,15.2682 C145.6592,15.2682 143.0352,12.1672 143.7682,8.0112 C144.4692,4.0412 148.2692,0.9392 152.4272,0.9392 C156.5422,0.9392 159.2392,4.1032 158.5352,8.0942" id="Fill-23"></path>
                    <path d="M165.0767,8.1353 C165.8327,8.1353 166.3167,8.0113 166.7707,7.7003 C167.2687,7.3703 167.6657,6.7913 167.7677,6.2123 C167.9867,4.9713 167.3057,4.3103 165.7937,4.3103 L164.4917,4.3103 L163.8167,8.1353 L165.0767,8.1353 Z M161.6167,1.2083 L166.0467,1.2083 C168.3767,1.2083 169.3657,1.4353 170.1757,2.2003 C171.0937,3.0693 171.4957,4.4753 171.2327,5.9643 C170.9847,7.3703 170.2217,8.6113 169.0887,9.4383 C168.4097,9.9543 167.8897,10.1613 166.9827,10.3063 L169.9547,15.0003 L165.8607,15.0003 L163.3937,10.5333 L162.6067,15.0003 L159.1847,15.0003 L161.6167,1.2083 Z" id="Fill-25"></path>
                </g>
                <path d="M26.1953,1.9872 L22.4893,19.5262 C22.0423,22.0612 21.5973,23.1692 20.6433,24.1782 C19.3853,25.5072 17.4173,26.3202 15.4673,26.3202 C13.4683,26.3202 11.7213,25.3112 11.0913,23.7842 C10.7393,22.9482 10.6983,22.0372 10.9293,20.7322 L15.4283,20.7322 C15.2693,22.0612 15.5683,22.6272 16.4183,22.6272 C16.7933,22.6272 17.1443,22.4802 17.4163,22.2092 C17.7523,21.8652 17.8843,21.5452 18.0583,20.5602 L22.2603,0.5282 C20.8923,0.1952 19.4703,0.0002 18.0003,0.0002 C8.0593,0.0002 0.0003,8.0592 0.0003,18.0002 C0.0003,27.9412 8.0593,36.0002 18.0003,36.0002 C27.9413,36.0002 36.0003,27.9412 36.0003,18.0002 C36.0003,11.0132 32.0123,4.9702 26.1953,1.9872" id="Fill-30" sketch:type="MSShapeGroup"></path>
            </g>
        </g>
    </g>
</svg>