<?xml version="1.0" encoding="UTF-8" standalone="no"?>
<svg width="337px" height="102px" viewBox="0 0 337 102" version="1.1" xmlns="http://www.w3.org/2000/svg" xmlns:xlink="http://www.w3.org/1999/xlink" xmlns:sketch="http://www.bohemiancoding.com/sketch/ns">
    <!-- Generator: Sketch 3.4.4 (17249) - http://www.bohemiancoding.com/sketch -->
    <title>bg2</title>
    <desc>Created with Sketch.</desc>
    <defs>
        <rect id="path-1" x="0" y="0" width="337" height="102"></rect>
    </defs>
    <g id="Welcome" stroke="none" stroke-width="1" fill="none" fill-rule="evenodd" sketch:type="MSPage">
        <g id="sample3-08" sketch:type="MSArtboardGroup" transform="translate(-687.000000, -378.000000)">
            <g id="bg2" sketch:type="MSLayerGroup" transform="translate(687.000000, 378.000000)">
                <mask id="mask-2" sketch:name="Mask" fill="white">
                    <use xlink:href="#path-1"></use>
                </mask>
                <use id="Mask" sketch:type="MSShapeGroup" xlink:href="#path-1"></use>
                <path d="M360.723159,19.1369821 C360.354559,12.4618897 354.841228,7.15897436 348.074359,7.15897436 C344.031697,7.15897436 340.438967,9.05644359 338.11619,12.002259 C335.639705,4.84216667 328.842244,-0.302564103 320.839744,-0.302564103 C312.882759,-0.302564103 306.116636,4.78322051 303.605082,11.8798897 C301.412136,10.3219205 298.737921,9.3974359 295.84359,9.3974359 C288.426074,9.3974359 282.412821,15.4106897 282.412821,22.8282051 C282.412821,23.3572282 282.451621,23.8772974 282.510567,24.3906513 C281.080936,23.8720744 279.544605,23.574359 277.935897,23.574359 C270.518382,23.574359 264.505128,29.5876128 264.505128,37.0051282 C264.505128,44.4226436 270.518382,50.4358974 277.935897,50.4358974 L361.505128,50.4358974 C370.159021,50.4358974 377.174359,43.420559 377.174359,34.7666667 C377.174359,26.1127744 370.159021,19.0974359 361.505128,19.0974359 C361.24099,19.0974359 360.984313,19.1242974 360.723159,19.1369821 Z" id="Page-1-Copy-4" fill="#4BB38A" sketch:type="MSShapeGroup" mask="url(#mask-2)"></path>
                <path d="M226.451282,32.5282051 C226.187144,32.5282051 225.930467,32.5550667 225.669313,32.5677513 C225.300713,25.892659 219.787382,20.5897436 213.020513,20.5897436 C208.977851,20.5897436 205.385121,22.4872128 203.062344,25.4330282 C200.585859,18.2729359 193.788397,13.1282051 185.785897,13.1282051 C177.828913,13.1282051 171.06279,18.2139897 168.551236,25.310659 C166.35829,23.7526897 163.684074,22.8282051 160.789744,22.8282051 C153.372228,22.8282051 147.358974,28.841459 147.358974,36.2589744 C147.358974,36.7879974 147.397774,37.3080667 147.456721,37.8214205 C146.02709,37.3028436 144.490759,37.0051282 142.882051,37.0051282 C135.464536,37.0051282 129.451282,43.0183821 129.451282,50.4358974 C129.451282,57.8534128 135.464536,63.8666667 142.882051,63.8666667 L226.451282,63.8666667 C235.105174,63.8666667 242.120513,56.8513282 242.120513,48.1974359 C242.120513,39.5435436 235.105174,32.5282051 226.451282,32.5282051" id="Page-1-Copy-3" fill="#60C39C" sketch:type="MSShapeGroup" mask="url(#mask-2)"></path>
                <path d="M201.218031,47.4395462 C200.849431,40.7644538 195.3361,35.4615385 188.569231,35.4615385 C184.526569,35.4615385 180.933838,37.3590077 178.611062,40.3048231 C176.134577,33.1447308 169.337115,28 161.334615,28 C153.377631,28 146.611508,33.0857846 144.099954,40.1824538 C141.907008,38.6244846 139.232792,37.7 136.338462,37.7 C128.920946,37.7 122.907692,43.7132538 122.907692,51.1307692 C122.907692,51.6597923 122.946492,52.1798615 123.005438,52.6932154 C121.575808,52.1746385 120.039477,51.8769231 118.430769,51.8769231 C111.013254,51.8769231 105,57.8901769 105,65.3076923 C105,72.7252077 111.013254,78.7384615 118.430769,78.7384615 L202,78.7384615 C210.653892,78.7384615 217.669231,71.7231231 217.669231,63.0692308 C217.669231,54.4153385 210.653892,47.4 202,47.4 C201.735862,47.4 201.479185,47.4268615 201.218031,47.4395462 Z" id="Page-1-Copy-10" fill="#4BB38A" sketch:type="MSShapeGroup" mask="url(#mask-2)"></path>
                <path d="M339.120513,44.4666667 C338.856374,44.4666667 338.599697,44.4935282 338.338544,44.5062128 C337.969944,37.8311205 332.456613,32.5282051 325.689744,32.5282051 C321.647082,32.5282051 318.054351,34.4256744 315.731574,37.3714897 C313.25509,30.2113974 306.457628,25.0666667 298.455128,25.0666667 C290.498144,25.0666667 283.732021,30.1524513 281.220467,37.2491205 C279.027521,35.6911513 276.353305,34.7666667 273.458974,34.7666667 C266.041459,34.7666667 260.028205,40.7799205 260.028205,48.1974359 C260.028205,48.726459 260.067005,49.2465282 260.125951,49.7598821 C258.696321,49.2413051 257.15999,48.9435897 255.551282,48.9435897 C248.133767,48.9435897 242.120513,54.9568436 242.120513,62.374359 C242.120513,69.7918744 248.133767,75.8051282 255.551282,75.8051282 L339.120513,75.8051282 C347.774405,75.8051282 354.789744,68.7897897 354.789744,60.1358974 C354.789744,51.4820051 347.774405,44.4666667 339.120513,44.4666667" id="Page-1-Copy" fill="#60C39C" sketch:type="MSShapeGroup" mask="url(#mask-2)"></path>
                <path d="M11.9320513,94.4589744 C13.1094821,94.4589744 14.2436359,94.6343205 15.3218282,94.9424821 C15.655359,88.0286205 21.3507513,82.5205128 28.3474359,82.5205128 C31.369359,82.5205128 34.1443051,83.5569205 36.3566513,85.2805359 C36.2521897,84.6231744 36.1820513,83.9538744 36.1820513,83.2666667 C36.1820513,76.2610282 41.8610282,70.5820513 48.8666667,70.5820513 C53.6935359,70.5820513 57.889159,73.2786513 60.032859,77.2459513 C61.4542821,76.7967667 62.9659897,76.5512821 64.5358974,76.5512821 C72.5257128,76.5512821 79.0299359,82.8353897 79.4209205,90.7282051 L84.6820513,90.7282051 C92.5114436,90.7282051 98.8589744,97.0757359 98.8589744,104.905128 C98.8589744,112.734521 92.5114436,119.082051 84.6820513,119.082051 L11.9320513,119.082051 C5.13235128,119.082051 -0.379487179,113.570213 -0.379487179,106.770513 C-0.379487179,99.9708128 5.13235128,94.4589744 11.9320513,94.4589744" id="Page-1" fill="#4BB38A" sketch:type="MSShapeGroup" mask="url(#mask-2)"></path>
                <path d="M145.866667,83.2666667 C145.602528,83.2666667 145.345851,83.2935282 145.084697,83.3062128 C144.716097,76.6311205 139.202767,71.3282051 132.435897,71.3282051 C128.393236,71.3282051 124.800505,73.2256744 122.477728,76.1714897 C120.001244,69.0113974 113.203782,63.8666667 105.201282,63.8666667 C97.2442974,63.8666667 90.4781744,68.9524513 87.9666205,76.0491205 C85.7736744,74.4911513 83.099459,73.5666667 80.2051282,73.5666667 C72.7876128,73.5666667 66.774359,79.5799205 66.774359,86.9974359 C66.774359,87.526459 66.813159,88.0465282 66.8721051,88.5598821 C65.4424744,88.0413051 63.9061436,87.7435897 62.2974359,87.7435897 C54.8799205,87.7435897 48.8666667,93.7568436 48.8666667,101.174359 C48.8666667,108.591874 54.8799205,114.605128 62.2974359,114.605128 L145.866667,114.605128 C154.520559,114.605128 161.535897,107.58979 161.535897,98.9358974 C161.535897,90.2820051 154.520559,83.2666667 145.866667,83.2666667" id="Page-1-Copy-2" fill="#60C39C" sketch:type="MSShapeGroup" mask="url(#mask-2)"></path>
                <path d="M310.655629,64.3311258 C310.160967,64.3311258 309.680278,64.3814305 309.191205,64.4051854 C308.500914,51.9044834 298.175887,41.9735099 285.503311,41.9735099 C277.932464,41.9735099 271.204219,45.5269735 266.854265,51.0437152 C262.216457,37.6347351 249.486589,28 234.5,28 C219.598649,28 206.92747,37.5243444 202.223987,50.8145497 C198.117172,47.8968808 193.109066,46.1655629 187.688742,46.1655629 C173.797675,46.1655629 162.536424,57.4268146 162.536424,71.3178808 C162.536424,72.3086026 162.609086,73.2825563 162.719477,74.2439338 C160.042152,73.2727748 157.165007,72.7152318 154.152318,72.7152318 C140.261252,72.7152318 129,83.9764834 129,97.8675497 C129,111.758616 140.261252,123.019868 154.152318,123.019868 L310.655629,123.019868 C326.862106,123.019868 340,109.881974 340,93.6754967 C340,77.4690199 326.862106,64.3311258 310.655629,64.3311258" id="Page-1-Copy-9" fill="#60C39C" sketch:type="MSShapeGroup" mask="url(#mask-2)"></path>
            </g>
        </g>
    </g>
</svg>