<?xml version="1.0" encoding="UTF-8" standalone="no"?>
<svg width="228px" height="151px" viewBox="0 0 228 151" version="1.1" xmlns="http://www.w3.org/2000/svg" xmlns:xlink="http://www.w3.org/1999/xlink" xmlns:sketch="http://www.bohemiancoding.com/sketch/ns">
    <!-- Generator: Sketch 3.4.4 (17249) - http://www.bohemiancoding.com/sketch -->
    <title>bg3</title>
    <desc>Created with Sketch.</desc>
    <defs>
        <rect id="path-1" x="0" y="0" width="228" height="151"></rect>
    </defs>
    <g id="Welcome" stroke="none" stroke-width="1" fill="none" fill-rule="evenodd" sketch:type="MSPage">
        <g id="sample3-08" sketch:type="MSArtboardGroup" transform="translate(-796.000000, -83.000000)">
            <g id="bg3" sketch:type="MSLayerGroup" transform="translate(796.000000, 83.000000)">
                <mask id="mask-2" sketch:name="Mask" fill="white">
                    <use xlink:href="#path-1"></use>
                </mask>
                <use id="Mask" sketch:type="MSShapeGroup" xlink:href="#path-1"></use>
                <path d="M242.435966,41.5961451 C240.384756,41.5961451 238.408939,41.9016167 236.530613,42.438467 C235.949567,30.3937832 226.027586,20.7980725 213.838616,20.7980725 C208.574104,20.7980725 203.739852,22.6036052 199.885709,25.6063269 C200.067692,24.4611331 200.189881,23.2951411 200.189881,22.0979521 C200.189881,9.89338313 190.296498,0 178.091929,0 C169.683008,0 162.373785,4.69776463 158.639232,11.6092241 C156.162961,10.8266966 153.529405,10.3990363 150.794459,10.3990363 C136.875348,10.3990363 125.544299,21.3466217 124.863162,35.0967474 L115.697711,35.0967474 C102.058075,35.0967474 91,46.1548226 91,59.7944585 C91,73.4340945 102.058075,84.4921697 115.697711,84.4921697 L242.435966,84.4921697 C254.281768,84.4921697 263.883978,74.8899595 263.883978,63.0441574 C263.883978,51.1983552 254.281768,41.5961451 242.435966,41.5961451" id="Page-1" fill="#FFFFFF" sketch:type="MSShapeGroup" mask="url(#mask-2)"></path>
                <path d="M78.3443709,125.676471 C78.1310331,125.676471 77.9237219,125.698176 77.7127947,125.708426 C77.4150861,120.314515 72.9621126,116.029412 67.4966887,116.029412 C64.2315364,116.029412 61.3297815,117.562691 59.4537351,119.943103 C57.453543,114.157279 51.9634106,110 45.5,110 C39.073351,110 33.6085298,114.109647 31.5800132,119.844221 C29.8088278,118.585279 27.6489338,117.838235 25.3112583,117.838235 C19.3203245,117.838235 14.4635762,122.697338 14.4635762,128.691176 C14.4635762,129.118662 14.4949139,129.538912 14.5425232,129.953735 C13.3878477,129.534691 12.1469934,129.294118 10.8476821,129.294118 C4.85674834,129.294118 0,134.153221 0,140.147059 C0,146.140897 4.85674834,151 10.8476821,151 L78.3443709,151 C85.333894,151 91,145.331147 91,138.338235 C91,131.345324 85.333894,125.676471 78.3443709,125.676471" id="Page-1-Copy-5" fill="#FFFFFF" sketch:type="MSShapeGroup" mask="url(#mask-2)">
                    <g transform="translate(45.500000, 130.500000) scale(-1, 1) translate(-45.500000, -130.500000) "></g>
                </path>
            </g>
        </g>
    </g>
</svg>