<?xml version="1.0" encoding="UTF-8" standalone="no"?>
<svg width="253px" height="181px" viewBox="0 0 253 181" version="1.1" xmlns="http://www.w3.org/2000/svg" xmlns:xlink="http://www.w3.org/1999/xlink" xmlns:sketch="http://www.bohemiancoding.com/sketch/ns">
    <!-- Generator: Sketch 3.4.4 (17249) - http://www.bohemiancoding.com/sketch -->
    <title>building</title>
    <desc>Created with Sketch.</desc>
    <defs></defs>
    <g id="Welcome" stroke="none" stroke-width="1" fill="none" fill-rule="evenodd" sketch:type="MSPage">
        <g id="sample3-08" sketch:type="MSArtboardGroup" transform="translate(-771.000000, -335.000000)">
            <g id="building" sketch:type="MSLayerGroup" transform="translate(771.717949, 335.000000)">
                <path d="M161.971327,0.658854959 L128.955076,8.91679298 L128.955076,33.5679459 L161.971327,26.926293 L161.971327,0.658854959 Z" id="Fill-1" fill="#FFFFFF" sketch:type="MSShapeGroup"></path>
                <path d="M161.971327,0.658854959 L161.971327,26.926293 L176.561744,35.8267062 L176.561744,11.7252847 L161.971327,0.658854959 Z" id="Fill-2" fill="#EBEBE9" sketch:type="MSShapeGroup"></path>
                <path d="M79.3884317,33.2220264 L79.3884317,173.52844 L158.324395,180.252365 L158.324395,15.5483488 L79.3884317,33.2220264 Z" id="Fill-3" fill="#FFFFFF" sketch:type="MSShapeGroup"></path>
                <path d="M158.324544,180.252066 L189.845759,172.108562 L189.845759,36.3742686 L158.324544,15.5487975 L158.324544,180.252066 Z" id="Fill-4" fill="#EBEBE9" sketch:type="MSShapeGroup"></path>
                <path d="M174.23234,104.121222 L174.23234,175.949801 L231.694149,180.251917 L231.694149,100.902115 L174.23234,104.121222 Z" id="Fill-5" fill="#FFFFFF" sketch:type="MSShapeGroup"></path>
                <path d="M231.694373,180.252066 L263.216335,166.908178 L263.216335,110.885686 L231.694373,100.902264 L231.694373,180.252066 Z" id="Fill-6" fill="#EBEBE9" sketch:type="MSShapeGroup"></path>
                <path d="M0,113.881086 L0,162.905909 L38.7163562,165.804152 L38.7163562,111.712078 L0,113.881086 Z" id="Fill-7" fill="#FFFFFF" sketch:type="MSShapeGroup"></path>
                <path d="M150.435055,161.010046 L145.646758,160.771455 L145.646758,30.2106202 L150.435055,29.2472814 L150.435055,161.010046 Z" id="Fill-8" fill="#6FCFD4" sketch:type="MSShapeGroup"></path>
                <path d="M134.017139,32.5499331 L138.80245,31.5873421 L138.80245,160.430921 L134.017139,160.19233 L134.017139,32.5499331 Z" id="Fill-9" fill="#6FCFD4" sketch:type="MSShapeGroup"></path>
                <path d="M122.387222,34.889545 L127.168799,33.9277021 L127.168799,159.851347 L122.387222,159.613504 L122.387222,34.889545 Z" id="Fill-10" fill="#6FCFD4" sketch:type="MSShapeGroup"></path>
                <path d="M110.75738,37.2290822 L115.535969,36.2679872 L115.535969,159.271698 L110.75738,159.033855 L110.75738,37.2290822 Z" id="Fill-11" fill="#6FCFD4" sketch:type="MSShapeGroup"></path>
                <path d="M99.1275378,39.5686942 L103.90314,38.6075992 L103.90314,158.692872 L99.1275378,158.455029 L99.1275378,39.5686942 Z" id="Fill-12" fill="#6FCFD4" sketch:type="MSShapeGroup"></path>
                <path d="M92.2703107,158.113298 L87.4976955,157.875455 L87.4976955,41.9083062 L92.2703107,40.9479591 L92.2703107,158.113298 Z" id="Fill-13" fill="#6FCFD4" sketch:type="MSShapeGroup"></path>
                <path d="M225.698994,112.961876 L220.910697,113.136144 L220.910697,109.315698 L225.698994,109.110016 L225.698994,112.961876 Z" id="Fill-14" fill="#6FCFD4" sketch:type="MSShapeGroup"></path>
                <path d="M212.916212,109.658177 L217.701522,109.453243 L217.701522,113.253495 L212.916212,113.427764 L212.916212,109.658177 Z" id="Fill-15" fill="#6FCFD4" sketch:type="MSShapeGroup"></path>
                <path d="M204.921503,110.00103 L209.703079,109.796096 L209.703079,113.545488 L204.921503,113.719757 L204.921503,110.00103 Z" id="Fill-16" fill="#6FCFD4" sketch:type="MSShapeGroup"></path>
                <path d="M196.926794,110.343733 L201.705383,110.138799 L201.705383,113.836584 L196.926794,114.010853 L196.926794,110.343733 Z" id="Fill-17" fill="#6FCFD4" sketch:type="MSShapeGroup"></path>
                <path d="M188.932159,110.686511 L193.707761,110.481577 L193.707761,114.128503 L188.932159,114.302771 L188.932159,110.686511 Z" id="Fill-18" fill="#6FCFD4" sketch:type="MSShapeGroup"></path>
                <path d="M185.710065,114.419973 L180.93745,114.594241 L180.93745,111.029588 L185.710065,110.824655 L185.710065,114.419973 Z" id="Fill-19" fill="#6FCFD4" sketch:type="MSShapeGroup"></path>
                <path d="M225.698994,119.062922 L220.910697,119.188575 L220.910697,115.376356 L225.698994,115.21929 L225.698994,119.062922 Z" id="Fill-20" fill="#6FCFD4" sketch:type="MSShapeGroup"></path>
                <path d="M212.916212,115.637609 L217.701522,115.481291 L217.701522,119.273316 L212.916212,119.398969 L212.916212,115.637609 Z" id="Fill-21" fill="#6FCFD4" sketch:type="MSShapeGroup"></path>
                <path d="M204.921503,115.899087 L209.703079,115.742769 L209.703079,119.483934 L204.921503,119.609587 L204.921503,115.899087 Z" id="Fill-22" fill="#6FCFD4" sketch:type="MSShapeGroup"></path>
                <path d="M196.926794,116.16049 L201.705383,116.004171 L201.705383,119.693729 L196.926794,119.82013 L196.926794,116.16049 Z" id="Fill-23" fill="#6FCFD4" sketch:type="MSShapeGroup"></path>
                <path d="M188.932159,116.421967 L193.707761,116.265649 L193.707761,119.904348 L188.932159,120.03 L188.932159,116.421967 Z" id="Fill-24" fill="#6FCFD4" sketch:type="MSShapeGroup"></path>
                <path d="M185.710065,120.114891 L180.93745,120.240544 L180.93745,116.68337 L185.710065,116.527052 L185.710065,120.114891 Z" id="Fill-25" fill="#6FCFD4" sketch:type="MSShapeGroup"></path>
                <path d="M225.698994,125.163968 L220.910697,125.241005 L220.910697,121.437014 L225.698994,121.329311 L225.698994,125.163968 Z" id="Fill-26" fill="#6FCFD4" sketch:type="MSShapeGroup"></path>
                <path d="M212.916212,121.617041 L217.701522,121.509339 L217.701522,125.293136 L212.916212,125.370174 L212.916212,121.617041 Z" id="Fill-27" fill="#6FCFD4" sketch:type="MSShapeGroup"></path>
                <path d="M204.921503,121.797144 L209.703079,121.689441 L209.703079,125.422379 L204.921503,125.499417 L204.921503,121.797144 Z" id="Fill-28" fill="#6FCFD4" sketch:type="MSShapeGroup"></path>
                <path d="M196.926794,121.977321 L201.705383,121.869619 L201.705383,125.551697 L196.926794,125.628734 L196.926794,121.977321 Z" id="Fill-29" fill="#6FCFD4" sketch:type="MSShapeGroup"></path>
                <path d="M188.932159,122.157424 L193.707761,122.049721 L193.707761,125.68094 L188.932159,125.757977 L188.932159,122.157424 Z" id="Fill-30" fill="#6FCFD4" sketch:type="MSShapeGroup"></path>
                <path d="M185.710065,125.809734 L180.93745,125.886771 L180.93745,122.337825 L185.710065,122.230123 L185.710065,125.809734 Z" id="Fill-31" fill="#6FCFD4" sketch:type="MSShapeGroup"></path>
                <path d="M225.698994,131.311985 L220.910697,131.340406 L220.910697,127.544642 L225.698994,127.485555 L225.698994,131.311985 Z" id="Fill-32" fill="#6FCFD4" sketch:type="MSShapeGroup"></path>
                <path d="M212.916212,127.643294 L217.701522,127.584207 L217.701522,131.359778 L212.916212,131.388199 L212.916212,127.643294 Z" id="Fill-33" fill="#6FCFD4" sketch:type="MSShapeGroup"></path>
                <path d="M204.921503,127.742171 L209.703079,127.683084 L209.703079,131.407795 L204.921503,131.436217 L204.921503,127.742171 Z" id="Fill-34" fill="#6FCFD4" sketch:type="MSShapeGroup"></path>
                <path d="M196.926794,127.840973 L201.705383,127.781886 L201.705383,131.455738 L196.926794,131.484159 L196.926794,127.840973 Z" id="Fill-35" fill="#6FCFD4" sketch:type="MSShapeGroup"></path>
                <path d="M188.932159,127.939775 L193.707761,127.880688 L193.707761,131.50368 L188.932159,131.532102 L188.932159,127.939775 Z" id="Fill-36" fill="#6FCFD4" sketch:type="MSShapeGroup"></path>
                <path d="M185.710065,131.551473 L180.93745,131.579895 L180.93745,128.038428 L185.710065,127.979341 L185.710065,131.551473 Z" id="Fill-37" fill="#6FCFD4" sketch:type="MSShapeGroup"></path>
                <path d="M225.698994,137.366136 L220.910697,137.345941 L220.910697,133.558404 L225.698994,133.547933 L225.698994,137.366136 Z" id="Fill-38" fill="#6FCFD4" sketch:type="MSShapeGroup"></path>
                <path d="M212.916212,133.575831 L217.701522,133.56536 L217.701522,137.332703 L212.916212,137.312509 L212.916212,133.575831 Z" id="Fill-39" fill="#6FCFD4" sketch:type="MSShapeGroup"></path>
                <path d="M204.921503,133.593333 L209.703079,133.582862 L209.703079,137.299345 L204.921503,137.279899 L204.921503,133.593333 Z" id="Fill-40" fill="#6FCFD4" sketch:type="MSShapeGroup"></path>
                <path d="M196.926794,133.610834 L201.705383,133.600363 L201.705383,137.265987 L196.926794,137.246541 L196.926794,133.610834 Z" id="Fill-41" fill="#6FCFD4" sketch:type="MSShapeGroup"></path>
                <path d="M188.932159,133.628336 L193.707761,133.617865 L193.707761,137.232629 L188.932159,137.213183 L188.932159,133.628336 Z" id="Fill-42" fill="#6FCFD4" sketch:type="MSShapeGroup"></path>
                <path d="M185.710065,137.199421 L180.93745,137.179227 L180.93745,133.645987 L185.710065,133.635516 L185.710065,137.199421 Z" id="Fill-43" fill="#6FCFD4" sketch:type="MSShapeGroup"></path>
                <path d="M225.698994,143.403383 L220.910697,143.334573 L220.910697,139.555263 L225.698994,139.593408 L225.698994,143.403383 Z" id="Fill-44" fill="#6FCFD4" sketch:type="MSShapeGroup"></path>
                <path d="M212.916212,139.49139 L217.701522,139.529534 L217.701522,143.28865 L212.916212,143.220588 L212.916212,139.49139 Z" id="Fill-45" fill="#6FCFD4" sketch:type="MSShapeGroup"></path>
                <path d="M204.921503,139.427591 L209.703079,139.465736 L209.703079,143.173992 L204.921503,143.10593 L204.921503,139.427591 Z" id="Fill-46" fill="#6FCFD4" sketch:type="MSShapeGroup"></path>
                <path d="M196.926794,139.363792 L201.705383,139.401937 L201.705383,143.059333 L196.926794,142.991271 L196.926794,139.363792 Z" id="Fill-47" fill="#6FCFD4" sketch:type="MSShapeGroup"></path>
                <path d="M188.932159,139.299993 L193.707761,139.338138 L193.707761,142.945423 L188.932159,142.876613 L188.932159,139.299993 Z" id="Fill-48" fill="#6FCFD4" sketch:type="MSShapeGroup"></path>
                <path d="M185.710065,142.83054 L180.93745,142.762479 L180.93745,139.23597 L185.710065,139.274115 L185.710065,142.83054 Z" id="Fill-49" fill="#6FCFD4" sketch:type="MSShapeGroup"></path>
                <path d="M225.698994,149.52036 L220.910697,149.402935 L220.910697,145.631852 L225.698994,145.718612 L225.698994,149.52036 Z" id="Fill-50" fill="#6FCFD4" sketch:type="MSShapeGroup"></path>
                <path d="M212.916212,145.486753 L217.701522,145.573513 L217.701522,149.324402 L212.916212,149.207724 L212.916212,145.486753 Z" id="Fill-51" fill="#6FCFD4" sketch:type="MSShapeGroup"></path>
                <path d="M204.921503,145.341654 L209.703079,145.428414 L209.703079,149.128443 L204.921503,149.011765 L204.921503,145.341654 Z" id="Fill-52" fill="#6FCFD4" sketch:type="MSShapeGroup"></path>
                <path d="M196.926794,145.19648 L201.705383,145.28324 L201.705383,148.933157 L196.926794,148.815732 L196.926794,145.19648 Z" id="Fill-53" fill="#6FCFD4" sketch:type="MSShapeGroup"></path>
                <path d="M188.932159,145.051381 L193.707761,145.138141 L193.707761,148.737199 L188.932159,148.620521 L188.932159,145.051381 Z" id="Fill-54" fill="#6FCFD4" sketch:type="MSShapeGroup"></path>
                <path d="M185.710065,148.541315 L180.93745,148.424637 L180.93745,144.906356 L185.710065,144.993117 L185.710065,148.541315 Z" id="Fill-55" fill="#6FCFD4" sketch:type="MSShapeGroup"></path>
                <path d="M225.698994,155.669274 L220.910697,155.503233 L220.910697,151.740378 L225.698994,151.875754 L225.698994,155.669274 Z" id="Fill-56" fill="#6FCFD4" sketch:type="MSShapeGroup"></path>
                <path d="M212.916212,151.513978 L217.701522,151.649354 L217.701522,155.392015 L212.916212,155.226722 L212.916212,151.513978 Z" id="Fill-57" fill="#6FCFD4" sketch:type="MSShapeGroup"></path>
                <path d="M204.921503,151.287579 L209.703079,151.422955 L209.703079,155.115504 L204.921503,154.949463 L204.921503,151.287579 Z" id="Fill-58" fill="#6FCFD4" sketch:type="MSShapeGroup"></path>
                <path d="M196.926794,151.061104 L201.705383,151.19648 L201.705383,154.83817 L196.926794,154.672877 L196.926794,151.061104 Z" id="Fill-59" fill="#6FCFD4" sketch:type="MSShapeGroup"></path>
                <path d="M188.932159,150.83463 L193.707761,150.970006 L193.707761,154.560836 L188.932159,154.395543 L188.932159,150.83463 Z" id="Fill-60" fill="#6FCFD4" sketch:type="MSShapeGroup"></path>
                <path d="M185.710065,154.284026 L180.93745,154.118733 L180.93745,150.607931 L185.710065,150.743307 L185.710065,154.284026 Z" id="Fill-61" fill="#6FCFD4" sketch:type="MSShapeGroup"></path>
                <path d="M225.698994,161.770321 L220.910697,161.555664 L220.910697,157.801036 L225.698994,157.985775 L225.698994,161.770321 Z" id="Fill-62" fill="#6FCFD4" sketch:type="MSShapeGroup"></path>
                <path d="M212.916212,157.49341 L217.701522,157.677402 L217.701522,161.411836 L212.916212,161.197927 L212.916212,157.49341 Z" id="Fill-63" fill="#6FCFD4" sketch:type="MSShapeGroup"></path>
                <path d="M204.921503,157.185636 L209.703079,157.369627 L209.703079,161.05395 L204.921503,160.839293 L204.921503,157.185636 Z" id="Fill-64" fill="#6FCFD4" sketch:type="MSShapeGroup"></path>
                <path d="M196.926794,156.877861 L201.705383,157.061852 L201.705383,160.695315 L196.926794,160.481406 L196.926794,156.877861 Z" id="Fill-65" fill="#6FCFD4" sketch:type="MSShapeGroup"></path>
                <path d="M188.932159,156.570086 L193.707761,156.754078 L193.707761,160.337429 L188.932159,160.12352 L188.932159,156.570086 Z" id="Fill-66" fill="#6FCFD4" sketch:type="MSShapeGroup"></path>
                <path d="M185.710065,159.978869 L180.93745,159.76496 L180.93745,156.262386 L185.710065,156.446378 L185.710065,159.978869 Z" id="Fill-67" fill="#6FCFD4" sketch:type="MSShapeGroup"></path>
                <path d="M225.698994,167.871367 L220.910697,167.608094 L220.910697,163.861693 L225.698994,164.095049 L225.698994,167.871367 Z" id="Fill-68" fill="#6FCFD4" sketch:type="MSShapeGroup"></path>
                <path d="M212.916212,163.472843 L217.701522,163.70545 L217.701522,167.431657 L212.916212,167.169132 L212.916212,163.472843 Z" id="Fill-69" fill="#6FCFD4" sketch:type="MSShapeGroup"></path>
                <path d="M204.921503,163.083693 L209.703079,163.3163 L209.703079,166.992395 L204.921503,166.72987 L204.921503,163.083693 Z" id="Fill-70" fill="#6FCFD4" sketch:type="MSShapeGroup"></path>
                <path d="M196.926794,162.694617 L201.705383,162.927225 L201.705383,166.55246 L196.926794,166.289936 L196.926794,162.694617 Z" id="Fill-71" fill="#6FCFD4" sketch:type="MSShapeGroup"></path>
                <path d="M188.932159,162.305542 L193.707761,162.53815 L193.707761,166.113274 L188.932159,165.850749 L188.932159,162.305542 Z" id="Fill-72" fill="#6FCFD4" sketch:type="MSShapeGroup"></path>
                <path d="M185.710065,165.673713 L180.93745,165.411188 L180.93745,161.916093 L185.710065,162.1487 L185.710065,165.673713 Z" id="Fill-73" fill="#6FCFD4" sketch:type="MSShapeGroup"></path>
                <path d="M86.1721019,80.0623583 L30.5301749,86.6800773 L30.5301749,173.137495 L86.1721019,178.394722 L86.1721019,80.0623583 Z" id="Fill-74" fill="#FFFFFF" sketch:type="MSShapeGroup"></path>
                <path d="M86.1721019,80.0623583 L116.694884,86.6800773 L116.694884,173.137495 L86.1721019,178.394722 L86.1721019,80.0623583 Z" id="Fill-75" fill="#EBEBE9" sketch:type="MSShapeGroup"></path>
                <path d="M81.1938259,160.060843 L34.8768318,157.557508 L34.8768318,154.763975 L81.1938259,156.941959 L81.1938259,160.060843 Z" id="Fill-76" fill="#6FCFD4" sketch:type="MSShapeGroup"></path>
                <path d="M34.8781759,147.990462 L81.1936765,149.410788 L81.1936765,152.520697 L34.8781759,150.777263 L34.8781759,147.990462 Z" id="Fill-77" fill="#6FCFD4" sketch:type="MSShapeGroup"></path>
                <path d="M34.8798935,141.217247 L81.1939006,141.879917 L81.1939006,144.98085 L34.8798935,143.997317 L34.8798935,141.217247 Z" id="Fill-78" fill="#6FCFD4" sketch:type="MSShapeGroup"></path>
                <path d="M34.8816111,134.443958 L81.1941246,134.348222 L81.1941246,137.440929 L34.8816111,137.216549 L34.8816111,134.443958 Z" id="Fill-79" fill="#6FCFD4" sketch:type="MSShapeGroup"></path>
                <path d="M34.8833287,127.761019 L81.1936019,126.907626 L81.1936019,129.991358 L34.8833287,130.526879 L34.8833287,127.761019 Z" id="Fill-80" fill="#6FCFD4" sketch:type="MSShapeGroup"></path>
                <path d="M34.8850462,120.969705 L81.1938259,119.358655 L81.1938259,122.432663 L34.8850462,123.728085 L34.8850462,120.969705 Z" id="Fill-81" fill="#6FCFD4" sketch:type="MSShapeGroup"></path>
                <path d="M34.8867638,114.17839 L81.1940499,111.808936 L81.1940499,114.874717 L34.8867638,116.930039 L34.8867638,114.17839 Z" id="Fill-82" fill="#6FCFD4" sketch:type="MSShapeGroup"></path>
                <path d="M34.8884814,107.351025 L81.1935272,104.223914 L81.1935272,107.280719 L34.8884814,110.095195 L34.8884814,107.351025 Z" id="Fill-83" fill="#6FCFD4" sketch:type="MSShapeGroup"></path>
                <path d="M34.890199,100.577736 L81.1937512,96.6929674 L81.1937512,99.7407979 L34.890199,103.315174 L34.890199,100.577736 Z" id="Fill-84" fill="#6FCFD4" sketch:type="MSShapeGroup"></path>
                <path d="M81.1938259,92.2008017 L34.8917672,96.5350785 L34.8917672,93.8043719 L81.1938259,89.1619463 L81.1938259,92.2008017 Z" id="Fill-85" fill="#6FCFD4" sketch:type="MSShapeGroup"></path>
            </g>
        </g>
    </g>
</svg>