<?xml version="1.0" encoding="UTF-8" standalone="no"?>
<svg width="61px" height="61px" viewBox="0 0 61 61" version="1.1" xmlns="http://www.w3.org/2000/svg" xmlns:xlink="http://www.w3.org/1999/xlink" xmlns:sketch="http://www.bohemiancoding.com/sketch/ns">
    <!-- Generator: Sketch 3.4.4 (17249) - http://www.bohemiancoding.com/sketch -->
    <title>num2</title>
    <desc>Created with Sketch.</desc>
    <defs></defs>
    <g id="Welcome" stroke="none" stroke-width="1" fill="none" fill-rule="evenodd" sketch:type="MSPage">
        <g id="sample3-08" sketch:type="MSArtboardGroup" transform="translate(-325.000000, -497.000000)">
            <g id="num2" sketch:type="MSLayerGroup" transform="translate(325.000000, 497.000000)">
                <circle id="Oval-5-Copy" fill="#71CFD4" sketch:type="MSShapeGroup" cx="30.5" cy="30.5" r="30.5"></circle>
                <path d="M23.988,23.072 C21.924,23.072 20.196,23.84 18.852,25.352 C17.676,26.696 17.076,28.448 17.076,30.632 C17.076,33.08 17.604,34.688 18.852,36.128 C20.148,37.64 21.9,38.408 24.012,38.408 C26.076,38.408 27.828,37.616 29.124,36.128 C30.348,34.712 30.9,33.032 30.9,30.728 C30.9,28.424 30.348,26.768 29.124,25.352 C27.804,23.84 26.076,23.072 23.988,23.072 L23.988,23.072 Z M23.988,25.16 C25.74,25.16 26.484,26.816 26.484,30.752 C26.484,34.664 25.74,36.32 23.988,36.32 C22.212,36.32 21.492,34.664 21.492,30.656 C21.492,26.84 22.26,25.16 23.988,25.16 L23.988,25.16 Z M34.524,38 C34.932,37.304 35.268,37.064 35.892,37.064 C36.444,37.064 37.092,37.232 38.1,37.64 C39.684,38.312 40.188,38.432 41.172,38.432 C42.9,38.432 44.292,37.712 44.892,36.56 C45.228,35.888 45.372,35 45.372,33.752 C45.372,33.56 45.372,33.272 45.348,32.888 L43.26,32.888 C43.236,34.4 42.876,34.928 41.964,34.928 C41.796,34.928 41.628,34.904 41.508,34.88 C39.108,34.376 39.108,34.376 38.244,34.376 C37.164,34.376 36.54,34.544 35.268,35.168 C36.276,33.992 36.9,33.632 39.108,32.984 C41.7,32.24 42.204,32.024 43.212,31.328 C44.388,30.512 45.012,29.312 45.012,27.896 C45.012,24.992 42.516,23.072 38.7,23.072 C35.172,23.072 32.484,25.088 32.484,27.752 C32.484,29.336 33.468,30.392 34.956,30.392 C36.252,30.392 37.188,29.552 37.188,28.4 C37.188,27.512 36.492,26.792 35.58,26.792 C35.412,26.792 35.1,26.84 34.788,26.912 C35.1,26.288 35.316,26 35.652,25.784 C36.132,25.472 36.852,25.28 37.572,25.28 C39.3,25.28 40.428,26.168 40.428,27.536 C40.428,28.664 39.852,29.48 38.484,30.272 C35.268,32.12 35.076,32.24 34.14,33.2 C33.084,34.304 32.46,35.744 32.46,37.112 C32.46,37.376 32.46,37.592 32.508,38 L34.524,38 Z" id="02" fill="#FFFFFF" sketch:type="MSShapeGroup"></path>
            </g>
        </g>
    </g>
</svg>