<?xml version="1.0" encoding="UTF-8" standalone="no"?>
<svg width="61px" height="61px" viewBox="0 0 61 61" version="1.1" xmlns="http://www.w3.org/2000/svg" xmlns:xlink="http://www.w3.org/1999/xlink" xmlns:sketch="http://www.bohemiancoding.com/sketch/ns">
    <!-- Generator: Sketch 3.4.4 (17249) - http://www.bohemiancoding.com/sketch -->
    <title>num3</title>
    <desc>Created with Sketch.</desc>
    <defs></defs>
    <g id="Welcome" stroke="none" stroke-width="1" fill="none" fill-rule="evenodd" sketch:type="MSPage">
        <g id="sample3-08" sketch:type="MSArtboardGroup" transform="translate(-396.000000, -497.000000)">
            <g id="num3" sketch:type="MSLayerGroup" transform="translate(396.000000, 497.000000)">
                <circle id="Oval-5-Copy" fill="#71CFD4" sketch:type="MSShapeGroup" cx="30.5" cy="30.5" r="30.5"></circle>
                <path d="M23.988,23.072 C21.924,23.072 20.196,23.84 18.852,25.352 C17.676,26.696 17.076,28.448 17.076,30.632 C17.076,33.08 17.604,34.688 18.852,36.128 C20.148,37.64 21.9,38.408 24.012,38.408 C26.076,38.408 27.828,37.616 29.124,36.128 C30.348,34.712 30.9,33.032 30.9,30.728 C30.9,28.424 30.348,26.768 29.124,25.352 C27.804,23.84 26.076,23.072 23.988,23.072 L23.988,23.072 Z M23.988,25.16 C25.74,25.16 26.484,26.816 26.484,30.752 C26.484,34.664 25.74,36.32 23.988,36.32 C22.212,36.32 21.492,34.664 21.492,30.656 C21.492,26.84 22.26,25.16 23.988,25.16 L23.988,25.16 Z M37.74,31.4 C39.108,31.472 39.54,31.544 39.972,31.784 C40.62,32.144 41.004,32.84 41.004,33.68 C41.004,35.384 39.828,36.392 37.86,36.392 C36.684,36.392 36.132,36.224 35.196,35.624 C36.516,35.528 37.164,34.952 37.164,33.848 C37.164,32.744 36.228,31.88 35.004,31.88 C33.564,31.88 32.556,32.936 32.556,34.448 C32.556,35.624 33.156,36.68 34.284,37.424 C35.268,38.12 36.588,38.432 38.46,38.432 C40.236,38.432 41.82,38.216 42.78,37.808 C44.532,37.088 45.564,35.6 45.564,33.848 C45.564,32.744 45.156,31.904 44.34,31.256 C43.74,30.776 43.188,30.536 41.916,30.152 C42.972,29.912 43.452,29.696 43.932,29.288 C44.58,28.712 44.964,27.848 44.964,26.912 C44.964,24.488 42.708,23.072 38.868,23.072 C35.292,23.072 33.06,24.608 33.06,27.056 C33.06,28.424 33.876,29.264 35.22,29.264 C36.42,29.264 37.284,28.496 37.284,27.44 C37.284,26.84 37.02,26.288 36.564,26.048 C36.324,25.904 36.012,25.856 35.412,25.856 C36.204,25.232 36.78,25.04 37.788,25.04 C39.564,25.04 40.668,25.88 40.668,27.248 C40.668,28.016 40.284,28.664 39.66,28.976 C39.18,29.216 38.796,29.312 37.74,29.408 L37.74,31.4 Z" id="03" fill="#FFFFFF" sketch:type="MSShapeGroup"></path>
            </g>
        </g>
    </g>
</svg>