<?xml version="1.0" encoding="UTF-8" standalone="no"?>
<svg width="155px" height="131px" viewBox="0 0 155 131" version="1.1" xmlns="http://www.w3.org/2000/svg" xmlns:xlink="http://www.w3.org/1999/xlink" xmlns:sketch="http://www.bohemiancoding.com/sketch/ns">
    <!-- Generator: Sketch 3.5.1 (25234) - http://www.bohemiancoding.com/sketch -->
    <title>illust2</title>
    <desc>Created with Sketch.</desc>
    <defs>
        <filter x="-50%" y="-50%" width="200%" height="200%" filterUnits="objectBoundingBox" id="filter-1">
            <feGaussianBlur stdDeviation="6" in="SourceGraphic" result="blur"></feGaussianBlur>
        </filter>
    </defs>
    <g id="Welcome" stroke="none" stroke-width="1" fill="none" fill-rule="evenodd" sketch:type="MSPage">
        <g id="sample3-06" sketch:type="MSArtboardGroup" transform="translate(-435.000000, -203.000000)">
            <g id="feature2" sketch:type="MSLayerGroup" transform="translate(395.000000, 203.000000)">
                <g id="illust2" transform="translate(40.000000, 0.000000)" sketch:type="MSShapeGroup">
                    <path d="M101.9451,28.1479 L47.3751,82.7219 C34.1231,95.9699 37.4551,114.6709 43.0881,117.2999 C48.7191,119.9249 75.4331,115.2389 88.6871,101.9789 L143.2571,47.4169 L101.9451,28.1479 Z" id="Fill-1" fill-opacity="0.2" fill="#000000" filter="url(#filter-1)"></path>
                    <path d="M36.104,66.597 C28.502,74.2 26.059,83.49 26.356,90.85 L26.356,90.85 C26.622,83.927 29.29,75.761 36.104,68.95 L36.104,68.95 L93.904,11.146 L93.904,8.792 L36.104,66.597 Z" id="Fill-6"></path>
                    <path d="M94.06,11.042 L136.211,30.7 L137.817,29.095 L94.06,8.689 L94.06,11.042 Z" id="Fill-9"></path>
                    <path d="M35.088,77.164 L68.033,92.523 L71.249,77.904 L38.3,62.533 L35.088,77.164 Z" id="Fill-12"></path>
                    <path d="M78.4631,27.6766 L92.2971,13.8386 L119.4101,26.4776 L105.5751,40.3156 L78.4631,27.6766 Z" id="Fill-15" fill="#EEEEEF"></path>
                    <path d="M105.575,40.315 L105.575,49.707 L119.41,35.87 L119.41,26.477 L105.575,40.315 Z" id="Fill-17"></path>
                    <path d="M71.249,77.904 L68.033,92.523 L109.072,51.488 L109.072,40.08 L71.249,77.904 Z" id="Fill-20"></path>
                    <path d="M99.1602,30.8511 L86.4872,24.9401 L85.2532,32.1141 L97.9232,38.0211 L99.1602,30.8511 Z" id="Fill-23" fill="#FFFFFF"></path>
                    <path d="M99.16,30.851 L97.923,38.021 L110.381,25.566 L110.381,19.63 L99.16,30.851 Z" id="Fill-25"></path>
                    <path d="M86.4874,24.9401 L97.7124,13.7191 L110.3804,19.6301 L99.1604,30.8511 L86.4874,24.9401 Z" id="Fill-28" fill="#EEEEEF"></path>
                    <path d="M38.3008,62.5336 L76.1228,24.7166 L109.0718,40.0806 L71.2498,77.9046 L38.3008,62.5336 Z" id="Fill-30" fill="#EEEEEF"></path>
                    <path d="M107.68,48.4609 C107.68,48.7799 107.495,49.2259 107.268,49.4489 L105.768,50.9499 C105.545,51.1769 105.36,51.1019 105.36,50.7829 L105.36,47.3419 C105.36,47.0189 105.545,46.5729 105.768,46.3499 L107.268,44.8439 C107.495,44.6209 107.68,44.6929 107.68,45.0189 L107.68,48.4609 Z" id="Fill-32" fill="#6AA1D1"></path>
                    <path d="M103.7509,52.3925 C103.7509,52.7065 103.5649,53.1535 103.3389,53.3765 L101.8389,54.8815 C101.6139,55.1125 101.4289,55.0335 101.4289,54.7145 L101.4289,51.2725 C101.4289,50.9505 101.6139,50.5005 101.8389,50.2815 L103.3389,48.7795 C103.5649,48.5525 103.7509,48.6285 103.7509,48.9465 L103.7509,52.3925 Z" id="Fill-34" fill="#6AA1D1"></path>
                    <path d="M99.8193,56.3237 C99.8193,56.6427 99.6363,57.0847 99.4113,57.3117 L97.9073,58.8167 C97.6823,59.0397 97.4973,58.9607 97.4973,58.6417 L97.4973,55.2007 C97.4973,54.8817 97.6823,54.4317 97.9073,54.2127 L99.4113,52.7067 C99.6363,52.4837 99.8193,52.5557 99.8193,52.8747 L99.8193,56.3237 Z" id="Fill-36" fill="#6AA1D1"></path>
                    <path d="M95.8878,60.2511 C95.8878,60.5741 95.7028,61.0161 95.4778,61.2431 L93.9778,62.7441 C93.7508,62.9721 93.5678,62.8961 93.5678,62.5771 L93.5678,59.1321 C93.5678,58.8131 93.7508,58.3631 93.9778,58.1401 L95.4778,56.6341 C95.7028,56.4111 95.8878,56.4871 95.8878,56.8101 L95.8878,60.2511 Z" id="Fill-38" fill="#6AA1D1"></path>
                    <path d="M91.9562,64.1867 C91.9562,64.5007 91.7752,64.9517 91.5462,65.1747 L90.0462,66.6717 C89.8212,66.9027 89.6382,66.8237 89.6382,66.5047 L89.6382,63.0637 C89.6382,62.7447 89.8212,62.2947 90.0462,62.0677 L91.5462,60.5697 C91.7752,60.3387 91.9562,60.4227 91.9562,60.7367 L91.9562,64.1867 Z" id="Fill-40" fill="#6AA1D1"></path>
                    <path d="M88.0271,68.1138 C88.0271,68.4328 87.8431,68.8788 87.6171,69.1058 L86.1171,70.6078 C85.8921,70.8388 85.7071,70.7588 85.7071,70.4318 L85.7071,66.9908 C85.7071,66.6718 85.8921,66.2258 86.1171,66.0028 L87.6171,64.5008 C87.8431,64.2658 88.0271,64.3538 88.0271,64.6648 L88.0271,68.1138 Z" id="Fill-42" fill="#6AA1D1"></path>
                    <path d="M84.0976,72.0454 C84.0976,72.3684 83.9146,72.8064 83.6876,73.0334 L82.1856,74.5354 C81.9606,74.7664 81.7756,74.6864 81.7756,74.3714 L81.7756,70.9224 C81.7756,70.5994 81.9606,70.1614 82.1856,69.9304 L83.6876,68.4324 C83.9146,68.2054 84.0976,68.2814 84.0976,68.6044 L84.0976,72.0454 Z" id="Fill-44" fill="#6AA1D1"></path>
                    <path d="M80.166,75.9769 C80.166,76.2959 79.981,76.7379 79.756,76.9649 L78.256,78.4699 C78.029,78.6929 77.846,78.6139 77.846,78.3029 L77.846,74.8539 C77.846,74.5269 78.029,74.0889 78.256,73.8619 L79.756,72.3639 C79.981,72.1369 80.166,72.2129 80.166,72.5319 L80.166,75.9769 Z" id="Fill-46" fill="#6AA1D1"></path>
                    <path d="M76.2349,79.9044 C76.2349,80.2234 76.0509,80.6694 75.8249,80.9004 L74.3249,82.4014 C74.0999,82.6204 73.9149,82.5494 73.9149,82.2304 L73.9149,78.7884 C73.9149,78.4624 74.0999,78.0164 74.3249,77.7934 L75.8249,76.2954 C76.0509,76.0644 76.2349,76.1444 76.2349,76.4624 L76.2349,79.9044 Z" id="Fill-48" fill="#6AA1D1"></path>
                    <path d="M47.49,57.758 L73.964,70.106 L76.545,58.347 L50.073,46.007 L47.49,57.758 Z" id="Fill-51"></path>
                    <path d="M76.545,58.347 L73.964,70.106 L105.021,39.045 L105.021,29.871 L76.545,58.347 Z" id="Fill-54"></path>
                    <path d="M101.609,12.389 C99.251,14.078 95.603,14.464 94.996,13.185 L94.996,13.185 L93.002,24.586 C92.901,25.382 93.142,25.996 93.771,26.282 L93.771,26.282 C95.342,27.023 98.73,25.502 101.339,22.893 L101.339,22.893 C102.917,21.315 103.848,19.698 103.99,18.512 L103.99,18.512 L105.157,7.888 C104.699,9.306 103.641,10.924 101.609,12.389" id="Fill-57"></path>
                    <path d="M96.055,7.119 L94.996,13.185 C95.603,14.464 99.251,14.078 101.609,12.389 L101.609,12.389 C103.641,10.924 104.699,9.306 105.157,7.888 L105.157,7.888 L105.826,1.778 L96.055,7.119 Z" id="Fill-60"></path>
                    <path d="M50.073,46.0071 L78.549,17.5271 L105.021,29.8711 L76.545,58.3471 L50.073,46.0071 Z" id="Fill-63" fill="#FFFFFF"></path>
                    <path d="M103.3185,38.009 C103.3185,38.32 103.1375,38.77 102.9105,38.997 L101.4085,40.498 C101.1855,40.725 100.9985,40.646 100.9985,40.327 L100.9985,36.886 C100.9985,36.559 101.1855,36.121 101.4085,35.894 L102.9105,34.388 C103.1375,34.169 103.3185,34.241 103.3185,34.567 L103.3185,38.009 Z" id="Fill-65" fill="#6AA1D1"></path>
                    <path d="M99.389,41.9365 C99.389,42.2555 99.206,42.7015 98.979,42.9245 L97.477,44.4255 C97.254,44.6525 97.067,44.5775 97.067,44.2585 L97.067,40.8175 C97.067,40.4985 97.254,40.0485 97.477,39.8255 L98.979,38.3195 C99.206,38.0965 99.389,38.1685 99.389,38.4945 L99.389,41.9365 Z" id="Fill-67" fill="#6AA1D1"></path>
                    <path d="M95.4595,45.8676 C95.4595,46.1826 95.2745,46.6286 95.0475,46.8516 L93.5475,48.3576 C93.3225,48.5886 93.1375,48.5086 93.1375,48.1896 L93.1375,44.7486 C93.1375,44.4256 93.3225,43.9756 93.5475,43.7566 L95.0475,42.2546 C95.2745,42.0276 95.4595,42.1036 95.4595,42.4226 L95.4595,45.8676 Z" id="Fill-69" fill="#6AA1D1"></path>
                    <path d="M91.5263,49.7992 C91.5263,50.1182 91.3453,50.5602 91.1183,50.7872 L89.6183,52.2922 C89.3913,52.5152 89.2083,52.4362 89.2083,52.1172 L89.2083,48.6762 C89.2083,48.3572 89.3913,47.9072 89.6183,47.6882 L91.1183,46.1822 C91.3453,45.9592 91.5263,46.0312 91.5263,46.3502 L91.5263,49.7992 Z" id="Fill-71" fill="#6AA1D1"></path>
                    <path d="M87.5988,53.7267 C87.5988,54.0497 87.4158,54.4917 87.1868,54.7187 L85.6868,56.2197 C85.4618,56.4477 85.2768,56.3717 85.2768,56.0527 L85.2768,52.6077 C85.2768,52.2887 85.4618,51.8387 85.6868,51.6157 L87.1868,50.1097 C87.4158,49.8867 87.5988,49.9667 87.5988,50.2847 L87.5988,53.7267 Z" id="Fill-73" fill="#6AA1D1"></path>
                    <path d="M83.6673,57.6619 C83.6673,57.9769 83.4823,58.4269 83.2573,58.6499 L81.7553,60.1479 C81.5303,60.3789 81.3453,60.2989 81.3453,59.9799 L81.3453,56.5389 C81.3453,56.2199 81.5303,55.7699 81.7553,55.5429 L83.2573,54.0449 C83.4823,53.8139 83.6673,53.8979 83.6673,54.2129 L83.6673,57.6619 Z" id="Fill-75" fill="#6AA1D1"></path>
                    <path d="M59.254,47.724 L69.983,52.723 L71.031,46.648 L60.3,41.65 L59.254,47.724 Z" id="Fill-78"></path>
                    <path d="M71.031,46.648 L69.983,52.723 L77.292,45.418 L77.292,40.391 L71.031,46.648 Z" id="Fill-81"></path>
                    <path d="M60.2998,41.6497 L66.5618,35.3877 L77.2918,40.3907 L71.0308,46.6487 L60.2998,41.6497 Z" id="Fill-84" fill="#FFFFFF"></path>
                    <path d="M72.1402,29.1225 L69.9072,28.0785 L67.1232,30.8625 L69.3592,31.9065 L72.1402,29.1225 Z" id="Fill-86" fill="#FFFFFF"></path>
                    <path d="M65.563,42.47 L67.794,43.522 L69.359,31.907 L67.123,30.863 L65.563,42.47 Z" id="Fill-89"></path>
                    <path d="M69.359,31.907 L67.794,43.522 L72.138,39.172 L72.14,29.122 L69.359,31.907 Z" id="Fill-92"></path>
                    <path d="M82.5999,94.5306 C77.0099,100.3696 63.5919,106.3926 51.7959,107.6516 C57.0459,108.0656 61.5629,108.0696 63.7779,108.0696 C68.7779,107.4756 78.7779,103.0626 83.7809,98.0676 L133.4949,48.3496 L134.8119,42.2866 C120.1509,56.8816 87.8059,89.1056 82.5999,94.5306" id="Fill-95" fill="#717071"></path>
                    <path d="M104.271,0.248 C102.703,0.258 100.298,1.521 98.371,3.451 L98.371,3.451 C96.039,5.781 95.287,8.198 96.691,8.86 L96.691,8.86 C98.095,9.509 101.124,8.151 103.458,5.821 L103.458,5.821 C105.788,3.487 106.541,1.065 105.134,0.412 L105.134,0.412 C104.902,0.303 104.624,0.25 104.313,0.248 L104.313,0.248 L104.271,0.248 Z" id="Fill-97"></path>
                    <path d="M93.9042,8.7922 L36.1042,66.5962 C22.0672,80.6292 25.5962,100.4372 31.5632,103.2222 C37.5282,106.0022 65.8222,101.0392 79.8612,86.9942 L137.6612,29.2022 L93.9042,8.7922 Z" id="Fill-100" fill="#EEEEEF"></path>
                    <path d="M36.104,66.5965 C28.502,74.2005 26.058,83.4895 26.355,90.8505 C26.622,83.9275 29.291,75.7615 36.104,68.9505 L93.904,11.1455 L93.904,8.7925 L36.104,66.5965 Z" id="Fill-102" fill="#C8C9CA"></path>
                    <path d="M94.06,11.042 L136.211,30.7 L137.817,29.095 L94.06,8.689 L94.06,11.042 Z" id="Fill-105"></path>
                    <path d="M71.2498,77.9046 L38.3008,62.5336 L35.0888,77.1636 L68.0328,92.5226 L71.2498,77.9046 Z" id="Fill-108" fill="#E5E5E6"></path>
                    <path d="M78.4631,27.6766 L92.2971,13.8386 L119.4101,26.4776 L105.5751,40.3156 L78.4631,27.6766 Z" id="Fill-110" fill="#FFFFFF"></path>
                    <path d="M105.5749,40.3152 L105.5749,49.7072 L119.4109,35.8702 L119.4109,26.4772 L105.5749,40.3152 Z" id="Fill-112" fill="#C8C9CA"></path>
                    <path d="M109.0721,51.4882 L109.0721,40.0802 L71.2501,77.9042 L68.0331,92.5232 L109.0721,51.4882 Z" id="Fill-114" fill="#C8C9CA"></path>
                    <path d="M99.1602,30.8511 L86.4872,24.9401 L85.2532,32.1141 L97.9232,38.0211 L99.1602,30.8511 Z" id="Fill-116" fill="#FFFFFF"></path>
                    <path d="M110.3806,25.5654 L110.3806,19.6304 L99.1606,30.8514 L97.9236,38.0204 L110.3806,25.5654 Z" id="Fill-118" fill="#C8C9CA"></path>
                    <path d="M86.4874,24.9401 L97.7124,13.7191 L110.3804,19.6301 L99.1604,30.8511 L86.4874,24.9401 Z" id="Fill-120" fill="#FFFFFF"></path>
                    <path d="M38.3008,62.5336 L76.1228,24.7166 L109.0718,40.0806 L71.2498,77.9046 L38.3008,62.5336 Z" id="Fill-122" fill="#FFFFFF"></path>
                    <path d="M107.68,48.4609 C107.68,48.7799 107.495,49.2259 107.268,49.4489 L105.768,50.9499 C105.545,51.1769 105.36,51.1019 105.36,50.7829 L105.36,47.3419 C105.36,47.0189 105.545,46.5729 105.768,46.3499 L107.268,44.8439 C107.495,44.6209 107.68,44.6929 107.68,45.0189 L107.68,48.4609 Z" id="Fill-124" fill="#6AA1D1"></path>
                    <path d="M103.7509,52.3925 C103.7509,52.7065 103.5649,53.1535 103.3389,53.3765 L101.8389,54.8815 C101.6139,55.1125 101.4289,55.0335 101.4289,54.7145 L101.4289,51.2725 C101.4289,50.9505 101.6139,50.5005 101.8389,50.2815 L103.3389,48.7795 C103.5649,48.5525 103.7509,48.6285 103.7509,48.9465 L103.7509,52.3925 Z" id="Fill-126" fill="#6AA1D1"></path>
                    <path d="M99.8193,56.3237 C99.8193,56.6427 99.6363,57.0847 99.4113,57.3117 L97.9073,58.8167 C97.6823,59.0397 97.4973,58.9607 97.4973,58.6417 L97.4973,55.2007 C97.4973,54.8817 97.6823,54.4317 97.9073,54.2127 L99.4113,52.7067 C99.6363,52.4837 99.8193,52.5557 99.8193,52.8747 L99.8193,56.3237 Z" id="Fill-128" fill="#6AA1D1"></path>
                    <path d="M95.8878,60.2511 C95.8878,60.5741 95.7028,61.0161 95.4778,61.2431 L93.9778,62.7441 C93.7508,62.9721 93.5678,62.8961 93.5678,62.5771 L93.5678,59.1321 C93.5678,58.8131 93.7508,58.3631 93.9778,58.1401 L95.4778,56.6341 C95.7028,56.4111 95.8878,56.4871 95.8878,56.8101 L95.8878,60.2511 Z" id="Fill-130" fill="#6AA1D1"></path>
                    <path d="M91.9562,64.1867 C91.9562,64.5007 91.7752,64.9517 91.5462,65.1747 L90.0462,66.6717 C89.8212,66.9027 89.6382,66.8237 89.6382,66.5047 L89.6382,63.0637 C89.6382,62.7447 89.8212,62.2947 90.0462,62.0677 L91.5462,60.5697 C91.7752,60.3387 91.9562,60.4227 91.9562,60.7367 L91.9562,64.1867 Z" id="Fill-132" fill="#6AA1D1"></path>
                    <path d="M88.0271,68.1138 C88.0271,68.4328 87.8431,68.8788 87.6171,69.1058 L86.1171,70.6078 C85.8921,70.8388 85.7071,70.7588 85.7071,70.4318 L85.7071,66.9908 C85.7071,66.6718 85.8921,66.2258 86.1171,66.0028 L87.6171,64.5008 C87.8431,64.2658 88.0271,64.3538 88.0271,64.6648 L88.0271,68.1138 Z" id="Fill-134" fill="#6AA1D1"></path>
                    <path d="M84.0976,72.0454 C84.0976,72.3684 83.9146,72.8064 83.6876,73.0334 L82.1856,74.5354 C81.9606,74.7664 81.7756,74.6864 81.7756,74.3714 L81.7756,70.9224 C81.7756,70.5994 81.9606,70.1614 82.1856,69.9304 L83.6876,68.4324 C83.9146,68.2054 84.0976,68.2814 84.0976,68.6044 L84.0976,72.0454 Z" id="Fill-136" fill="#6AA1D1"></path>
                    <path d="M80.166,75.9769 C80.166,76.2959 79.981,76.7379 79.756,76.9649 L78.256,78.4699 C78.029,78.6929 77.846,78.6139 77.846,78.3029 L77.846,74.8539 C77.846,74.5269 78.029,74.0889 78.256,73.8619 L79.756,72.3639 C79.981,72.1369 80.166,72.2129 80.166,72.5319 L80.166,75.9769 Z" id="Fill-138" fill="#6AA1D1"></path>
                    <path d="M76.2349,79.9044 C76.2349,80.2234 76.0509,80.6694 75.8249,80.9004 L74.3249,82.4014 C74.0999,82.6204 73.9149,82.5494 73.9149,82.2304 L73.9149,78.7884 C73.9149,78.4624 74.0999,78.0164 74.3249,77.7934 L75.8249,76.2954 C76.0509,76.0644 76.2349,76.1444 76.2349,76.4624 L76.2349,79.9044 Z" id="Fill-140" fill="#6AA1D1"></path>
                    <path d="M76.5453,58.3471 L50.0733,46.0071 L47.4903,57.7581 L73.9643,70.1051 L76.5453,58.3471 Z" id="Fill-142" fill="#E5E5E6"></path>
                    <path d="M105.0214,39.0446 L105.0214,29.8716 L76.5454,58.3476 L73.9644,70.1056 L105.0214,39.0446 Z" id="Fill-144" fill="#C8C9CA"></path>
                    <path d="M101.6095,12.3889 C99.2515,14.0779 95.6035,14.4639 94.9955,13.1859 L93.0025,24.5859 C92.9005,25.3819 93.1415,25.9959 93.7705,26.2829 C95.3425,27.0229 98.7295,25.5019 101.3385,22.8929 C102.9165,21.3149 103.8485,19.6979 103.9895,18.5109 L105.1565,7.8879 C104.6985,9.3059 103.6415,10.9229 101.6095,12.3889" id="Fill-146" fill="#E5E5E6"></path>
                    <path d="M96.055,7.119 L94.996,13.185 C95.603,14.464 99.252,14.078 101.61,12.389 C103.641,10.923 104.699,9.306 105.157,7.888 L105.826,1.778 L96.055,7.119 Z" id="Fill-148" fill="#C26660"></path>
                    <path d="M50.073,46.0071 L78.549,17.5271 L105.021,29.8711 L76.545,58.3471 L50.073,46.0071 Z" id="Fill-150" fill="#FFFFFF"></path>
                    <path d="M103.3185,38.009 C103.3185,38.32 103.1375,38.77 102.9105,38.997 L101.4085,40.498 C101.1855,40.725 100.9985,40.646 100.9985,40.327 L100.9985,36.886 C100.9985,36.559 101.1855,36.121 101.4085,35.894 L102.9105,34.388 C103.1375,34.169 103.3185,34.241 103.3185,34.567 L103.3185,38.009 Z" id="Fill-152" fill="#6AA1D1"></path>
                    <path d="M99.389,41.9365 C99.389,42.2555 99.206,42.7015 98.979,42.9245 L97.477,44.4255 C97.254,44.6525 97.067,44.5775 97.067,44.2585 L97.067,40.8175 C97.067,40.4985 97.254,40.0485 97.477,39.8255 L98.979,38.3195 C99.206,38.0965 99.389,38.1685 99.389,38.4945 L99.389,41.9365 Z" id="Fill-154" fill="#6AA1D1"></path>
                    <path d="M95.4595,45.8676 C95.4595,46.1826 95.2745,46.6286 95.0475,46.8516 L93.5475,48.3576 C93.3225,48.5886 93.1375,48.5086 93.1375,48.1896 L93.1375,44.7486 C93.1375,44.4256 93.3225,43.9756 93.5475,43.7566 L95.0475,42.2546 C95.2745,42.0276 95.4595,42.1036 95.4595,42.4226 L95.4595,45.8676 Z" id="Fill-156" fill="#6AA1D1"></path>
                    <path d="M91.5263,49.7992 C91.5263,50.1182 91.3453,50.5602 91.1183,50.7872 L89.6183,52.2922 C89.3913,52.5152 89.2083,52.4362 89.2083,52.1172 L89.2083,48.6762 C89.2083,48.3572 89.3913,47.9072 89.6183,47.6882 L91.1183,46.1822 C91.3453,45.9592 91.5263,46.0312 91.5263,46.3502 L91.5263,49.7992 Z" id="Fill-158" fill="#6AA1D1"></path>
                    <path d="M87.5988,53.7267 C87.5988,54.0497 87.4158,54.4917 87.1868,54.7187 L85.6868,56.2197 C85.4618,56.4477 85.2768,56.3717 85.2768,56.0527 L85.2768,52.6077 C85.2768,52.2887 85.4618,51.8387 85.6868,51.6157 L87.1868,50.1097 C87.4158,49.8867 87.5988,49.9667 87.5988,50.2847 L87.5988,53.7267 Z" id="Fill-160" fill="#6AA1D1"></path>
                    <path d="M83.6673,57.6619 C83.6673,57.9769 83.4823,58.4269 83.2573,58.6499 L81.7553,60.1479 C81.5303,60.3789 81.3453,60.2989 81.3453,59.9799 L81.3453,56.5389 C81.3453,56.2199 81.5303,55.7699 81.7553,55.5429 L83.2573,54.0449 C83.4823,53.8139 83.6673,53.8979 83.6673,54.2129 L83.6673,57.6619 Z" id="Fill-162" fill="#6AA1D1"></path>
                    <path d="M71.0307,46.6483 L60.2997,41.6493 L59.2547,47.7243 L69.9827,52.7233 L71.0307,46.6483 Z" id="Fill-164" fill="#E5E5E6"></path>
                    <path d="M77.2921,45.4178 L77.2921,40.3908 L71.0311,46.6488 L69.9831,52.7228 L77.2921,45.4178 Z" id="Fill-166" fill="#C8C9CA"></path>
                    <path d="M60.2998,41.6497 L66.5618,35.3877 L77.2918,40.3907 L71.0308,46.6487 L60.2998,41.6497 Z" id="Fill-168" fill="#FFFFFF"></path>
                    <path d="M72.1402,29.1225 L69.9072,28.0785 L67.1232,30.8625 L69.3592,31.9065 L72.1402,29.1225 Z" id="Fill-170" fill="#FFFFFF"></path>
                    <path d="M65.5635,42.47 L67.7945,43.522 L69.3595,31.907 L67.1235,30.863 L65.5635,42.47 Z" id="Fill-172" fill="#E5E5E6"></path>
                    <path d="M69.3596,31.9067 L67.7946,43.5217 L72.1376,39.1717 L72.1406,29.1227 L69.3596,31.9067 Z" id="Fill-174" fill="#C8C9CA"></path>
                    <path d="M134.8117,42.2869 L137.6617,29.2019 L79.8617,86.9939 C65.8227,101.0389 37.5277,106.0019 31.5627,103.2219 C37.3867,105.9229 45.1757,107.1169 51.7957,107.6509 C63.5917,106.3929 77.0097,100.3699 82.5997,94.5309 C87.8057,89.1059 120.1517,56.8809 134.8117,42.2869" id="Fill-176" fill="#C8C9CA"></path>
                    <path d="M82.5999,94.5306 C77.0099,100.3696 63.5919,106.3926 51.7959,107.6516 C57.0459,108.0656 61.5629,108.0696 63.7779,108.0696 C68.7779,107.4756 78.7779,103.0626 83.7809,98.0676 L133.4949,48.3496 L134.8119,42.2866 C120.1509,56.8816 87.8059,89.1056 82.5999,94.5306" id="Fill-178" fill="#717071"></path>
                    <path d="M105.1348,0.4115 C106.5408,1.0645 105.7878,3.4865 103.4578,5.8205 C101.1238,8.1515 98.0948,9.5095 96.6908,8.8595 C95.2868,8.1985 96.0388,5.7805 98.3718,3.4505 C100.7018,1.1165 103.7308,-0.2415 105.1348,0.4115" id="Fill-180" fill="#8A4642"></path>
                    <path d="M53.9744,60.785 L55.3984,54.3 L51.9014,52.671 L50.4774,59.152" id="Fill-183" fill="#6AA1D1"></path>
                    <path d="M70.3435,68.4128 L71.7695,61.9398 L68.2705,60.3068 L66.8445,66.7758" id="Fill-185" fill="#6AA1D1"></path>
                    <path d="M64.5361,90.898 L65.9601,84.413 L62.4611,82.784 L61.0351,89.265" id="Fill-187" fill="#6AA1D1"></path>
                    <path d="M42.0868,80.4261 L43.5088,73.9451 L40.0118,72.3161 L38.5858,78.7971" id="Fill-189" fill="#6AA1D1"></path>
                    <path d="M27.9652,9.0241 L42.8402,9.0241" id="Stroke-191" stroke="#FFFFFF" stroke-width="1.98" stroke-linecap="round"></path>
                    <path d="M37.8652,16.1465 L52.7402,16.1465" id="Stroke-193" stroke="#FFFFFF" stroke-width="1.98" stroke-linecap="round"></path>
                    <path d="M27.9652,23.2689 L38.8802,23.2689" id="Stroke-195" stroke="#FFFFFF" stroke-width="1.98" stroke-linecap="round"></path>
                    <path d="M142.6513,99.053 L153.5663,99.053" id="Stroke-197" stroke="#FFFFFF" stroke-width="1.98" stroke-linecap="round"></path>
                    <path d="M10.4076,74.0706 L21.3226,74.0706" id="Stroke-199" stroke="#FFFFFF" stroke-width="1.98" stroke-linecap="round"></path>
                    <path d="M0.99,80.3398 L15.865,80.3398" id="Stroke-201" stroke="#FFFFFF" stroke-width="1.98" stroke-linecap="round"></path>
                    <path d="M122.8513,106.1754 L139.7063,106.1754" id="Stroke-203" stroke="#FFFFFF" stroke-width="1.98" stroke-linecap="round"></path>
                    <path d="M132.7513,113.2977 L143.6663,113.2977" id="Stroke-205" stroke="#FFFFFF" stroke-width="1.98" stroke-linecap="round"></path>
                </g>
            </g>
        </g>
    </g>
</svg>