<?xml version="1.0" encoding="UTF-8" standalone="no"?>
<svg width="202px" height="145px" viewBox="0 0 202 145" version="1.1" xmlns="http://www.w3.org/2000/svg" xmlns:xlink="http://www.w3.org/1999/xlink" xmlns:sketch="http://www.bohemiancoding.com/sketch/ns">
    <!-- Generator: Sketch 3.5.1 (25234) - http://www.bohemiancoding.com/sketch -->
    <title>illust1</title>
    <desc>Created with Sketch.</desc>
    <defs>
        <filter x="-50%" y="-50%" width="200%" height="200%" filterUnits="objectBoundingBox" id="filter-1">
            <feGaussianBlur stdDeviation="6" in="SourceGraphic" result="blur"></feGaussianBlur>
        </filter>
    </defs>
    <g id="Welcome" stroke="none" stroke-width="1" fill="none" fill-rule="evenodd" sketch:type="MSPage">
        <g id="sample3-06" sketch:type="MSArtboardGroup" transform="translate(-126.000000, -206.000000)">
            <g id="feature1" sketch:type="MSLayerGroup" transform="translate(100.000000, 206.000000)">
                <g id="illust1" transform="translate(26.000000, 0.000000)" sketch:type="MSShapeGroup">
                    <path d="M176.771093,94.872 L118.143093,87.898 C126.091093,78.378 134.087093,68.087 139.156093,60.901 L161.883093,62.54 L163.987093,60.425 L142.620093,55.743 C142.873093,55.337 143.111093,54.948 143.316093,54.595 C145.578093,50.689 147.162093,44.505 145.940093,42.685 C144.744093,40.866 139.757093,40.424 135.186093,42.45 C133.078093,43.389 129.549093,45.566 125.255093,48.485 L115.134093,40 L113.017093,42.115 L120.402093,51.867 C111.518093,58.195 100.766093,66.52 92.3170934,73.721 L67.5080934,45.733 L62.4530934,50.807 L72.5740934,69.054 L66.3870934,75.233 C65.8940934,75.795 65.5880934,76.592 65.5880934,77.604 C65.5880934,80.418 67.8730934,83.914 70.6840934,85.211 C72.5020934,86.056 74.0760934,86 74.9800934,85 L74.9900934,85 L79.0260934,80.828 L80.9320934,84.194 C70.0390934,94.684 68.4120934,96.806 68.4120934,96.806 C61.5380934,103.681 62.0900934,109.928 59.5920934,117.391 C55.3530934,130.136 59.7200934,137.502 71.0090934,132.329 C74.8150934,130.578 78.7990934,127.781 82.1500934,124.674 C85.1100934,121.95 84.6470934,123.315 101.779093,106.194 C103.470093,104.504 105.331093,102.537 107.299093,100.383 L124.190093,100.261 L120.729093,103.713 C120.236093,104.274 119.930093,105.071 119.930093,106.084 C119.930093,108.897 122.222093,112.239 125.046093,113.557 C126.844093,114.391 128.439093,114.189 129.343093,113.185 L139.029093,103.506 L139.019093,103.497 C139.187093,103.33 139.314093,103.153 139.432093,102.945 C139.679093,102.456 139.825093,101.845 139.825093,101.138 C139.825093,100.815 139.787093,100.483 139.729093,100.149 L171.716093,99.919 L176.771093,94.872 Z" id="Fill-1" fill-opacity="0.1" fill="#000000" filter="url(#filter-1)"></path>
                    <path d="M77.9238,44.2159 C76.1208,43.3699 74.5298,43.5759 73.6248,44.5699 L63.9378,54.2449 C63.4458,54.8059 63.1398,55.6029 63.1398,56.6159 C63.1398,59.4289 65.4238,62.7829 68.2348,64.0799 C70.0528,64.9249 71.6268,64.7199 72.5318,63.7269 L72.5418,63.7269 L82.2398,54.0419 L82.2208,54.0289 C82.3768,53.8619 82.5138,53.6849 82.6208,53.4709 C82.8758,52.9869 83.0168,52.3879 83.0168,51.6809 C83.0168,48.8669 80.7448,45.5129 77.9238,44.2159" id="Fill-1" fill="#CACAC7"></path>
                    <path d="M71.7633,60.6291 C71.7633,62.5761 70.1713,63.4201 68.2343,62.5071 C66.2863,61.6011 64.7133,59.2911 64.7133,57.3431 C64.7133,55.3981 66.2863,54.5601 68.2343,55.4651 C70.1713,56.3701 71.7633,58.6801 71.7633,60.6291" id="Fill-3" fill="#243447"></path>
                    <path d="M84.1953,75.7037 L60.0033,32.0897 L60.0033,29.8187 L84.1953,73.4327 L84.1953,75.7037 Z" id="Fill-5" fill="#DCDCDA"></path>
                    <path d="M65.0587,24.7442 L96.9197,60.6862 L84.1957,73.4322 L60.0037,29.8182 L65.0587,24.7442 Z" id="Fill-7" fill="#EEEEED"></path>
                    <path d="M122.714,39.4367 L110.568,23.3997 L110.568,21.1267 L122.714,37.1657 L122.714,39.4367 Z" id="Fill-9" fill="#DCDCDA"></path>
                    <path d="M112.6848,19.0118 L128.0158,31.8638 L122.7138,37.1658 L110.5678,21.1268 L112.6848,19.0118 Z" id="Fill-11" fill="#EEEEED"></path>
                    <path d="M132.7369,21.4611 C124.5539,25.1091 95.0299,47.3141 81.9519,59.8111 C67.9199,73.1851 65.9629,75.7821 65.9629,75.7821 C59.0899,82.6561 59.6409,88.9211 57.1429,96.3851 C52.9039,109.1301 57.2709,116.5041 68.5599,111.3311 C72.3659,109.5811 76.3499,106.7871 79.7009,103.6811 C82.6609,100.9571 82.1979,102.3241 99.3299,85.2031 C112.3689,72.1721 135.3989,43.0051 140.8669,33.6071 C143.1289,29.7001 144.7129,23.5161 143.4919,21.6971 C142.2949,19.8771 137.3079,19.4351 132.7369,21.4611" id="Fill-13" fill="#FFFFFF"></path>
                    <path d="M137.3883,27.4613 C132.5163,32.7623 110.9523,58.1953 97.4123,70.0163 C83.8723,81.8373 76.2063,89.2163 74.0573,94.3743 C71.9083,99.5323 68.4693,100.4633 65.4603,104.1173 C63.0463,107.0493 63.5983,112.4273 68.6563,111.2843 C72.4333,109.5303 76.3783,106.7613 79.7003,103.6803 C82.6613,100.9573 82.1983,102.3243 99.3293,85.2033 C112.3683,72.1723 135.3993,43.0053 140.8673,33.6063 C142.6363,30.5513 143.9843,26.1103 143.9053,23.4463 C143.2963,22.8263 139.1923,25.4983 137.3883,27.4613" id="Fill-15" fill="#EEEEED"></path>
                    <path d="M60.2845,84.7372 C59.7415,86.2862 59.3455,87.8462 58.9695,89.4382 C59.5685,95.7592 70.1205,95.9362 77.8125,92.4122 L79.4145,87.3752 C71.8875,92.9092 61.7785,88.5432 60.2845,84.7372" id="Fill-17" fill="#6AA1D1"></path>
                    <path d="M131.8906,43.1649 C131.8906,43.7349 131.5456,44.5409 131.1296,44.9539 L129.5286,46.5669 C129.1276,46.9779 128.7826,46.8399 128.7826,46.2519 L128.7826,38.5899 C128.7826,37.9999 129.1276,37.1939 129.5286,36.7819 L131.1296,35.1779 C131.5456,34.7649 131.8906,34.9029 131.8906,35.4829 L131.8906,43.1649 Z" id="Fill-19" fill="#CACAC7"></path>
                    <path d="M115.4188,61.3558 C115.4188,61.9468 115.0738,62.7528 114.6678,63.1658 L113.0668,64.7778 C112.6558,65.1928 112.3108,65.0548 112.3108,64.4618 L112.3108,56.7938 C112.3108,56.2048 112.6558,55.3988 113.0668,54.9948 L114.6678,53.3718 C115.0738,52.9588 115.4188,53.1148 115.4188,53.6848 L115.4188,61.3558 Z" id="Fill-21" fill="#CACAC7"></path>
                    <path d="M118.6527,51.591 C118.3077,51.935 117.9057,52.328 117.4817,52.761 L117.4817,57.835 C118.1327,57.148 118.7307,56.508 119.2927,55.907 C121.2707,53.774 123.8637,50.893 126.7277,47.679 L126.7277,43.027 C123.2367,46.802 120.2947,49.939 118.6527,51.591" id="Fill-23" fill="#6AA1D1"></path>
                    <path d="M96.0757,80.6989 C96.0757,81.2909 95.7507,82.0969 95.3367,82.5089 L93.7247,84.1009 C93.3107,84.5339 92.9857,84.3779 92.9857,83.8069 L92.9857,76.1259 C92.9857,75.5469 93.3107,74.7409 93.7247,74.3269 L95.3367,72.7149 C95.7507,72.2999 96.0757,72.4399 96.0757,73.0289 L96.0757,80.6989 Z" id="Fill-25" fill="#CACAC7"></path>
                    <path d="M90.9024,79.3413 C88.0314,82.2143 86.1224,84.1013 86.1224,84.1013 L86.1224,89.0573 C86.1224,89.0573 87.9984,87.2583 90.9024,84.4153 L90.9024,79.3413 Z" id="Fill-27" fill="#6AA1D1"></path>
                    <path d="M98.141,72.1059 L98.141,77.3269 C102.004,73.5389 106.303,69.2629 110.246,65.2799 L110.246,60.0089 C106.449,63.8069 102.103,68.1619 98.141,72.1059" id="Fill-29" fill="#6AA1D1"></path>
                    <path d="M132.2722,72.6845 C130.4652,71.8375 128.8682,72.0465 127.9772,73.0495 L118.2802,82.7245 C117.7872,83.2855 117.4812,84.0825 117.4812,85.0955 C117.4812,87.9085 119.7732,91.2505 122.5972,92.5685 C124.3952,93.4025 125.9892,93.2005 126.8932,92.1965 L136.5802,82.5175 L136.5702,82.5085 C136.7382,82.3415 136.8652,82.1645 136.9832,81.9565 C137.2302,81.4675 137.3762,80.8565 137.3762,80.1495 C137.3762,77.3465 135.0842,73.9915 132.2722,72.6845" id="Fill-31" fill="#CACAC7"></path>
                    <path d="M126.1079,89.0973 C126.1079,91.0643 124.5339,91.8913 122.5969,90.9953 C120.6499,90.0903 119.0759,87.7703 119.0759,85.8333 C119.0759,83.8853 120.6499,83.0383 122.5969,83.9453 C124.5339,84.8483 126.1079,87.1583 126.1079,89.0973" id="Fill-33" fill="#243447"></path>
                    <path d="M121.4962,32.0426 L123.5102,33.2406 L131.2812,5.4916 L129.2842,4.3006 L121.4962,32.0426 Z" id="Fill-38" fill="#DB94A0"></path>
                    <path d="M131.2812,5.4912 L123.5102,33.2402 L133.5332,24.4592 L136.5402,0.8872 L131.2812,5.4912 Z" id="Fill-40" fill="#C24C60"></path>
                    <path d="M174.322,73.8834 L113.726,66.6754 L100.982,79.4204 L169.267,78.9304 L174.322,73.8834 Z" id="Fill-42" fill="#EEEEED"></path>
                    <path d="M161.5375,39.4367 L138.4215,34.3707 L133.1185,39.6537 L159.4345,41.5517 L161.5375,39.4367 Z" id="Fill-44" fill="#EEEEED"></path>
                    <path d="M169.2672,81.2013 L100.9822,81.6933 L100.9822,79.4203 L169.2672,78.9303 L169.2672,81.2013 Z" id="Fill-46" fill="#DCDCDA"></path>
                    <path d="M174.322,76.1546 L169.267,81.2016 L169.267,78.9306 L174.322,73.8836 L174.322,76.1546 Z" id="Fill-48" fill="#CACAC7"></path>
                    <path d="M161.5375,41.7078 L159.4345,43.8238 L159.4345,41.5518 L161.5375,39.4368 L161.5375,41.7078 Z" id="Fill-50" fill="#CACAC7"></path>
                    <path d="M159.4344,43.8241 L133.1184,41.9241 L133.1184,39.6531 L159.4344,41.5521 L159.4344,43.8241 Z" id="Fill-52" fill="#DCDCDA"></path>
                    <path d="M4.65722921,88.354774 C3.81639377,87.135799 3.324,85.6580236 3.324,84.0654 C3.324,79.8884 6.711,76.5014 10.888,76.5014 C11.7943467,76.5014 12.6634512,76.6608685 13.4688023,76.9532741 C13.4688008,76.9513829 13.4688,76.9494915 13.4688,76.9476 C13.4688,73.1616 16.5378,70.0936 20.3228,70.0936 C23.6317492,70.0936 26.3930042,72.4371506 27.0363259,75.5553479 C28.1744704,75.0573121 29.4318579,74.781 30.7539,74.781 C35.8779,74.781 40.0319,78.935 40.0319,84.061 C40.0319,85.7071918 39.6033124,87.253201 38.8516567,88.5935412 C38.9125754,88.5906579 38.9738674,88.5892 39.0355,88.5892 C41.1465,88.5892 42.8595,90.3012 42.8595,92.4132 C42.8595,93.8508309 42.0657854,95.1026594 40.8931061,95.7555127 L50.1916,99.3302 L5.57955428,99.3302 C5.56019319,99.3303998 5.54080826,99.3305 5.5214,99.3305 C2.4724,99.3305 0.0004,96.8585 0.0004,93.8095 C0.0004,91.0544875 2.01867691,88.7697532 4.65722921,88.354774 L4.65722921,88.354774 Z" id="Fill-54" fill="#FFFFFF"></path>
                    <path d="M192.38216,23.3444264 C193.391804,22.4560655 194.029,21.1543327 194.029,19.7035 C194.029,17.0255 191.858,14.8555 189.181,14.8555 C188.876992,14.8555 188.57953,14.8834646 188.291046,14.9369625 C188.498141,14.3299337 188.6105,13.6790054 188.6105,13.0018 C188.6105,9.6948 185.9295,7.0128 182.6215,7.0128 C180.723341,7.0128 179.031093,7.89639925 177.933735,9.27461608 C176.483375,7.89488398 174.521285,7.0481 172.3613,7.0481 C167.8953,7.0481 164.2753,10.6681 164.2753,15.1341 C164.2753,16.3078329 164.52534,17.423131 164.975064,18.4296375 C162.68389,18.9092642 160.9624,20.9411239 160.9624,23.3754 C160.9624,26.1654 163.2254,28.4284 166.0154,28.4284 C166.191195,28.4284 166.364891,28.4194221 166.536055,28.4019 L201.3011,28.4019 L193.632724,25.9766741 L197.2024,25.2291 L192.38216,23.3444264 L192.38216,23.3444264 Z" id="Fill-66" fill="#FFFFFF"></path>
                </g>
            </g>
        </g>
    </g>
</svg>