<?xml version="1.0" encoding="UTF-8" standalone="no"?>
<svg width="142px" height="165px" viewBox="0 0 142 165" version="1.1" xmlns="http://www.w3.org/2000/svg" xmlns:xlink="http://www.w3.org/1999/xlink" xmlns:sketch="http://www.bohemiancoding.com/sketch/ns">
    <!-- Generator: Sketch 3.4.4 (17249) - http://www.bohemiancoding.com/sketch -->
    <title>logo</title>
    <desc>Created with Sketch.</desc>
    <defs></defs>
    <g id="Welcome" stroke="none" stroke-width="1" fill="none" fill-rule="evenodd" sketch:type="MSPage">
        <g id="sample3-01b" sketch:type="MSArtboardGroup" transform="translate(-44.000000, -35.000000)">
            <g id="logo" sketch:type="MSLayerGroup" transform="translate(43.000000, 36.000000)">
                <path d="M19.544,127.016 C19.544,133.172 19.364,135.332 19.364,135.98 C19.364,136.664 19.724,136.988 20.48,136.988 C21.632,136.988 22.136,136.592 22.136,135.728 C22.136,134.576 21.992,130.796 21.992,126.44 L21.992,119.168 C22.676,118.736 23.324,118.268 23.972,117.8 C24.8,122.732 25.844,126.116 27.068,128.492 C28.328,131.012 30.092,133.388 32.324,135.008 C32.9,135.476 33.368,135.728 33.584,135.728 C33.836,135.728 34.016,135.62 34.16,135.08 C34.52,133.748 34.808,133.46 35.6,133.208 C35.78,133.136 35.852,132.848 35.672,132.776 C33.224,131.624 30.992,130.076 29.048,127.628 C28.148,126.512 27.356,125.216 26.672,123.668 C29.048,122.336 30.956,120.86 32.648,119.204 C33.836,119.348 34.16,119.096 34.16,118.772 C34.16,118.34 33.26,117.656 30.992,116.396 C30.74,117.116 30.416,117.728 29.984,118.52 C29.084,119.996 27.752,121.652 26.384,122.984 C25.628,121.148 25.088,119.204 24.656,117.296 C25.736,116.396 26.78,115.46 27.716,114.488 C29.048,114.488 29.372,114.308 29.372,113.948 C29.372,113.552 28.364,112.94 26.024,111.896 C25.448,112.976 24.584,114.128 23.576,115.316 C21.488,117.62 18.536,119.996 15.368,121.94 C15.188,122.048 15.368,122.444 15.584,122.372 C16.916,121.868 18.248,121.256 19.544,120.572 L19.544,127.016 Z M20.192,110.312 C20.948,109.016 21.596,107.648 22.172,106.208 C23.108,106.028 23.468,105.812 23.468,105.452 C23.468,105.02 22.424,104.624 19.652,104.012 C19.58,104.912 19.436,105.776 19.148,106.928 C18.248,110.096 16.736,113.264 14.9,115.712 C14.756,115.892 15.152,116.18 15.332,116.036 C17.024,114.632 18.428,113.012 19.616,111.212 L34.376,111.212 C34.7,111.212 34.844,111.068 34.844,110.852 C34.844,110.636 34.664,110.384 33.944,109.772 C32.36,108.404 32.108,108.224 31.856,108.224 C31.64,108.224 31.388,108.404 29.768,110.312 L20.192,110.312 Z M12.092,118.232 C11.912,124.1 11.552,128.06 11.048,130.796 C10.688,132.488 10.4,133.172 9.5,133.172 C8.96,133.172 8.168,133.064 6.224,132.812 C6.008,132.776 5.972,133.208 6.188,133.28 C8.276,133.964 8.816,134.396 8.996,135.512 C9.032,135.872 9.176,135.98 9.572,135.98 C10.148,135.98 10.94,135.8 11.444,135.476 C12.2,134.972 12.812,134.036 13.172,132.596 C13.676,130.58 14.324,125.432 14.576,118.916 C15.296,118.412 15.44,118.232 15.44,118.016 C15.44,117.8 15.296,117.584 14.792,117.08 C13.676,116.108 13.46,115.964 13.208,115.964 C12.992,115.964 12.812,116.108 11.84,117.332 L8.492,117.332 C8.564,115.496 8.6,113.696 8.636,111.86 L15.44,111.86 C15.8,111.86 15.908,111.752 15.908,111.536 C15.908,111.284 15.728,111.032 15.224,110.564 C13.928,109.448 13.712,109.268 13.46,109.268 C13.244,109.268 12.956,109.448 11.732,110.96 L9.644,110.96 L9.644,106.136 C10.58,105.74 10.832,105.452 10.832,105.2 C10.832,104.84 10.436,104.552 6.98,104.192 C7.124,105.488 7.16,106.208 7.16,107.036 L7.16,110.96 L4.568,110.96 C3.704,110.96 2.984,110.924 1.94,110.708 L2.3,112.112 C3.308,111.932 3.884,111.86 4.604,111.86 L6.08,111.86 L6.08,114.632 C5.972,124.46 4.46,131.228 1.256,135.98 C1.148,136.16 1.544,136.448 1.688,136.304 C5.936,132.02 7.844,127.052 8.42,118.232 L12.092,118.232 Z M53.672,110.744 C54.284,110.672 54.824,110.672 55.58,110.672 C58.46,110.672 60.584,111.68 62.276,113.012 C64.508,114.812 65.3,117.8 65.3,119.888 C65.3,123.056 64.004,125.36 62.06,127.34 C59.828,129.536 56.012,131.192 52.268,131.912 C51.8,132.02 51.62,132.128 51.62,132.416 C51.62,132.632 51.872,132.848 52.124,132.848 C56.516,132.632 61.448,131.12 64.112,128.816 C66.452,126.764 68,124.46 68,120.392 C68,117.44 66.812,114.488 64.004,112.22 C62.24,110.78 59.36,109.448 55.652,109.448 C50.396,109.448 46.472,111.608 44.132,114.164 C41.9,116.612 40.748,119.888 40.748,122.66 C40.748,125.18 41.396,126.728 42.404,127.988 C43.16,128.96 44.06,129.428 45.104,129.428 C46.616,129.428 47.732,128.384 48.74,127.088 C50.756,124.532 52.592,121.184 53.888,117.764 C54.356,116.504 54.824,114.704 54.824,113.552 C54.824,112.58 54.428,111.572 53.672,110.744 L53.672,110.744 Z M52.7,110.852 C52.988,111.14 53.276,111.644 53.276,112.508 C53.276,113.264 53.204,114.164 52.772,115.352 C51.728,118.268 49.748,121.904 47.624,124.712 C46.58,126.116 45.86,126.764 45.104,126.764 C44.384,126.764 43.808,126.26 43.412,125.54 C42.908,124.64 42.62,123.74 42.62,122.192 C42.62,119.384 43.736,116.432 45.752,114.416 C47.228,112.94 49.496,111.392 52.7,110.852 L52.7,110.852 Z M106.088,124.244 C106.448,124.244 106.556,124.136 106.556,123.92 C106.556,123.704 106.412,123.452 105.62,122.768 C103.928,121.364 103.676,121.184 103.424,121.184 C103.208,121.184 102.956,121.364 101.228,123.344 L91.616,123.344 L91.616,116.864 L104.288,116.864 C104.612,116.864 104.756,116.756 104.756,116.504 C104.756,116.288 104.576,116.072 103.82,115.424 C102.2,114.056 101.912,113.876 101.696,113.876 C101.444,113.876 101.156,114.056 99.608,115.964 L91.616,115.964 L91.616,109.376 C94.316,108.8 96.908,108.044 99.32,107.036 C99.86,107.18 100.256,107.252 100.58,107.252 C101.084,107.252 101.336,107.072 101.336,106.82 C101.336,106.424 100.76,105.884 98.384,104.12 C97.772,104.66 96.944,105.164 95.72,105.74 C91.76,107.576 84.2,109.448 77.72,110.168 C77.504,110.204 77.54,110.672 77.756,110.672 C81.464,110.708 85.244,110.456 88.916,109.88 L88.916,115.964 L79.7,115.964 C78.692,115.964 77.972,115.928 76.784,115.712 L77.18,117.08 C78.152,116.936 78.8,116.864 79.7,116.864 L88.916,116.864 L88.916,123.344 L77.108,123.344 C76.136,123.344 75.452,123.272 74.372,123.056 L74.732,124.46 C75.632,124.316 76.28,124.244 77.144,124.244 L88.916,124.244 L88.916,132.848 C88.916,133.28 88.772,133.46 88.376,133.46 C87.188,133.46 85.676,133.352 83.156,133.172 C82.94,133.172 82.94,133.64 83.156,133.676 C86.216,134.252 87.044,134.756 87.296,135.692 C87.512,136.592 87.584,136.736 88.052,136.736 C88.736,136.736 89.672,136.484 90.248,136.16 C91.22,135.584 91.688,135.008 91.688,133.676 C91.688,132.416 91.652,129.104 91.616,124.244 L106.088,124.244 Z M114.548,134.36 L120.308,134.36 L120.308,135.332 C120.308,135.944 120.668,136.232 121.424,136.232 C122.432,136.232 122.936,135.872 122.936,135.116 C122.936,134.612 122.828,132.668 122.828,128.96 L122.828,127.088 C123.62,126.548 123.836,126.296 123.836,126.044 C123.836,125.828 123.692,125.576 123.152,125.108 C122,124.208 121.784,124.064 121.568,124.064 C121.352,124.064 121.136,124.208 120.056,125.432 L114.872,125.432 C113.648,124.748 113.144,124.532 111.848,124.028 C112.064,125.648 112.1,126.908 112.1,129.248 C112.1,133.604 111.956,134.9 111.956,135.656 C111.956,136.268 112.28,136.556 113.072,136.556 C114.044,136.556 114.548,136.196 114.548,135.476 L114.548,134.36 Z M120.308,133.46 L114.548,133.46 L114.548,126.332 L120.308,126.332 L120.308,133.46 Z M137.84,118.484 L137.84,120.068 C137.84,120.716 138.2,121.04 139.028,121.04 C140.036,121.04 140.576,120.716 140.576,119.816 C140.576,119.06 140.432,116.432 140.432,111.176 L140.432,108.296 C141.368,107.648 141.476,107.432 141.476,107.18 C141.476,106.964 141.368,106.748 140.72,106.28 C139.532,105.272 139.316,105.164 139.064,105.164 C138.848,105.164 138.668,105.272 137.516,106.532 L128.948,106.532 C127.904,106.532 127.112,106.46 125.852,106.316 L126.212,107.72 C127.292,107.468 127.976,107.432 128.948,107.432 L137.84,107.432 L137.84,117.584 L129.308,117.584 C128.084,116.864 127.544,116.612 126.212,116.072 C126.392,118.196 126.464,119.312 126.464,123.668 C126.464,128.672 126.32,130.292 126.32,131.336 C126.32,134.72 127.904,135.692 133.412,135.692 C137.768,135.692 139.82,135.512 141.08,135.188 C142.376,134.828 143.024,134.18 143.024,133.316 C143.024,132.848 142.844,132.488 142.484,132.344 C142.016,132.128 141.908,132.02 141.908,131.3 C141.908,130.256 141.944,128.708 141.98,127.448 C141.98,127.268 141.62,127.196 141.584,127.376 C140.648,130.796 140.216,131.876 139.712,132.416 C139.064,133.208 137.984,133.316 133.592,133.316 C129.704,133.316 128.984,132.74 128.984,131.084 L128.984,118.484 L137.84,118.484 Z M112.064,107.324 C112.964,107.216 113.504,107.144 114.188,107.144 L123.296,107.144 C123.656,107.144 123.764,107.036 123.764,106.784 C123.764,106.568 123.584,106.352 122.972,105.848 C121.424,104.66 121.172,104.48 120.956,104.48 C120.704,104.48 120.452,104.66 119.084,106.244 L114.188,106.244 C113.324,106.244 112.676,106.172 111.632,106.028 L112.064,107.324 Z M110.444,112.148 C111.416,112.004 112.064,111.932 112.82,111.932 L125.384,111.932 C125.708,111.932 125.852,111.824 125.852,111.608 C125.852,111.392 125.672,111.14 125.024,110.636 C123.548,109.412 123.26,109.268 123.044,109.268 C122.828,109.268 122.504,109.412 121.172,111.032 L112.856,111.032 C111.92,111.032 111.2,110.996 110.084,110.816 L110.444,112.148 Z M112.1,117.044 C113,116.9 113.576,116.828 114.296,116.828 L123.332,116.828 C123.692,116.828 123.8,116.72 123.8,116.504 C123.8,116.288 123.62,116.072 123.044,115.604 C121.64,114.416 121.388,114.236 121.136,114.236 C120.92,114.236 120.668,114.416 119.48,115.928 L114.296,115.928 C113.396,115.928 112.748,115.856 111.704,115.676 L112.1,117.044 Z M112.136,121.652 C113.072,121.544 113.612,121.472 114.332,121.472 L123.332,121.472 C123.692,121.472 123.8,121.364 123.8,121.112 C123.8,120.896 123.62,120.644 123.044,120.212 C121.64,119.06 121.388,118.88 121.136,118.88 C120.92,118.88 120.668,119.06 119.48,120.572 L114.332,120.572 C113.432,120.572 112.784,120.5 111.74,120.356 L112.136,121.652 Z" id="旅の手記" fill="#000000" sketch:type="MSShapeGroup"></path>
                <text id="RECORD-OF-THE-MY-TRI" sketch:type="MSTextLayer" font-family="Alternate Gothic No2 D" font-size="13" font-weight="normal" sketch:alignment="middle" fill="#000000">
                    <tspan x="26.6035" y="163">RECORD OF THE MY TRIP</tspan>
                </text>
                <g id="Page-1" transform="translate(21.000000, 0.000000)" sketch:type="MSShapeGroup">
                    <path d="M48.314952,78.8804068 C33.354952,71.8295593 16.082952,71.4227797 1.122952,77.795661 L1.122952,18.2702373 C16.082952,11.8973559 33.354952,12.1685424 48.314952,19.3549831 L48.314952,78.8804068 Z" id="Fill-1" fill="#52A989"></path>
                    <path d="M48.314952,78.8804068 C33.354952,71.8295593 16.082952,71.4227797 1.122952,77.795661 L1.122952,18.2702373 C16.082952,11.8973559 33.354952,12.1685424 48.314952,19.3549831 L48.314952,78.8804068 L48.314952,78.8804068 Z" id="Stroke-3" stroke="#52A989" stroke-width="1.651" stroke-linecap="round" stroke-linejoin="round"></path>
                    <path d="M50.082952,78.8804068 C35.122952,69.1176949 17.850952,65.9990508 2.890952,69.6600678 L2.890952,10.1346441 C17.850952,6.47362712 35.122952,9.45667797 50.082952,19.3549831 L50.082952,78.8804068 Z" id="Fill-5" fill="#FFFFFF"></path>
                    <path d="M50.082952,78.8804068 C35.122952,69.1176949 17.850952,65.9990508 2.890952,69.6600678 L2.890952,10.1346441 C17.850952,6.47362712 35.122952,9.45667797 50.082952,19.3549831 L50.082952,78.8804068 L50.082952,78.8804068 Z" id="Stroke-7" stroke="#52A989" stroke-width="1.651" stroke-linecap="round" stroke-linejoin="round"></path>
                    <path d="M50.082952,78.8804068 C66.266952,71.2871864 84.762952,70.8804068 100.810952,77.795661 L100.810952,18.2702373 C84.626952,11.3549831 66.130952,11.7617627 50.082952,19.3549831 L50.082952,78.8804068" id="Fill-9" fill="#52A989"></path>
                    <path d="M50.082952,78.8804068 C66.266952,71.2871864 84.762952,70.8804068 100.810952,77.795661 L100.810952,18.2702373 C84.626952,11.3549831 66.130952,11.7617627 50.082952,19.3549831 L50.082952,78.8804068 L50.082952,78.8804068 Z" id="Stroke-11" stroke="#52A989" stroke-width="1.651" stroke-linecap="round" stroke-linejoin="round"></path>
                    <path d="M50.082952,78.8804068 C65.042952,69.1176949 82.314952,65.9990508 97.274952,69.6600678 L97.274952,10.1346441 C82.314952,6.47362712 65.042952,9.45667797 50.082952,19.3549831 L50.082952,78.8804068" id="Fill-13" fill="#FFFFFF"></path>
                    <path d="M50.082952,78.8804068 C65.042952,69.1176949 82.314952,65.9990508 97.274952,69.6600678 L97.274952,10.1346441 C82.314952,6.47362712 65.042952,9.45667797 50.082952,19.3549831 L50.082952,78.8804068 L50.082952,78.8804068 Z" id="Stroke-15" stroke="#52A989" stroke-width="1.651" stroke-linecap="round" stroke-linejoin="round"></path>
                    <path d="M50.082952,78.8804068 C37.298952,66.8126102 22.746952,60.4397288 9.962952,59.8973559 L9.962952,0.371932203 C22.746952,0.914305085 37.298952,7.28718644 50.082952,19.3549831 L50.082952,78.8804068 Z" id="Fill-17" fill="#FFFFFF"></path>
                    <path d="M50.082952,78.8804068 C37.298952,66.8126102 22.746952,60.4397288 9.962952,59.8973559 L9.962952,0.371932203 C22.746952,0.914305085 37.298952,7.28718644 50.082952,19.3549831 L50.082952,78.8804068 L50.082952,78.8804068 Z" id="Stroke-19" stroke="#52A989" stroke-width="1.651" stroke-linecap="round" stroke-linejoin="round"></path>
                </g>
            </g>
        </g>
    </g>
</svg>